%TF.GenerationSoftware,KiCad,Pcbnew,(7.0.0-rc2-153-g7d6218acb4)*%
%TF.CreationDate,2023-02-26T22:54:42+05:30*%
%TF.ProjectId,40-m0110,34302d6d-3031-4313-902e-6b696361645f,rev?*%
%TF.SameCoordinates,Original*%
%TF.FileFunction,Soldermask,Bot*%
%TF.FilePolarity,Negative*%
%FSLAX46Y46*%
G04 Gerber Fmt 4.6, Leading zero omitted, Abs format (unit mm)*
G04 Created by KiCad (PCBNEW (7.0.0-rc2-153-g7d6218acb4)) date 2023-02-26 22:54:42*
%MOMM*%
%LPD*%
G01*
G04 APERTURE LIST*
G04 Aperture macros list*
%AMRoundRect*
0 Rectangle with rounded corners*
0 $1 Rounding radius*
0 $2 $3 $4 $5 $6 $7 $8 $9 X,Y pos of 4 corners*
0 Add a 4 corners polygon primitive as box body*
4,1,4,$2,$3,$4,$5,$6,$7,$8,$9,$2,$3,0*
0 Add four circle primitives for the rounded corners*
1,1,$1+$1,$2,$3*
1,1,$1+$1,$4,$5*
1,1,$1+$1,$6,$7*
1,1,$1+$1,$8,$9*
0 Add four rect primitives between the rounded corners*
20,1,$1+$1,$2,$3,$4,$5,0*
20,1,$1+$1,$4,$5,$6,$7,0*
20,1,$1+$1,$6,$7,$8,$9,0*
20,1,$1+$1,$8,$9,$2,$3,0*%
%AMRotRect*
0 Rectangle, with rotation*
0 The origin of the aperture is its center*
0 $1 length*
0 $2 width*
0 $3 Rotation angle, in degrees counterclockwise*
0 Add horizontal line*
21,1,$1,$2,0,0,$3*%
G04 Aperture macros list end*
%ADD10C,0.150000*%
%ADD11C,1.750000*%
%ADD12C,3.987800*%
%ADD13C,2.250000*%
%ADD14C,3.048000*%
%ADD15C,5.600000*%
%ADD16RoundRect,0.225000X0.375000X-0.225000X0.375000X0.225000X-0.375000X0.225000X-0.375000X-0.225000X0*%
%ADD17RoundRect,0.243750X0.243750X0.456250X-0.243750X0.456250X-0.243750X-0.456250X0.243750X-0.456250X0*%
%ADD18RoundRect,0.150000X0.150000X-0.450000X0.150000X0.450000X-0.150000X0.450000X-0.150000X-0.450000X0*%
%ADD19RoundRect,0.250000X-0.325000X-0.650000X0.325000X-0.650000X0.325000X0.650000X-0.325000X0.650000X0*%
%ADD20R,0.550000X1.600000*%
%ADD21R,1.600000X0.550000*%
%ADD22RotRect,1.400000X1.200000X225.000000*%
%ADD23RoundRect,0.200000X-0.200000X-0.275000X0.200000X-0.275000X0.200000X0.275000X-0.200000X0.275000X0*%
%ADD24R,1.550000X0.600000*%
%ADD25C,0.400000*%
%ADD26R,1.800000X1.200000*%
%ADD27RoundRect,0.225000X-0.250000X0.225000X-0.250000X-0.225000X0.250000X-0.225000X0.250000X0.225000X0*%
%ADD28RoundRect,0.200000X-0.275000X0.200000X-0.275000X-0.200000X0.275000X-0.200000X0.275000X0.200000X0*%
%ADD29RoundRect,0.225000X-0.225000X-0.250000X0.225000X-0.250000X0.225000X0.250000X-0.225000X0.250000X0*%
%ADD30R,1.700000X1.000000*%
G04 APERTURE END LIST*
D10*
X101818695Y-13541641D02*
X101818695Y-14208307D01*
X102056790Y-13160688D02*
X102294885Y-13874974D01*
X102294885Y-13874974D02*
X101675838Y-13874974D01*
X101104409Y-13208307D02*
X101009171Y-13208307D01*
X101009171Y-13208307D02*
X100913933Y-13255927D01*
X100913933Y-13255927D02*
X100866314Y-13303546D01*
X100866314Y-13303546D02*
X100818695Y-13398784D01*
X100818695Y-13398784D02*
X100771076Y-13589260D01*
X100771076Y-13589260D02*
X100771076Y-13827355D01*
X100771076Y-13827355D02*
X100818695Y-14017831D01*
X100818695Y-14017831D02*
X100866314Y-14113069D01*
X100866314Y-14113069D02*
X100913933Y-14160688D01*
X100913933Y-14160688D02*
X101009171Y-14208307D01*
X101009171Y-14208307D02*
X101104409Y-14208307D01*
X101104409Y-14208307D02*
X101199647Y-14160688D01*
X101199647Y-14160688D02*
X101247266Y-14113069D01*
X101247266Y-14113069D02*
X101294885Y-14017831D01*
X101294885Y-14017831D02*
X101342504Y-13827355D01*
X101342504Y-13827355D02*
X101342504Y-13589260D01*
X101342504Y-13589260D02*
X101294885Y-13398784D01*
X101294885Y-13398784D02*
X101247266Y-13303546D01*
X101247266Y-13303546D02*
X101199647Y-13255927D01*
X101199647Y-13255927D02*
X101104409Y-13208307D01*
X100342504Y-13827355D02*
X99580600Y-13827355D01*
X99104409Y-14208307D02*
X99104409Y-13208307D01*
X99104409Y-13208307D02*
X98771076Y-13922593D01*
X98771076Y-13922593D02*
X98437743Y-13208307D01*
X98437743Y-13208307D02*
X98437743Y-14208307D01*
X97771076Y-13208307D02*
X97675838Y-13208307D01*
X97675838Y-13208307D02*
X97580600Y-13255927D01*
X97580600Y-13255927D02*
X97532981Y-13303546D01*
X97532981Y-13303546D02*
X97485362Y-13398784D01*
X97485362Y-13398784D02*
X97437743Y-13589260D01*
X97437743Y-13589260D02*
X97437743Y-13827355D01*
X97437743Y-13827355D02*
X97485362Y-14017831D01*
X97485362Y-14017831D02*
X97532981Y-14113069D01*
X97532981Y-14113069D02*
X97580600Y-14160688D01*
X97580600Y-14160688D02*
X97675838Y-14208307D01*
X97675838Y-14208307D02*
X97771076Y-14208307D01*
X97771076Y-14208307D02*
X97866314Y-14160688D01*
X97866314Y-14160688D02*
X97913933Y-14113069D01*
X97913933Y-14113069D02*
X97961552Y-14017831D01*
X97961552Y-14017831D02*
X98009171Y-13827355D01*
X98009171Y-13827355D02*
X98009171Y-13589260D01*
X98009171Y-13589260D02*
X97961552Y-13398784D01*
X97961552Y-13398784D02*
X97913933Y-13303546D01*
X97913933Y-13303546D02*
X97866314Y-13255927D01*
X97866314Y-13255927D02*
X97771076Y-13208307D01*
X96485362Y-14208307D02*
X97056790Y-14208307D01*
X96771076Y-14208307D02*
X96771076Y-13208307D01*
X96771076Y-13208307D02*
X96866314Y-13351165D01*
X96866314Y-13351165D02*
X96961552Y-13446403D01*
X96961552Y-13446403D02*
X97056790Y-13494022D01*
X95532981Y-14208307D02*
X96104409Y-14208307D01*
X95818695Y-14208307D02*
X95818695Y-13208307D01*
X95818695Y-13208307D02*
X95913933Y-13351165D01*
X95913933Y-13351165D02*
X96009171Y-13446403D01*
X96009171Y-13446403D02*
X96104409Y-13494022D01*
X94913933Y-13208307D02*
X94818695Y-13208307D01*
X94818695Y-13208307D02*
X94723457Y-13255927D01*
X94723457Y-13255927D02*
X94675838Y-13303546D01*
X94675838Y-13303546D02*
X94628219Y-13398784D01*
X94628219Y-13398784D02*
X94580600Y-13589260D01*
X94580600Y-13589260D02*
X94580600Y-13827355D01*
X94580600Y-13827355D02*
X94628219Y-14017831D01*
X94628219Y-14017831D02*
X94675838Y-14113069D01*
X94675838Y-14113069D02*
X94723457Y-14160688D01*
X94723457Y-14160688D02*
X94818695Y-14208307D01*
X94818695Y-14208307D02*
X94913933Y-14208307D01*
X94913933Y-14208307D02*
X95009171Y-14160688D01*
X95009171Y-14160688D02*
X95056790Y-14113069D01*
X95056790Y-14113069D02*
X95104409Y-14017831D01*
X95104409Y-14017831D02*
X95152028Y-13827355D01*
X95152028Y-13827355D02*
X95152028Y-13589260D01*
X95152028Y-13589260D02*
X95104409Y-13398784D01*
X95104409Y-13398784D02*
X95056790Y-13303546D01*
X95056790Y-13303546D02*
X95009171Y-13255927D01*
X95009171Y-13255927D02*
X94913933Y-13208307D01*
X93552028Y-14208307D02*
X93552028Y-13208307D01*
X93552028Y-13208307D02*
X93171076Y-13208307D01*
X93171076Y-13208307D02*
X93075838Y-13255927D01*
X93075838Y-13255927D02*
X93028219Y-13303546D01*
X93028219Y-13303546D02*
X92980600Y-13398784D01*
X92980600Y-13398784D02*
X92980600Y-13541641D01*
X92980600Y-13541641D02*
X93028219Y-13636879D01*
X93028219Y-13636879D02*
X93075838Y-13684498D01*
X93075838Y-13684498D02*
X93171076Y-13732117D01*
X93171076Y-13732117D02*
X93552028Y-13732117D01*
X91980600Y-14113069D02*
X92028219Y-14160688D01*
X92028219Y-14160688D02*
X92171076Y-14208307D01*
X92171076Y-14208307D02*
X92266314Y-14208307D01*
X92266314Y-14208307D02*
X92409171Y-14160688D01*
X92409171Y-14160688D02*
X92504409Y-14065450D01*
X92504409Y-14065450D02*
X92552028Y-13970212D01*
X92552028Y-13970212D02*
X92599647Y-13779736D01*
X92599647Y-13779736D02*
X92599647Y-13636879D01*
X92599647Y-13636879D02*
X92552028Y-13446403D01*
X92552028Y-13446403D02*
X92504409Y-13351165D01*
X92504409Y-13351165D02*
X92409171Y-13255927D01*
X92409171Y-13255927D02*
X92266314Y-13208307D01*
X92266314Y-13208307D02*
X92171076Y-13208307D01*
X92171076Y-13208307D02*
X92028219Y-13255927D01*
X92028219Y-13255927D02*
X91980600Y-13303546D01*
X91218695Y-13684498D02*
X91075838Y-13732117D01*
X91075838Y-13732117D02*
X91028219Y-13779736D01*
X91028219Y-13779736D02*
X90980600Y-13874974D01*
X90980600Y-13874974D02*
X90980600Y-14017831D01*
X90980600Y-14017831D02*
X91028219Y-14113069D01*
X91028219Y-14113069D02*
X91075838Y-14160688D01*
X91075838Y-14160688D02*
X91171076Y-14208307D01*
X91171076Y-14208307D02*
X91552028Y-14208307D01*
X91552028Y-14208307D02*
X91552028Y-13208307D01*
X91552028Y-13208307D02*
X91218695Y-13208307D01*
X91218695Y-13208307D02*
X91123457Y-13255927D01*
X91123457Y-13255927D02*
X91075838Y-13303546D01*
X91075838Y-13303546D02*
X91028219Y-13398784D01*
X91028219Y-13398784D02*
X91028219Y-13494022D01*
X91028219Y-13494022D02*
X91075838Y-13589260D01*
X91075838Y-13589260D02*
X91123457Y-13636879D01*
X91123457Y-13636879D02*
X91218695Y-13684498D01*
X91218695Y-13684498D02*
X91552028Y-13684498D01*
X89952028Y-14208307D02*
X89952028Y-13208307D01*
X89952028Y-13208307D02*
X89713933Y-13208307D01*
X89713933Y-13208307D02*
X89571076Y-13255927D01*
X89571076Y-13255927D02*
X89475838Y-13351165D01*
X89475838Y-13351165D02*
X89428219Y-13446403D01*
X89428219Y-13446403D02*
X89380600Y-13636879D01*
X89380600Y-13636879D02*
X89380600Y-13779736D01*
X89380600Y-13779736D02*
X89428219Y-13970212D01*
X89428219Y-13970212D02*
X89475838Y-14065450D01*
X89475838Y-14065450D02*
X89571076Y-14160688D01*
X89571076Y-14160688D02*
X89713933Y-14208307D01*
X89713933Y-14208307D02*
X89952028Y-14208307D01*
X88952028Y-13684498D02*
X88618695Y-13684498D01*
X88475838Y-14208307D02*
X88952028Y-14208307D01*
X88952028Y-14208307D02*
X88952028Y-13208307D01*
X88952028Y-13208307D02*
X88475838Y-13208307D01*
X88094885Y-14160688D02*
X87952028Y-14208307D01*
X87952028Y-14208307D02*
X87713933Y-14208307D01*
X87713933Y-14208307D02*
X87618695Y-14160688D01*
X87618695Y-14160688D02*
X87571076Y-14113069D01*
X87571076Y-14113069D02*
X87523457Y-14017831D01*
X87523457Y-14017831D02*
X87523457Y-13922593D01*
X87523457Y-13922593D02*
X87571076Y-13827355D01*
X87571076Y-13827355D02*
X87618695Y-13779736D01*
X87618695Y-13779736D02*
X87713933Y-13732117D01*
X87713933Y-13732117D02*
X87904409Y-13684498D01*
X87904409Y-13684498D02*
X87999647Y-13636879D01*
X87999647Y-13636879D02*
X88047266Y-13589260D01*
X88047266Y-13589260D02*
X88094885Y-13494022D01*
X88094885Y-13494022D02*
X88094885Y-13398784D01*
X88094885Y-13398784D02*
X88047266Y-13303546D01*
X88047266Y-13303546D02*
X87999647Y-13255927D01*
X87999647Y-13255927D02*
X87904409Y-13208307D01*
X87904409Y-13208307D02*
X87666314Y-13208307D01*
X87666314Y-13208307D02*
X87523457Y-13255927D01*
X87094885Y-14208307D02*
X87094885Y-13208307D01*
X86094886Y-13255927D02*
X86190124Y-13208307D01*
X86190124Y-13208307D02*
X86332981Y-13208307D01*
X86332981Y-13208307D02*
X86475838Y-13255927D01*
X86475838Y-13255927D02*
X86571076Y-13351165D01*
X86571076Y-13351165D02*
X86618695Y-13446403D01*
X86618695Y-13446403D02*
X86666314Y-13636879D01*
X86666314Y-13636879D02*
X86666314Y-13779736D01*
X86666314Y-13779736D02*
X86618695Y-13970212D01*
X86618695Y-13970212D02*
X86571076Y-14065450D01*
X86571076Y-14065450D02*
X86475838Y-14160688D01*
X86475838Y-14160688D02*
X86332981Y-14208307D01*
X86332981Y-14208307D02*
X86237743Y-14208307D01*
X86237743Y-14208307D02*
X86094886Y-14160688D01*
X86094886Y-14160688D02*
X86047267Y-14113069D01*
X86047267Y-14113069D02*
X86047267Y-13779736D01*
X86047267Y-13779736D02*
X86237743Y-13779736D01*
X85618695Y-14208307D02*
X85618695Y-13208307D01*
X85618695Y-13208307D02*
X85047267Y-14208307D01*
X85047267Y-14208307D02*
X85047267Y-13208307D01*
X84571076Y-13684498D02*
X84237743Y-13684498D01*
X84094886Y-14208307D02*
X84571076Y-14208307D01*
X84571076Y-14208307D02*
X84571076Y-13208307D01*
X84571076Y-13208307D02*
X84094886Y-13208307D01*
X83666314Y-14208307D02*
X83666314Y-13208307D01*
X83666314Y-13208307D02*
X83428219Y-13208307D01*
X83428219Y-13208307D02*
X83285362Y-13255927D01*
X83285362Y-13255927D02*
X83190124Y-13351165D01*
X83190124Y-13351165D02*
X83142505Y-13446403D01*
X83142505Y-13446403D02*
X83094886Y-13636879D01*
X83094886Y-13636879D02*
X83094886Y-13779736D01*
X83094886Y-13779736D02*
X83142505Y-13970212D01*
X83142505Y-13970212D02*
X83190124Y-14065450D01*
X83190124Y-14065450D02*
X83285362Y-14160688D01*
X83285362Y-14160688D02*
X83428219Y-14208307D01*
X83428219Y-14208307D02*
X83666314Y-14208307D01*
X81732981Y-13684498D02*
X81590124Y-13732117D01*
X81590124Y-13732117D02*
X81542505Y-13779736D01*
X81542505Y-13779736D02*
X81494886Y-13874974D01*
X81494886Y-13874974D02*
X81494886Y-14017831D01*
X81494886Y-14017831D02*
X81542505Y-14113069D01*
X81542505Y-14113069D02*
X81590124Y-14160688D01*
X81590124Y-14160688D02*
X81685362Y-14208307D01*
X81685362Y-14208307D02*
X82066314Y-14208307D01*
X82066314Y-14208307D02*
X82066314Y-13208307D01*
X82066314Y-13208307D02*
X81732981Y-13208307D01*
X81732981Y-13208307D02*
X81637743Y-13255927D01*
X81637743Y-13255927D02*
X81590124Y-13303546D01*
X81590124Y-13303546D02*
X81542505Y-13398784D01*
X81542505Y-13398784D02*
X81542505Y-13494022D01*
X81542505Y-13494022D02*
X81590124Y-13589260D01*
X81590124Y-13589260D02*
X81637743Y-13636879D01*
X81637743Y-13636879D02*
X81732981Y-13684498D01*
X81732981Y-13684498D02*
X82066314Y-13684498D01*
X80875838Y-13732117D02*
X80875838Y-14208307D01*
X81209171Y-13208307D02*
X80875838Y-13732117D01*
X80875838Y-13732117D02*
X80542505Y-13208307D01*
X79609171Y-14208307D02*
X79609171Y-13208307D01*
X79609171Y-13208307D02*
X79275838Y-13922593D01*
X79275838Y-13922593D02*
X78942505Y-13208307D01*
X78942505Y-13208307D02*
X78942505Y-14208307D01*
X78513933Y-13922593D02*
X78037743Y-13922593D01*
X78609171Y-14208307D02*
X78275838Y-13208307D01*
X78275838Y-13208307D02*
X77942505Y-14208307D01*
X77609171Y-13684498D02*
X77275838Y-13684498D01*
X77132981Y-14208307D02*
X77609171Y-14208307D01*
X77609171Y-14208307D02*
X77609171Y-13208307D01*
X77609171Y-13208307D02*
X77132981Y-13208307D01*
X76228219Y-14208307D02*
X76704409Y-14208307D01*
X76704409Y-14208307D02*
X76704409Y-13208307D01*
X75894885Y-14208307D02*
X75894885Y-13208307D01*
X75323457Y-14208307D02*
X75752028Y-13636879D01*
X75323457Y-13208307D02*
X75894885Y-13779736D01*
X74894885Y-14208307D02*
X74894885Y-13208307D01*
X74323457Y-14208307D02*
X74752028Y-13636879D01*
X74323457Y-13208307D02*
X74894885Y-13779736D01*
D11*
%TO.C,MX21*%
X183038750Y-9525000D03*
D12*
X188118750Y-9525000D03*
D11*
X193198750Y-9525000D03*
D13*
X184308750Y-6985000D03*
X190658750Y-4445000D03*
%TD*%
D11*
%TO.C,MX7*%
X140176250Y9525000D03*
D12*
X145256250Y9525000D03*
D11*
X150336250Y9525000D03*
D13*
X141446250Y12065000D03*
X147796250Y14605000D03*
%TD*%
D11*
%TO.C,MX24*%
X244951250Y-9525000D03*
D12*
X250031250Y-9525000D03*
D11*
X255111250Y-9525000D03*
D13*
X246221250Y-6985000D03*
X252571250Y-4445000D03*
%TD*%
D11*
%TO.C,MX11*%
X216376250Y9525000D03*
D12*
X221456250Y9525000D03*
D11*
X226536250Y9525000D03*
D13*
X217646250Y12065000D03*
X223996250Y14605000D03*
%TD*%
D11*
%TO.C,MX20*%
X163988750Y-9525000D03*
D12*
X169068750Y-9525000D03*
D11*
X174148750Y-9525000D03*
D13*
X165258750Y-6985000D03*
X171608750Y-4445000D03*
%TD*%
D11*
%TO.C,MX22*%
X202088750Y-9525000D03*
D12*
X207168750Y-9525000D03*
D11*
X212248750Y-9525000D03*
D13*
X203358750Y-6985000D03*
X209708750Y-4445000D03*
%TD*%
D11*
%TO.C,MX15*%
X68738750Y-9525000D03*
D12*
X73818750Y-9525000D03*
D11*
X78898750Y-9525000D03*
D13*
X70008750Y-6985000D03*
X76358750Y-4445000D03*
%TD*%
D11*
%TO.C,MX23*%
X221138750Y-9525000D03*
D12*
X226218750Y-9525000D03*
D11*
X231298750Y-9525000D03*
D13*
X222408750Y-6985000D03*
X228758750Y-4445000D03*
%TD*%
D11*
%TO.C,MX26*%
X28257500Y-47625000D03*
D12*
X33337500Y-47625000D03*
D11*
X38417500Y-47625000D03*
D13*
X29527500Y-45085000D03*
X35877500Y-42545000D03*
%TD*%
D11*
%TO.C,MX41*%
X192563750Y-28575000D03*
D12*
X197643750Y-28575000D03*
D11*
X202723750Y-28575000D03*
D13*
X193833750Y-26035000D03*
X200183750Y-23495000D03*
%TD*%
D11*
%TO.C,MX18*%
X125888750Y-9525000D03*
D12*
X130968750Y-9525000D03*
D11*
X136048750Y-9525000D03*
D13*
X127158750Y-6985000D03*
X133508750Y-4445000D03*
%TD*%
D11*
%TO.C,MX25*%
X33020000Y-28575000D03*
D12*
X38100000Y-28575000D03*
D11*
X43180000Y-28575000D03*
D13*
X34290000Y-26035000D03*
X40640000Y-23495000D03*
%TD*%
D11*
%TO.C,MX46*%
X233045000Y-47625000D03*
D12*
X238125000Y-47625000D03*
D11*
X243205000Y-47625000D03*
D13*
X234315000Y-45085000D03*
X240665000Y-42545000D03*
%TD*%
D11*
%TO.C,MX43*%
X211613750Y-28575000D03*
D12*
X216693750Y-28575000D03*
D11*
X221773750Y-28575000D03*
D13*
X212883750Y-26035000D03*
X219233750Y-23495000D03*
%TD*%
D11*
%TO.C,MX8*%
X159226250Y9525000D03*
D12*
X164306250Y9525000D03*
D11*
X169386250Y9525000D03*
D13*
X160496250Y12065000D03*
X166846250Y14605000D03*
%TD*%
D11*
%TO.C,MX17*%
X106838750Y-9525000D03*
D12*
X111918750Y-9525000D03*
D11*
X116998750Y-9525000D03*
D13*
X108108750Y-6985000D03*
X114458750Y-4445000D03*
%TD*%
D11*
%TO.C,MX12*%
X242570000Y9525000D03*
D12*
X247650000Y9525000D03*
D11*
X252730000Y9525000D03*
D13*
X243840000Y12065000D03*
X250190000Y14605000D03*
%TD*%
D11*
%TO.C,MX49*%
X66357500Y-47625000D03*
D12*
X71437500Y-47625000D03*
D11*
X76517500Y-47625000D03*
D13*
X67627500Y-45085000D03*
X73977500Y-42545000D03*
%TD*%
D11*
%TO.C,MX29*%
X78263750Y-28575000D03*
D12*
X83343750Y-28575000D03*
D11*
X88423750Y-28575000D03*
D13*
X79533750Y-26035000D03*
X85883750Y-23495000D03*
%TD*%
D11*
%TO.C,MX9*%
X178276250Y9525000D03*
D12*
X183356250Y9525000D03*
D11*
X188436250Y9525000D03*
D13*
X179546250Y12065000D03*
X185896250Y14605000D03*
%TD*%
D11*
%TO.C,MX47*%
X249713750Y-28575000D03*
D12*
X254793750Y-28575000D03*
D11*
X259873750Y-28575000D03*
D13*
X250983750Y-26035000D03*
X257333750Y-23495000D03*
%TD*%
D11*
%TO.C,MX35*%
X135413750Y-28575000D03*
D12*
X140493750Y-28575000D03*
D11*
X145573750Y-28575000D03*
D13*
X136683750Y-26035000D03*
X143033750Y-23495000D03*
%TD*%
D11*
%TO.C,MX28*%
X42545000Y-47625000D03*
D12*
X47625000Y-47625000D03*
D11*
X52705000Y-47625000D03*
D13*
X43815000Y-45085000D03*
X50165000Y-42545000D03*
%TD*%
D12*
%TO.C,MX34*%
X107156250Y-39370000D03*
D14*
X107156250Y-54610000D03*
D11*
X113982500Y-47625000D03*
D12*
X119062500Y-47625000D03*
D11*
X124142500Y-47625000D03*
D12*
X130968750Y-39370000D03*
D14*
X130968750Y-54610000D03*
D13*
X115252500Y-45085000D03*
X121602500Y-42545000D03*
%TD*%
D15*
%TO.C,H2*%
X254793750Y22600000D03*
%TD*%
D11*
%TO.C,MX27*%
X59213750Y-28575000D03*
D12*
X64293750Y-28575000D03*
D11*
X69373750Y-28575000D03*
D13*
X60483750Y-26035000D03*
X66833750Y-23495000D03*
%TD*%
D15*
%TO.C,H4*%
X254793750Y-60700000D03*
%TD*%
D11*
%TO.C,MX2*%
X44926250Y9525000D03*
D12*
X50006250Y9525000D03*
D11*
X55086250Y9525000D03*
D13*
X46196250Y12065000D03*
X52546250Y14605000D03*
%TD*%
D11*
%TO.C,MX45*%
X230663750Y-28575000D03*
D12*
X235743750Y-28575000D03*
D11*
X240823750Y-28575000D03*
D13*
X231933750Y-26035000D03*
X238283750Y-23495000D03*
%TD*%
D11*
%TO.C,MX6*%
X121126250Y9525000D03*
D12*
X126206250Y9525000D03*
D11*
X131286250Y9525000D03*
D13*
X122396250Y12065000D03*
X128746250Y14605000D03*
%TD*%
D11*
%TO.C,MX42*%
X185420000Y-47625000D03*
D12*
X190500000Y-47625000D03*
D11*
X195580000Y-47625000D03*
D13*
X186690000Y-45085000D03*
X193040000Y-42545000D03*
%TD*%
D12*
%TO.C,MX38*%
X147637500Y-39370000D03*
D14*
X147637500Y-54610000D03*
D11*
X154463750Y-47625000D03*
D12*
X159543750Y-47625000D03*
D11*
X164623750Y-47625000D03*
D12*
X171450000Y-39370000D03*
D14*
X171450000Y-54610000D03*
D13*
X155733750Y-45085000D03*
X162083750Y-42545000D03*
%TD*%
D11*
%TO.C,MX14*%
X49688750Y-9525000D03*
D12*
X54768750Y-9525000D03*
D11*
X59848750Y-9525000D03*
D13*
X50958750Y-6985000D03*
X57308750Y-4445000D03*
%TD*%
D11*
%TO.C,MX44*%
X209232500Y-47625000D03*
D12*
X214312500Y-47625000D03*
D11*
X219392500Y-47625000D03*
D13*
X210502500Y-45085000D03*
X216852500Y-42545000D03*
%TD*%
D12*
%TO.C,MX36*%
X92875100Y-39370000D03*
D14*
X92875100Y-54610000D03*
D11*
X137795000Y-47625000D03*
D12*
X142875000Y-47625000D03*
D11*
X147955000Y-47625000D03*
D12*
X192874900Y-39370000D03*
D14*
X192874900Y-54610000D03*
D13*
X139065000Y-45085000D03*
X145415000Y-42545000D03*
%TD*%
D11*
%TO.C,MX5*%
X102076250Y9525000D03*
D12*
X107156250Y9525000D03*
D11*
X112236250Y9525000D03*
D13*
X103346250Y12065000D03*
X109696250Y14605000D03*
%TD*%
D11*
%TO.C,MX3*%
X63976250Y9525000D03*
D12*
X69056250Y9525000D03*
D11*
X74136250Y9525000D03*
D13*
X65246250Y12065000D03*
X71596250Y14605000D03*
%TD*%
D15*
%TO.C,H3*%
X30956250Y-60700000D03*
%TD*%
D11*
%TO.C,MX13*%
X28257500Y-9525000D03*
D12*
X33337500Y-9525000D03*
D11*
X38417500Y-9525000D03*
D13*
X29527500Y-6985000D03*
X35877500Y-4445000D03*
%TD*%
D11*
%TO.C,MX1*%
X25876250Y9525000D03*
D12*
X30956250Y9525000D03*
D11*
X36036250Y9525000D03*
D13*
X27146250Y12065000D03*
X33496250Y14605000D03*
%TD*%
D11*
%TO.C,MX31*%
X97313750Y-28575000D03*
D12*
X102393750Y-28575000D03*
D11*
X107473750Y-28575000D03*
D13*
X98583750Y-26035000D03*
X104933750Y-23495000D03*
%TD*%
D11*
%TO.C,MX33*%
X116363750Y-28575000D03*
D12*
X121443750Y-28575000D03*
D11*
X126523750Y-28575000D03*
D13*
X117633750Y-26035000D03*
X123983750Y-23495000D03*
%TD*%
D11*
%TO.C,MX32*%
X83026250Y-47625000D03*
D12*
X88106250Y-47625000D03*
D11*
X93186250Y-47625000D03*
D13*
X84296250Y-45085000D03*
X90646250Y-42545000D03*
%TD*%
D11*
%TO.C,MX10*%
X197326250Y9525000D03*
D12*
X202406250Y9525000D03*
D11*
X207486250Y9525000D03*
D13*
X198596250Y12065000D03*
X204946250Y14605000D03*
%TD*%
D11*
%TO.C,MX48*%
X247332500Y-47625000D03*
D12*
X252412500Y-47625000D03*
D11*
X257492500Y-47625000D03*
D13*
X248602500Y-45085000D03*
X254952500Y-42545000D03*
%TD*%
D15*
%TO.C,H1*%
X30956250Y22600000D03*
%TD*%
D11*
%TO.C,MX30*%
X63976250Y-47625000D03*
D12*
X69056250Y-47625000D03*
D11*
X74136250Y-47625000D03*
D13*
X65246250Y-45085000D03*
X71596250Y-42545000D03*
%TD*%
D11*
%TO.C,MX37*%
X154463750Y-28575000D03*
D12*
X159543750Y-28575000D03*
D11*
X164623750Y-28575000D03*
D13*
X155733750Y-26035000D03*
X162083750Y-23495000D03*
%TD*%
D11*
%TO.C,MX39*%
X173513750Y-28575000D03*
D12*
X178593750Y-28575000D03*
D11*
X183673750Y-28575000D03*
D13*
X174783750Y-26035000D03*
X181133750Y-23495000D03*
%TD*%
D11*
%TO.C,MX16*%
X87788750Y-9525000D03*
D12*
X92868750Y-9525000D03*
D11*
X97948750Y-9525000D03*
D13*
X89058750Y-6985000D03*
X95408750Y-4445000D03*
%TD*%
D11*
%TO.C,MX19*%
X144938750Y-9525000D03*
D12*
X150018750Y-9525000D03*
D11*
X155098750Y-9525000D03*
D13*
X146208750Y-6985000D03*
X152558750Y-4445000D03*
%TD*%
D11*
%TO.C,MX4*%
X83026250Y9525000D03*
D12*
X88106250Y9525000D03*
D11*
X93186250Y9525000D03*
D13*
X84296250Y12065000D03*
X90646250Y14605000D03*
%TD*%
D16*
%TO.C,D26*%
X40481250Y-49275000D03*
X40481250Y-45975000D03*
%TD*%
%TO.C,D46*%
X245268750Y-49275000D03*
X245268750Y-45975000D03*
%TD*%
%TO.C,D2*%
X57150000Y7875000D03*
X57150000Y11175000D03*
%TD*%
%TO.C,D12*%
X255270000Y7875000D03*
X255270000Y11175000D03*
%TD*%
%TO.C,D33*%
X128587500Y-30225000D03*
X128587500Y-26925000D03*
%TD*%
%TO.C,D25*%
X30956250Y-30225000D03*
X30956250Y-26925000D03*
%TD*%
%TO.C,D15*%
X81280000Y-11175000D03*
X81280000Y-7875000D03*
%TD*%
D17*
%TO.C,F1*%
X74756250Y3175000D03*
X72881250Y3175000D03*
%TD*%
D16*
%TO.C,D18*%
X138430000Y-11175000D03*
X138430000Y-7875000D03*
%TD*%
%TO.C,D24*%
X257810000Y-11175000D03*
X257810000Y-7875000D03*
%TD*%
%TO.C,D10*%
X209550000Y7875000D03*
X209550000Y11175000D03*
%TD*%
%TO.C,D39*%
X185737500Y-30225000D03*
X185737500Y-26925000D03*
%TD*%
%TO.C,D42*%
X197643750Y-49275000D03*
X197643750Y-45975000D03*
%TD*%
%TO.C,D37*%
X166687500Y-30225000D03*
X166687500Y-26925000D03*
%TD*%
D18*
%TO.C,U2*%
X65243750Y362500D03*
X64293750Y362500D03*
X63343750Y362500D03*
X63343750Y2637500D03*
X64293750Y2637500D03*
X65243750Y2637500D03*
%TD*%
D16*
%TO.C,D48*%
X259556250Y-49275000D03*
X259556250Y-45975000D03*
%TD*%
D19*
%TO.C,C5*%
X41387500Y-10318750D03*
X44337500Y-10318750D03*
%TD*%
D20*
%TO.C,U1*%
X53599999Y-24512499D03*
X52799999Y-24512499D03*
X51999999Y-24512499D03*
X51199999Y-24512499D03*
X50399999Y-24512499D03*
X49599999Y-24512499D03*
X48799999Y-24512499D03*
X47999999Y-24512499D03*
D21*
X46549999Y-23062499D03*
X46549999Y-22262499D03*
X46549999Y-21462499D03*
X46549999Y-20662499D03*
X46549999Y-19862499D03*
X46549999Y-19062499D03*
X46549999Y-18262499D03*
X46549999Y-17462499D03*
D20*
X47999999Y-16012499D03*
X48799999Y-16012499D03*
X49599999Y-16012499D03*
X50399999Y-16012499D03*
X51199999Y-16012499D03*
X51999999Y-16012499D03*
X52799999Y-16012499D03*
X53599999Y-16012499D03*
D21*
X55049999Y-17462499D03*
X55049999Y-18262499D03*
X55049999Y-19062499D03*
X55049999Y-19862499D03*
X55049999Y-20662499D03*
X55049999Y-21462499D03*
X55049999Y-22262499D03*
X55049999Y-23062499D03*
%TD*%
D22*
%TO.C,Y1*%
X54560107Y-31573222D03*
X53004472Y-33128857D03*
X51802391Y-31926776D03*
X53358026Y-30371141D03*
%TD*%
D16*
%TO.C,D21*%
X195580000Y-11175000D03*
X195580000Y-7875000D03*
%TD*%
%TO.C,D30*%
X78581250Y-49275000D03*
X78581250Y-45975000D03*
%TD*%
%TO.C,D14*%
X61912500Y-11175000D03*
X61912500Y-7875000D03*
%TD*%
%TO.C,D1*%
X38100000Y7875000D03*
X38100000Y11175000D03*
%TD*%
%TO.C,D34*%
X126206250Y-49275000D03*
X126206250Y-45975000D03*
%TD*%
D23*
%TO.C,R2*%
X40450000Y-19050000D03*
X42100000Y-19050000D03*
%TD*%
D16*
%TO.C,D47*%
X261937500Y-30225000D03*
X261937500Y-26925000D03*
%TD*%
%TO.C,D22*%
X214630000Y-11175000D03*
X214630000Y-7875000D03*
%TD*%
%TO.C,D35*%
X147637500Y-30225000D03*
X147637500Y-26925000D03*
%TD*%
%TO.C,D36*%
X150018750Y-49275000D03*
X150018750Y-45975000D03*
%TD*%
D24*
%TO.C,J1*%
X81318749Y2999999D03*
X81318749Y1999999D03*
X81318749Y999999D03*
X81318749Y0D03*
D25*
X85893750Y5000000D03*
X84493750Y5000000D03*
X85193750Y4950000D03*
D26*
X85193749Y4599999D03*
D25*
X85193750Y4250000D03*
X85893750Y4200000D03*
X84493750Y4200000D03*
X85893750Y-1200000D03*
X84493750Y-1200000D03*
X85193750Y-1250000D03*
D26*
X85193749Y-1599999D03*
D25*
X85193750Y-1950000D03*
X85893750Y-2000000D03*
X84493750Y-2000000D03*
%TD*%
D27*
%TO.C,C6*%
X57150000Y-31768750D03*
X57150000Y-33318750D03*
%TD*%
D16*
%TO.C,D43*%
X223837500Y-30225000D03*
X223837500Y-26925000D03*
%TD*%
%TO.C,D13*%
X26193750Y-11175000D03*
X26193750Y-7875000D03*
%TD*%
D28*
%TO.C,R4*%
X42068750Y-6318750D03*
X42068750Y-7968750D03*
%TD*%
D29*
%TO.C,C1*%
X59550000Y-19468750D03*
X61100000Y-19468750D03*
%TD*%
D16*
%TO.C,D23*%
X233680000Y-11175000D03*
X233680000Y-7875000D03*
%TD*%
D29*
%TO.C,C3*%
X59550000Y-21431250D03*
X61100000Y-21431250D03*
%TD*%
D16*
%TO.C,D31*%
X109537500Y-30225000D03*
X109537500Y-26925000D03*
%TD*%
%TO.C,D19*%
X157480000Y-11175000D03*
X157480000Y-7875000D03*
%TD*%
%TO.C,D9*%
X190500000Y7875000D03*
X190500000Y11175000D03*
%TD*%
%TO.C,D17*%
X119380000Y-11175000D03*
X119380000Y-7875000D03*
%TD*%
%TO.C,D29*%
X90487500Y-30225000D03*
X90487500Y-26925000D03*
%TD*%
D30*
%TO.C,SW1*%
X30187499Y-19362499D03*
X36487499Y-19362499D03*
X30187499Y-15562499D03*
X36487499Y-15562499D03*
%TD*%
D16*
%TO.C,D27*%
X71437500Y-30225000D03*
X71437500Y-26925000D03*
%TD*%
%TO.C,D45*%
X242887500Y-30225000D03*
X242887500Y-26925000D03*
%TD*%
D28*
%TO.C,R1*%
X39687500Y-11875000D03*
X39687500Y-13525000D03*
%TD*%
D16*
%TO.C,D7*%
X152400000Y7875000D03*
X152400000Y11175000D03*
%TD*%
%TO.C,D11*%
X228600000Y7875000D03*
X228600000Y11175000D03*
%TD*%
%TO.C,D44*%
X221456250Y-49275000D03*
X221456250Y-45975000D03*
%TD*%
D29*
%TO.C,C4*%
X59550000Y-23018750D03*
X61100000Y-23018750D03*
%TD*%
D16*
%TO.C,D5*%
X114300000Y7875000D03*
X114300000Y11175000D03*
%TD*%
%TO.C,D3*%
X76200000Y7875000D03*
X76200000Y11175000D03*
%TD*%
%TO.C,D28*%
X54768750Y-49275000D03*
X54768750Y-45975000D03*
%TD*%
%TO.C,D32*%
X95250000Y-49275000D03*
X95250000Y-45975000D03*
%TD*%
%TO.C,D6*%
X133350000Y7875000D03*
X133350000Y11175000D03*
%TD*%
%TO.C,D20*%
X176530000Y-11175000D03*
X176530000Y-7875000D03*
%TD*%
%TO.C,D16*%
X100330000Y-11175000D03*
X100330000Y-7875000D03*
%TD*%
%TO.C,D41*%
X204787500Y-30225000D03*
X204787500Y-26925000D03*
%TD*%
%TO.C,D8*%
X171450000Y7875000D03*
X171450000Y11175000D03*
%TD*%
D27*
%TO.C,C2*%
X48418750Y-28218750D03*
X48418750Y-29768750D03*
%TD*%
%TO.C,C7*%
X49212500Y-31768750D03*
X49212500Y-33318750D03*
%TD*%
D16*
%TO.C,D38*%
X166687500Y-49275000D03*
X166687500Y-45975000D03*
%TD*%
D28*
%TO.C,R3*%
X43656250Y-6318750D03*
X43656250Y-7968750D03*
%TD*%
D16*
%TO.C,D4*%
X95250000Y7875000D03*
X95250000Y11175000D03*
%TD*%
M02*
