%TF.GenerationSoftware,KiCad,Pcbnew,(7.0.0-rc2-153-g7d6218acb4)*%
%TF.CreationDate,2023-02-26T22:54:42+05:30*%
%TF.ProjectId,40-m0110,34302d6d-3031-4313-902e-6b696361645f,rev?*%
%TF.SameCoordinates,Original*%
%TF.FileFunction,Copper,L1,Top*%
%TF.FilePolarity,Positive*%
%FSLAX46Y46*%
G04 Gerber Fmt 4.6, Leading zero omitted, Abs format (unit mm)*
G04 Created by KiCad (PCBNEW (7.0.0-rc2-153-g7d6218acb4)) date 2023-02-26 22:54:42*
%MOMM*%
%LPD*%
G01*
G04 APERTURE LIST*
%TA.AperFunction,EtchedComponent*%
%ADD10C,0.200000*%
%TD*%
%TA.AperFunction,ComponentPad*%
%ADD11C,2.250000*%
%TD*%
%TA.AperFunction,ComponentPad*%
%ADD12C,5.600000*%
%TD*%
%TA.AperFunction,ComponentPad*%
%ADD13C,0.400000*%
%TD*%
%TA.AperFunction,SMDPad,CuDef*%
%ADD14R,1.800000X1.200000*%
%TD*%
%TA.AperFunction,ViaPad*%
%ADD15C,0.800000*%
%TD*%
%TA.AperFunction,Conductor*%
%ADD16C,0.550000*%
%TD*%
%TA.AperFunction,Conductor*%
%ADD17C,0.250000*%
%TD*%
%TA.AperFunction,Conductor*%
%ADD18C,0.200000*%
%TD*%
G04 APERTURE END LIST*
%TO.C,*%
G36*
X180657500Y-50800000D02*
G01*
X178117500Y-50800000D01*
X179387500Y-49725000D01*
X180657500Y-50800000D01*
G37*
D10*
X180657500Y-50800000D02*
X178117500Y-50800000D01*
X179387500Y-49725000D01*
X180657500Y-50800000D01*
G36*
X179387534Y-46037466D02*
G01*
X182562500Y-42862500D01*
X184150000Y-42862500D01*
X184150000Y-50800000D01*
X182562500Y-50800000D01*
X182562500Y-45085000D01*
X180657500Y-46831250D01*
X180657500Y-48895000D01*
X179387500Y-47625000D01*
X178117500Y-48895000D01*
X178117500Y-46831250D01*
X176212500Y-45085000D01*
X176212500Y-50800000D01*
X174625000Y-50800000D01*
X174625000Y-42862500D01*
X176212534Y-42862466D01*
X179387534Y-46037466D01*
G37*
X179387534Y-46037466D02*
X182562500Y-42862500D01*
X184150000Y-42862500D01*
X184150000Y-50800000D01*
X182562500Y-50800000D01*
X182562500Y-45085000D01*
X180657500Y-46831250D01*
X180657500Y-48895000D01*
X179387500Y-47625000D01*
X178117500Y-48895000D01*
X178117500Y-46831250D01*
X176212500Y-45085000D01*
X176212500Y-50800000D01*
X174625000Y-50800000D01*
X174625000Y-42862500D01*
X176212534Y-42862466D01*
X179387534Y-46037466D01*
%TD*%
D11*
%TO.P,MX21,1,COL*%
%TO.N,COL8*%
X184308750Y-6985000D03*
%TO.P,MX21,2,ROW*%
%TO.N,Net-(D21-A)*%
X190658750Y-4445000D03*
%TD*%
%TO.P,MX7,1,COL*%
%TO.N,COL6*%
X141446250Y12065000D03*
%TO.P,MX7,2,ROW*%
%TO.N,Net-(D7-A)*%
X147796250Y14605000D03*
%TD*%
%TO.P,MX24,1,COL*%
%TO.N,COL11*%
X246221250Y-6985000D03*
%TO.P,MX24,2,ROW*%
%TO.N,Net-(D24-A)*%
X252571250Y-4445000D03*
%TD*%
%TO.P,MX11,1,COL*%
%TO.N,COL10*%
X217646250Y12065000D03*
%TO.P,MX11,2,ROW*%
%TO.N,Net-(D11-A)*%
X223996250Y14605000D03*
%TD*%
%TO.P,MX20,1,COL*%
%TO.N,COL7*%
X165258750Y-6985000D03*
%TO.P,MX20,2,ROW*%
%TO.N,Net-(D20-A)*%
X171608750Y-4445000D03*
%TD*%
%TO.P,MX22,1,COL*%
%TO.N,COL9*%
X203358750Y-6985000D03*
%TO.P,MX22,2,ROW*%
%TO.N,Net-(D22-A)*%
X209708750Y-4445000D03*
%TD*%
%TO.P,MX15,1,COL*%
%TO.N,COL2*%
X70008750Y-6985000D03*
%TO.P,MX15,2,ROW*%
%TO.N,Net-(D15-A)*%
X76358750Y-4445000D03*
%TD*%
%TO.P,MX23,1,COL*%
%TO.N,COL10*%
X222408750Y-6985000D03*
%TO.P,MX23,2,ROW*%
%TO.N,Net-(D23-A)*%
X228758750Y-4445000D03*
%TD*%
%TO.P,MX26,1,COL*%
%TO.N,COL0*%
X29527500Y-45085000D03*
%TO.P,MX26,2,ROW*%
%TO.N,Net-(D26-A)*%
X35877500Y-42545000D03*
%TD*%
%TO.P,MX41,1,COL*%
%TO.N,COL8*%
X193833750Y-26035000D03*
%TO.P,MX41,2,ROW*%
%TO.N,Net-(D41-A)*%
X200183750Y-23495000D03*
%TD*%
%TO.P,MX18,1,COL*%
%TO.N,COL5*%
X127158750Y-6985000D03*
%TO.P,MX18,2,ROW*%
%TO.N,Net-(D18-A)*%
X133508750Y-4445000D03*
%TD*%
%TO.P,MX25,1,COL*%
%TO.N,COL0*%
X34290000Y-26035000D03*
%TO.P,MX25,2,ROW*%
%TO.N,Net-(D25-A)*%
X40640000Y-23495000D03*
%TD*%
%TO.P,MX46,1,COL*%
%TO.N,COL10*%
X234315000Y-45085000D03*
%TO.P,MX46,2,ROW*%
%TO.N,Net-(D46-A)*%
X240665000Y-42545000D03*
%TD*%
%TO.P,MX43,1,COL*%
%TO.N,COL9*%
X212883750Y-26035000D03*
%TO.P,MX43,2,ROW*%
%TO.N,Net-(D43-A)*%
X219233750Y-23495000D03*
%TD*%
%TO.P,MX8,1,COL*%
%TO.N,COL7*%
X160496250Y12065000D03*
%TO.P,MX8,2,ROW*%
%TO.N,Net-(D8-A)*%
X166846250Y14605000D03*
%TD*%
%TO.P,MX17,1,COL*%
%TO.N,COL4*%
X108108750Y-6985000D03*
%TO.P,MX17,2,ROW*%
%TO.N,Net-(D17-A)*%
X114458750Y-4445000D03*
%TD*%
%TO.P,MX12,1,COL*%
%TO.N,COL11*%
X243840000Y12065000D03*
%TO.P,MX12,2,ROW*%
%TO.N,Net-(D12-A)*%
X250190000Y14605000D03*
%TD*%
%TO.P,MX49,1,COL*%
%TO.N,COL2*%
X67627500Y-45085000D03*
%TO.P,MX49,2,ROW*%
%TO.N,Net-(D30-A)*%
X73977500Y-42545000D03*
%TD*%
%TO.P,MX29,1,COL*%
%TO.N,COL2*%
X79533750Y-26035000D03*
%TO.P,MX29,2,ROW*%
%TO.N,Net-(D29-A)*%
X85883750Y-23495000D03*
%TD*%
%TO.P,MX9,1,COL*%
%TO.N,COL8*%
X179546250Y12065000D03*
%TO.P,MX9,2,ROW*%
%TO.N,Net-(D9-A)*%
X185896250Y14605000D03*
%TD*%
%TO.P,MX47,1,COL*%
%TO.N,COL11*%
X250983750Y-26035000D03*
%TO.P,MX47,2,ROW*%
%TO.N,Net-(D47-A)*%
X257333750Y-23495000D03*
%TD*%
%TO.P,MX35,1,COL*%
%TO.N,COL5*%
X136683750Y-26035000D03*
%TO.P,MX35,2,ROW*%
%TO.N,Net-(D35-A)*%
X143033750Y-23495000D03*
%TD*%
%TO.P,MX28,1,COL*%
%TO.N,COL1*%
X43815000Y-45085000D03*
%TO.P,MX28,2,ROW*%
%TO.N,Net-(D28-A)*%
X50165000Y-42545000D03*
%TD*%
%TO.P,MX34,1,COL*%
%TO.N,COL4*%
X115252500Y-45085000D03*
%TO.P,MX34,2,ROW*%
%TO.N,Net-(D34-A)*%
X121602500Y-42545000D03*
%TD*%
D12*
%TO.P,H2,1*%
%TO.N,N/C*%
X254793750Y22600000D03*
%TD*%
D11*
%TO.P,MX27,1,COL*%
%TO.N,COL1*%
X60483750Y-26035000D03*
%TO.P,MX27,2,ROW*%
%TO.N,Net-(D27-A)*%
X66833750Y-23495000D03*
%TD*%
D12*
%TO.P,H4,1*%
%TO.N,N/C*%
X254793750Y-60700000D03*
%TD*%
D11*
%TO.P,MX2,1,COL*%
%TO.N,COL1*%
X46196250Y12065000D03*
%TO.P,MX2,2,ROW*%
%TO.N,Net-(D2-A)*%
X52546250Y14605000D03*
%TD*%
%TO.P,MX45,1,COL*%
%TO.N,COL10*%
X231933750Y-26035000D03*
%TO.P,MX45,2,ROW*%
%TO.N,Net-(D45-A)*%
X238283750Y-23495000D03*
%TD*%
%TO.P,MX6,1,COL*%
%TO.N,COL5*%
X122396250Y12065000D03*
%TO.P,MX6,2,ROW*%
%TO.N,Net-(D6-A)*%
X128746250Y14605000D03*
%TD*%
%TO.P,MX42,1,COL*%
%TO.N,COL8*%
X186690000Y-45085000D03*
%TO.P,MX42,2,ROW*%
%TO.N,Net-(D42-A)*%
X193040000Y-42545000D03*
%TD*%
%TO.P,MX38,1,COL*%
%TO.N,COL6*%
X155733750Y-45085000D03*
%TO.P,MX38,2,ROW*%
%TO.N,Net-(D38-A)*%
X162083750Y-42545000D03*
%TD*%
%TO.P,MX14,1,COL*%
%TO.N,COL1*%
X50958750Y-6985000D03*
%TO.P,MX14,2,ROW*%
%TO.N,Net-(D14-A)*%
X57308750Y-4445000D03*
%TD*%
%TO.P,MX44,1,COL*%
%TO.N,COL9*%
X210502500Y-45085000D03*
%TO.P,MX44,2,ROW*%
%TO.N,Net-(D44-A)*%
X216852500Y-42545000D03*
%TD*%
%TO.P,MX36,1,COL*%
%TO.N,COL5*%
X139065000Y-45085000D03*
%TO.P,MX36,2,ROW*%
%TO.N,Net-(D36-A)*%
X145415000Y-42545000D03*
%TD*%
%TO.P,MX5,1,COL*%
%TO.N,COL4*%
X103346250Y12065000D03*
%TO.P,MX5,2,ROW*%
%TO.N,Net-(D5-A)*%
X109696250Y14605000D03*
%TD*%
%TO.P,MX3,1,COL*%
%TO.N,COL2*%
X65246250Y12065000D03*
%TO.P,MX3,2,ROW*%
%TO.N,Net-(D3-A)*%
X71596250Y14605000D03*
%TD*%
D12*
%TO.P,H3,1*%
%TO.N,N/C*%
X30956250Y-60700000D03*
%TD*%
D11*
%TO.P,MX13,1,COL*%
%TO.N,COL0*%
X29527500Y-6985000D03*
%TO.P,MX13,2,ROW*%
%TO.N,Net-(D13-A)*%
X35877500Y-4445000D03*
%TD*%
%TO.P,MX1,1,COL*%
%TO.N,COL0*%
X27146250Y12065000D03*
%TO.P,MX1,2,ROW*%
%TO.N,Net-(D1-A)*%
X33496250Y14605000D03*
%TD*%
%TO.P,MX31,1,COL*%
%TO.N,COL3*%
X98583750Y-26035000D03*
%TO.P,MX31,2,ROW*%
%TO.N,Net-(D31-A)*%
X104933750Y-23495000D03*
%TD*%
%TO.P,MX33,1,COL*%
%TO.N,COL4*%
X117633750Y-26035000D03*
%TO.P,MX33,2,ROW*%
%TO.N,Net-(D33-A)*%
X123983750Y-23495000D03*
%TD*%
%TO.P,MX32,1,COL*%
%TO.N,COL3*%
X84296250Y-45085000D03*
%TO.P,MX32,2,ROW*%
%TO.N,Net-(D32-A)*%
X90646250Y-42545000D03*
%TD*%
%TO.P,MX10,1,COL*%
%TO.N,COL9*%
X198596250Y12065000D03*
%TO.P,MX10,2,ROW*%
%TO.N,Net-(D10-A)*%
X204946250Y14605000D03*
%TD*%
%TO.P,MX48,1,COL*%
%TO.N,COL11*%
X248602500Y-45085000D03*
%TO.P,MX48,2,ROW*%
%TO.N,Net-(D48-A)*%
X254952500Y-42545000D03*
%TD*%
D12*
%TO.P,H1,1*%
%TO.N,N/C*%
X30956250Y22600000D03*
%TD*%
D11*
%TO.P,MX30,1,COL*%
%TO.N,COL2*%
X65246250Y-45085000D03*
%TO.P,MX30,2,ROW*%
%TO.N,Net-(D30-A)*%
X71596250Y-42545000D03*
%TD*%
%TO.P,MX37,1,COL*%
%TO.N,COL6*%
X155733750Y-26035000D03*
%TO.P,MX37,2,ROW*%
%TO.N,Net-(D37-A)*%
X162083750Y-23495000D03*
%TD*%
%TO.P,MX39,1,COL*%
%TO.N,COL7*%
X174783750Y-26035000D03*
%TO.P,MX39,2,ROW*%
%TO.N,Net-(D39-A)*%
X181133750Y-23495000D03*
%TD*%
%TO.P,MX16,1,COL*%
%TO.N,COL3*%
X89058750Y-6985000D03*
%TO.P,MX16,2,ROW*%
%TO.N,Net-(D16-A)*%
X95408750Y-4445000D03*
%TD*%
%TO.P,MX19,1,COL*%
%TO.N,COL6*%
X146208750Y-6985000D03*
%TO.P,MX19,2,ROW*%
%TO.N,Net-(D19-A)*%
X152558750Y-4445000D03*
%TD*%
%TO.P,MX4,1,COL*%
%TO.N,COL3*%
X84296250Y12065000D03*
%TO.P,MX4,2,ROW*%
%TO.N,Net-(D4-A)*%
X90646250Y14605000D03*
%TD*%
D13*
%TO.P,J1,MP*%
%TO.N,N/C*%
X85893750Y5000000D03*
X84493750Y5000000D03*
X85193750Y4950000D03*
D14*
X85193749Y4599999D03*
D13*
X85193750Y4250000D03*
X85893750Y4200000D03*
X84493750Y4200000D03*
X85893750Y-1200000D03*
X84493750Y-1200000D03*
X85193750Y-1250000D03*
D14*
X85193749Y-1599999D03*
D13*
X85193750Y-1950000D03*
X85893750Y-2000000D03*
X84493750Y-2000000D03*
%TD*%
D15*
%TO.N,GND*%
X43787000Y-17462500D03*
X50800000Y-20131749D03*
X44450000Y-11906250D03*
%TO.N,+5V*%
X41275000Y-11906250D03*
X57943750Y-21293250D03*
X48418750Y-27406250D03*
X57943750Y-24231250D03*
%TO.N,ROW2*%
X59531250Y-31750000D03*
X42862500Y-31750000D03*
%TO.N,Net-(U1-PC1{slash}~{RESET})*%
X46037500Y-15875000D03*
X49212500Y-18175500D03*
%TO.N,/D+*%
X43387500Y-11650000D03*
X49212500Y-20531250D03*
%TO.N,/D-*%
X42337500Y-11650000D03*
X49212500Y-21581250D03*
%TD*%
D16*
%TO.N,GND*%
X50027335Y-19359084D02*
X50800000Y-20131749D01*
X43787000Y-18049378D02*
X45096706Y-19359084D01*
X45096706Y-19359084D02*
X50027335Y-19359084D01*
X43787000Y-17462500D02*
X43662500Y-17338000D01*
X43662500Y-13487500D02*
X44450000Y-12700000D01*
X44450000Y-12700000D02*
X44450000Y-11906250D01*
X43787000Y-17462500D02*
X43787000Y-18049378D01*
X43662500Y-17338000D02*
X43662500Y-13487500D01*
%TO.N,+5V*%
X48418750Y-27406250D02*
X45662500Y-27406250D01*
X57943750Y-24231250D02*
X57943750Y-21293250D01*
X57943750Y-25025000D02*
X55562500Y-27406250D01*
X45662500Y-27406250D02*
X42862500Y-24606250D01*
X42862500Y-19387622D02*
X42062500Y-18587622D01*
X42862500Y-24606250D02*
X42862500Y-19387622D01*
X41275000Y-12706250D02*
X41275000Y-11906250D01*
X42062500Y-13493750D02*
X41275000Y-12706250D01*
X42062500Y-18587622D02*
X42062500Y-13493750D01*
X57943750Y-24231250D02*
X57943750Y-25025000D01*
X55562500Y-27406250D02*
X48418750Y-27406250D01*
D17*
%TO.N,ROW2*%
X42862500Y-31750000D02*
X59531250Y-31750000D01*
%TO.N,COL0*%
X30162500Y-7620000D02*
X30162500Y-21907500D01*
X27781250Y-5238750D02*
X29527500Y-6985000D01*
X34925000Y-39687500D02*
X29527500Y-45085000D01*
X34925000Y-26670000D02*
X34925000Y-39687500D01*
X27146250Y12065000D02*
X27781250Y11430000D01*
X30162500Y-21907500D02*
X34290000Y-26035000D01*
X27781250Y11430000D02*
X27781250Y-5238750D01*
X29527500Y-6985000D02*
X30162500Y-7620000D01*
X34290000Y-26035000D02*
X34925000Y-26670000D01*
%TO.N,COL1*%
X46196250Y12065000D02*
X46831250Y11430000D01*
X51593750Y-6350000D02*
X59690000Y-6350000D01*
X53975000Y-34925000D02*
X43815000Y-45085000D01*
X46831250Y-2857500D02*
X50958750Y-6985000D01*
X60483750Y-26035000D02*
X61118750Y-26670000D01*
X57943750Y-34925000D02*
X53975000Y-34925000D01*
X61118750Y-31750000D02*
X57943750Y-34925000D01*
X62230000Y-24288750D02*
X60483750Y-26035000D01*
X46831250Y11430000D02*
X46831250Y-2857500D01*
X62230000Y-8890000D02*
X62230000Y-24288750D01*
X59690000Y-6350000D02*
X62230000Y-8890000D01*
X61118750Y-26670000D02*
X61118750Y-31750000D01*
X50958750Y-6985000D02*
X51593750Y-6350000D01*
%TO.N,COL2*%
X80168750Y-30162500D02*
X67627500Y-42703750D01*
X65881250Y11430000D02*
X65881250Y-2857500D01*
X67627500Y-42703750D02*
X67627500Y-45085000D01*
X70643750Y-7620000D02*
X70643750Y-17145000D01*
X65881250Y-2857500D02*
X70008750Y-6985000D01*
X79533750Y-26035000D02*
X80168750Y-26670000D01*
X70643750Y-17145000D02*
X79533750Y-26035000D01*
X65246250Y12065000D02*
X65881250Y11430000D01*
X80168750Y-26670000D02*
X80168750Y-30162500D01*
X70008750Y-6985000D02*
X70643750Y-7620000D01*
X67627500Y-45085000D02*
X65246250Y-45085000D01*
%TO.N,COL3*%
X99218750Y-26670000D02*
X99218750Y-30956250D01*
X91281250Y-34925000D02*
X84296250Y-41910000D01*
X99218750Y-30956250D02*
X95250000Y-34925000D01*
X84931250Y-2857500D02*
X89058750Y-6985000D01*
X89693750Y-17145000D02*
X98583750Y-26035000D01*
X84931250Y11430000D02*
X84931250Y-2857500D01*
X89693750Y-7620000D02*
X89693750Y-17145000D01*
X98583750Y-26035000D02*
X99218750Y-26670000D01*
X95250000Y-34925000D02*
X91281250Y-34925000D01*
X84296250Y-41910000D02*
X84296250Y-45085000D01*
X84296250Y12065000D02*
X84931250Y11430000D01*
X89058750Y-6985000D02*
X89693750Y-7620000D01*
%TO.N,COL4*%
X103981250Y-2857500D02*
X108108750Y-6985000D01*
X118268750Y-26670000D02*
X118268750Y-42068750D01*
X118268750Y-42068750D02*
X115252500Y-45085000D01*
X103981250Y11430000D02*
X103981250Y-2857500D01*
X103346250Y12065000D02*
X103981250Y11430000D01*
X117633750Y-26035000D02*
X118268750Y-26670000D01*
X108743750Y-17145000D02*
X117633750Y-26035000D01*
X108743750Y-7620000D02*
X108743750Y-17145000D01*
X108108750Y-6985000D02*
X108743750Y-7620000D01*
%TO.N,COL5*%
X137318750Y-43338750D02*
X139065000Y-45085000D01*
X127793750Y-17145000D02*
X136683750Y-26035000D01*
X136683750Y-26035000D02*
X137318750Y-26670000D01*
X123031250Y11430000D02*
X123031250Y-2857500D01*
X123031250Y-2857500D02*
X127158750Y-6985000D01*
X122396250Y12065000D02*
X123031250Y11430000D01*
X137318750Y-26670000D02*
X137318750Y-43338750D01*
X127158750Y-6985000D02*
X127793750Y-7620000D01*
X127793750Y-7620000D02*
X127793750Y-17145000D01*
%TO.N,COL6*%
X141446250Y12065000D02*
X142081250Y11430000D01*
X146208750Y-6985000D02*
X146843750Y-7620000D01*
X146843750Y-17145000D02*
X155733750Y-26035000D01*
X142081250Y-2857500D02*
X146208750Y-6985000D01*
X142081250Y11430000D02*
X142081250Y-2857500D01*
X156368750Y-26670000D02*
X156368750Y-44450000D01*
X155733750Y-26035000D02*
X156368750Y-26670000D01*
X146843750Y-7620000D02*
X146843750Y-17145000D01*
X156368750Y-44450000D02*
X155733750Y-45085000D01*
%TO.N,COL7*%
X160496250Y12065000D02*
X161131250Y11430000D01*
X165893750Y-17145000D02*
X174783750Y-26035000D01*
X165258750Y-6985000D02*
X165893750Y-7620000D01*
X161131250Y-2857500D02*
X165258750Y-6985000D01*
X161131250Y11430000D02*
X161131250Y-2857500D01*
X165893750Y-7620000D02*
X165893750Y-17145000D01*
%TO.N,COL8*%
X194468750Y-26670000D02*
X194468750Y-32543750D01*
X179546250Y12065000D02*
X180181250Y11430000D01*
X180181250Y-2857500D02*
X184308750Y-6985000D01*
X184943750Y-7620000D02*
X184943750Y-17145000D01*
X193833750Y-26035000D02*
X194468750Y-26670000D01*
X184308750Y-6985000D02*
X184943750Y-7620000D01*
X184943750Y-17145000D02*
X193833750Y-26035000D01*
X194468750Y-32543750D02*
X186690000Y-40322500D01*
X186690000Y-40322500D02*
X186690000Y-45085000D01*
X180181250Y11430000D02*
X180181250Y-2857500D01*
%TO.N,COL9*%
X203993750Y-7620000D02*
X203993750Y-17145000D01*
X213518750Y-42068750D02*
X210502500Y-45085000D01*
X198596250Y12065000D02*
X199231250Y11430000D01*
X213518750Y-26670000D02*
X213518750Y-42068750D01*
X199231250Y11430000D02*
X199231250Y-2857500D01*
X203993750Y-17145000D02*
X212883750Y-26035000D01*
X212883750Y-26035000D02*
X213518750Y-26670000D01*
X203358750Y-6985000D02*
X203993750Y-7620000D01*
X199231250Y-2857500D02*
X203358750Y-6985000D01*
%TO.N,COL10*%
X231933750Y-26035000D02*
X232568750Y-26670000D01*
X218281250Y-2857500D02*
X222408750Y-6985000D01*
X223043750Y-7620000D02*
X223043750Y-17145000D01*
X218281250Y11430000D02*
X218281250Y-2857500D01*
X232568750Y-26670000D02*
X232568750Y-43338750D01*
X222408750Y-6985000D02*
X223043750Y-7620000D01*
X223043750Y-17145000D02*
X231933750Y-26035000D01*
X232568750Y-43338750D02*
X234315000Y-45085000D01*
X217646250Y12065000D02*
X218281250Y11430000D01*
%TO.N,COL11*%
X246856250Y-21907500D02*
X250983750Y-26035000D01*
X251618750Y-26670000D02*
X251618750Y-42068750D01*
X246856250Y-7620000D02*
X246856250Y-21907500D01*
X244475000Y-5238750D02*
X246221250Y-6985000D01*
X250983750Y-26035000D02*
X251618750Y-26670000D01*
X251618750Y-42068750D02*
X248602500Y-45085000D01*
X243840000Y12065000D02*
X244475000Y11430000D01*
X246221250Y-6985000D02*
X246856250Y-7620000D01*
X244475000Y11430000D02*
X244475000Y-5238750D01*
%TO.N,Net-(U1-PC1{slash}~{RESET})*%
X48338000Y-18175500D02*
X49212500Y-18175500D01*
X46037500Y-15875000D02*
X48338000Y-18175500D01*
D18*
%TO.N,/D+*%
X48912501Y-20831249D02*
X49212500Y-20531250D01*
X43087500Y-18163050D02*
X45755699Y-20831249D01*
X45755699Y-20831249D02*
X48912501Y-20831249D01*
X43087500Y-11950000D02*
X43087500Y-18163050D01*
X43387500Y-11650000D02*
X43087500Y-11950000D01*
%TO.N,/D-*%
X48912501Y-21281251D02*
X49212500Y-21581250D01*
X42637500Y-11950000D02*
X42637500Y-18349450D01*
X45569301Y-21281251D02*
X48912501Y-21281251D01*
X42637500Y-18349450D02*
X45569301Y-21281251D01*
X42337500Y-11650000D02*
X42637500Y-11950000D01*
%TD*%
%TA.AperFunction,Conductor*%
%TO.N,GND*%
G36*
X54237000Y-16779381D02*
G01*
X54283119Y-16825500D01*
X54300000Y-16888500D01*
X54300000Y-23636500D01*
X54283119Y-23699500D01*
X54237000Y-23745619D01*
X54174000Y-23762500D01*
X47426000Y-23762500D01*
X47363000Y-23745619D01*
X47316881Y-23699500D01*
X47300000Y-23636500D01*
X47300000Y-22015751D01*
X47316881Y-21952751D01*
X47363000Y-21906632D01*
X47426000Y-21889751D01*
X48268830Y-21889751D01*
X48316319Y-21899043D01*
X48356804Y-21925548D01*
X48376305Y-21953768D01*
X48377973Y-21952806D01*
X48473460Y-22118194D01*
X48601247Y-22260116D01*
X48755748Y-22372368D01*
X48930212Y-22450044D01*
X49117013Y-22489750D01*
X49301384Y-22489750D01*
X49307987Y-22489750D01*
X49494788Y-22450044D01*
X49669252Y-22372368D01*
X49823753Y-22260116D01*
X49951540Y-22118194D01*
X50047027Y-21952806D01*
X50106042Y-21771178D01*
X50126004Y-21581250D01*
X50106042Y-21391322D01*
X50080797Y-21313629D01*
X50049069Y-21215978D01*
X50049068Y-21215976D01*
X50047027Y-21209694D01*
X49994807Y-21119247D01*
X49977927Y-21056248D01*
X49994808Y-20993249D01*
X50047027Y-20902806D01*
X50106042Y-20721178D01*
X50126004Y-20531250D01*
X50106042Y-20341322D01*
X50047027Y-20159694D01*
X49951540Y-19994306D01*
X49823753Y-19852384D01*
X49818411Y-19848503D01*
X49818408Y-19848500D01*
X49740557Y-19791938D01*
X49669252Y-19740132D01*
X49494788Y-19662456D01*
X49488335Y-19661084D01*
X49488331Y-19661083D01*
X49314443Y-19624122D01*
X49314440Y-19624121D01*
X49307987Y-19622750D01*
X49117013Y-19622750D01*
X49110560Y-19624121D01*
X49110556Y-19624122D01*
X48936668Y-19661083D01*
X48936661Y-19661085D01*
X48930212Y-19662456D01*
X48924182Y-19665140D01*
X48924181Y-19665141D01*
X48761778Y-19737447D01*
X48761775Y-19737448D01*
X48755748Y-19740132D01*
X48750407Y-19744012D01*
X48750406Y-19744013D01*
X48606591Y-19848500D01*
X48606583Y-19848506D01*
X48601247Y-19852384D01*
X48596830Y-19857289D01*
X48596825Y-19857294D01*
X48477879Y-19989398D01*
X48473460Y-19994306D01*
X48470161Y-20000019D01*
X48470158Y-20000024D01*
X48377973Y-20159694D01*
X48376305Y-20158731D01*
X48356804Y-20186952D01*
X48316319Y-20213457D01*
X48268830Y-20222749D01*
X47426000Y-20222749D01*
X47363000Y-20205868D01*
X47316881Y-20159749D01*
X47300000Y-20096749D01*
X47300000Y-18337594D01*
X47313733Y-18280391D01*
X47351939Y-18235658D01*
X47406289Y-18213145D01*
X47464936Y-18217761D01*
X47515095Y-18248499D01*
X47834342Y-18567746D01*
X47841884Y-18576033D01*
X47846000Y-18582518D01*
X47851779Y-18587944D01*
X47851780Y-18587946D01*
X47895667Y-18629158D01*
X47898509Y-18631913D01*
X47918230Y-18651634D01*
X47921414Y-18654104D01*
X47930437Y-18661809D01*
X47962679Y-18692086D01*
X47969628Y-18695906D01*
X47980429Y-18701844D01*
X47996959Y-18712702D01*
X48006694Y-18720254D01*
X48006697Y-18720256D01*
X48012959Y-18725113D01*
X48053536Y-18742672D01*
X48064171Y-18747881D01*
X48102940Y-18769195D01*
X48122566Y-18774234D01*
X48141259Y-18780634D01*
X48159855Y-18788681D01*
X48167686Y-18789921D01*
X48167689Y-18789922D01*
X48184128Y-18792525D01*
X48203525Y-18795597D01*
X48215125Y-18797998D01*
X48257970Y-18809000D01*
X48278224Y-18809000D01*
X48297934Y-18810550D01*
X48317943Y-18813720D01*
X48361961Y-18809558D01*
X48373819Y-18809000D01*
X48504300Y-18809000D01*
X48555547Y-18819892D01*
X48591224Y-18845812D01*
X48591920Y-18845040D01*
X48596831Y-18849462D01*
X48601247Y-18854366D01*
X48755748Y-18966618D01*
X48930212Y-19044294D01*
X49117013Y-19084000D01*
X49301384Y-19084000D01*
X49307987Y-19084000D01*
X49494788Y-19044294D01*
X49669252Y-18966618D01*
X49823753Y-18854366D01*
X49951540Y-18712444D01*
X50047027Y-18547056D01*
X50106042Y-18365428D01*
X50126004Y-18175500D01*
X50106042Y-17985572D01*
X50047027Y-17803944D01*
X49951540Y-17638556D01*
X49823753Y-17496634D01*
X49818411Y-17492753D01*
X49818408Y-17492750D01*
X49740557Y-17436188D01*
X49669252Y-17384382D01*
X49494788Y-17306706D01*
X49488335Y-17305334D01*
X49488331Y-17305333D01*
X49314443Y-17268372D01*
X49314440Y-17268371D01*
X49307987Y-17267000D01*
X49117013Y-17267000D01*
X49110560Y-17268371D01*
X49110556Y-17268372D01*
X48936668Y-17305333D01*
X48936661Y-17305335D01*
X48930212Y-17306706D01*
X48924182Y-17309390D01*
X48924181Y-17309391D01*
X48761778Y-17381697D01*
X48761775Y-17381698D01*
X48755748Y-17384382D01*
X48750410Y-17388260D01*
X48750407Y-17388262D01*
X48661543Y-17452825D01*
X48607193Y-17475337D01*
X48548547Y-17470721D01*
X48498388Y-17439983D01*
X48036000Y-16977595D01*
X48005262Y-16927436D01*
X48000646Y-16868789D01*
X48023159Y-16814439D01*
X48067892Y-16776233D01*
X48125095Y-16762500D01*
X54174000Y-16762500D01*
X54237000Y-16779381D01*
G37*
%TD.AperFunction*%
%TD*%
M02*
