%TF.GenerationSoftware,KiCad,Pcbnew,(7.0.0-rc2-153-g7d6218acb4)*%
%TF.CreationDate,2023-02-26T22:54:42+05:30*%
%TF.ProjectId,40-m0110,34302d6d-3031-4313-902e-6b696361645f,rev?*%
%TF.SameCoordinates,Original*%
%TF.FileFunction,Paste,Bot*%
%TF.FilePolarity,Positive*%
%FSLAX46Y46*%
G04 Gerber Fmt 4.6, Leading zero omitted, Abs format (unit mm)*
G04 Created by KiCad (PCBNEW (7.0.0-rc2-153-g7d6218acb4)) date 2023-02-26 22:54:42*
%MOMM*%
%LPD*%
G01*
G04 APERTURE LIST*
G04 Aperture macros list*
%AMRoundRect*
0 Rectangle with rounded corners*
0 $1 Rounding radius*
0 $2 $3 $4 $5 $6 $7 $8 $9 X,Y pos of 4 corners*
0 Add a 4 corners polygon primitive as box body*
4,1,4,$2,$3,$4,$5,$6,$7,$8,$9,$2,$3,0*
0 Add four circle primitives for the rounded corners*
1,1,$1+$1,$2,$3*
1,1,$1+$1,$4,$5*
1,1,$1+$1,$6,$7*
1,1,$1+$1,$8,$9*
0 Add four rect primitives between the rounded corners*
20,1,$1+$1,$2,$3,$4,$5,0*
20,1,$1+$1,$4,$5,$6,$7,0*
20,1,$1+$1,$6,$7,$8,$9,0*
20,1,$1+$1,$8,$9,$2,$3,0*%
%AMRotRect*
0 Rectangle, with rotation*
0 The origin of the aperture is its center*
0 $1 length*
0 $2 width*
0 $3 Rotation angle, in degrees counterclockwise*
0 Add horizontal line*
21,1,$1,$2,0,0,$3*%
G04 Aperture macros list end*
%ADD10RoundRect,0.225000X0.375000X-0.225000X0.375000X0.225000X-0.375000X0.225000X-0.375000X-0.225000X0*%
%ADD11RoundRect,0.243750X0.243750X0.456250X-0.243750X0.456250X-0.243750X-0.456250X0.243750X-0.456250X0*%
%ADD12RoundRect,0.150000X0.150000X-0.450000X0.150000X0.450000X-0.150000X0.450000X-0.150000X-0.450000X0*%
%ADD13RoundRect,0.250000X-0.325000X-0.650000X0.325000X-0.650000X0.325000X0.650000X-0.325000X0.650000X0*%
%ADD14R,0.550000X1.600000*%
%ADD15R,1.600000X0.550000*%
%ADD16RotRect,1.400000X1.200000X225.000000*%
%ADD17RoundRect,0.200000X-0.200000X-0.275000X0.200000X-0.275000X0.200000X0.275000X-0.200000X0.275000X0*%
%ADD18R,1.550000X0.600000*%
%ADD19R,1.800000X1.200000*%
%ADD20RoundRect,0.225000X-0.250000X0.225000X-0.250000X-0.225000X0.250000X-0.225000X0.250000X0.225000X0*%
%ADD21RoundRect,0.200000X-0.275000X0.200000X-0.275000X-0.200000X0.275000X-0.200000X0.275000X0.200000X0*%
%ADD22RoundRect,0.225000X-0.225000X-0.250000X0.225000X-0.250000X0.225000X0.250000X-0.225000X0.250000X0*%
%ADD23R,1.700000X1.000000*%
G04 APERTURE END LIST*
D10*
%TO.C,D26*%
X40481250Y-49275000D03*
X40481250Y-45975000D03*
%TD*%
%TO.C,D46*%
X245268750Y-49275000D03*
X245268750Y-45975000D03*
%TD*%
%TO.C,D2*%
X57150000Y7875000D03*
X57150000Y11175000D03*
%TD*%
%TO.C,D12*%
X255270000Y7875000D03*
X255270000Y11175000D03*
%TD*%
%TO.C,D33*%
X128587500Y-30225000D03*
X128587500Y-26925000D03*
%TD*%
%TO.C,D25*%
X30956250Y-30225000D03*
X30956250Y-26925000D03*
%TD*%
%TO.C,D15*%
X81280000Y-11175000D03*
X81280000Y-7875000D03*
%TD*%
D11*
%TO.C,F1*%
X74756250Y3175000D03*
X72881250Y3175000D03*
%TD*%
D10*
%TO.C,D18*%
X138430000Y-11175000D03*
X138430000Y-7875000D03*
%TD*%
%TO.C,D24*%
X257810000Y-11175000D03*
X257810000Y-7875000D03*
%TD*%
%TO.C,D10*%
X209550000Y7875000D03*
X209550000Y11175000D03*
%TD*%
%TO.C,D39*%
X185737500Y-30225000D03*
X185737500Y-26925000D03*
%TD*%
%TO.C,D42*%
X197643750Y-49275000D03*
X197643750Y-45975000D03*
%TD*%
%TO.C,D37*%
X166687500Y-30225000D03*
X166687500Y-26925000D03*
%TD*%
D12*
%TO.C,U2*%
X65243750Y362500D03*
X64293750Y362500D03*
X63343750Y362500D03*
X63343750Y2637500D03*
X64293750Y2637500D03*
X65243750Y2637500D03*
%TD*%
D10*
%TO.C,D48*%
X259556250Y-49275000D03*
X259556250Y-45975000D03*
%TD*%
D13*
%TO.C,C5*%
X41387500Y-10318750D03*
X44337500Y-10318750D03*
%TD*%
D14*
%TO.C,U1*%
X53599999Y-24512499D03*
X52799999Y-24512499D03*
X51999999Y-24512499D03*
X51199999Y-24512499D03*
X50399999Y-24512499D03*
X49599999Y-24512499D03*
X48799999Y-24512499D03*
X47999999Y-24512499D03*
D15*
X46549999Y-23062499D03*
X46549999Y-22262499D03*
X46549999Y-21462499D03*
X46549999Y-20662499D03*
X46549999Y-19862499D03*
X46549999Y-19062499D03*
X46549999Y-18262499D03*
X46549999Y-17462499D03*
D14*
X47999999Y-16012499D03*
X48799999Y-16012499D03*
X49599999Y-16012499D03*
X50399999Y-16012499D03*
X51199999Y-16012499D03*
X51999999Y-16012499D03*
X52799999Y-16012499D03*
X53599999Y-16012499D03*
D15*
X55049999Y-17462499D03*
X55049999Y-18262499D03*
X55049999Y-19062499D03*
X55049999Y-19862499D03*
X55049999Y-20662499D03*
X55049999Y-21462499D03*
X55049999Y-22262499D03*
X55049999Y-23062499D03*
%TD*%
D16*
%TO.C,Y1*%
X54560107Y-31573222D03*
X53004472Y-33128857D03*
X51802391Y-31926776D03*
X53358026Y-30371141D03*
%TD*%
D10*
%TO.C,D21*%
X195580000Y-11175000D03*
X195580000Y-7875000D03*
%TD*%
%TO.C,D30*%
X78581250Y-49275000D03*
X78581250Y-45975000D03*
%TD*%
%TO.C,D14*%
X61912500Y-11175000D03*
X61912500Y-7875000D03*
%TD*%
%TO.C,D1*%
X38100000Y7875000D03*
X38100000Y11175000D03*
%TD*%
%TO.C,D34*%
X126206250Y-49275000D03*
X126206250Y-45975000D03*
%TD*%
D17*
%TO.C,R2*%
X40450000Y-19050000D03*
X42100000Y-19050000D03*
%TD*%
D10*
%TO.C,D47*%
X261937500Y-30225000D03*
X261937500Y-26925000D03*
%TD*%
%TO.C,D22*%
X214630000Y-11175000D03*
X214630000Y-7875000D03*
%TD*%
%TO.C,D35*%
X147637500Y-30225000D03*
X147637500Y-26925000D03*
%TD*%
%TO.C,D36*%
X150018750Y-49275000D03*
X150018750Y-45975000D03*
%TD*%
D18*
%TO.C,J1*%
X81318749Y2999999D03*
X81318749Y1999999D03*
X81318749Y999999D03*
X81318749Y0D03*
D19*
X85193749Y4599999D03*
X85193749Y-1599999D03*
%TD*%
D20*
%TO.C,C6*%
X57150000Y-31768750D03*
X57150000Y-33318750D03*
%TD*%
D10*
%TO.C,D43*%
X223837500Y-30225000D03*
X223837500Y-26925000D03*
%TD*%
%TO.C,D13*%
X26193750Y-11175000D03*
X26193750Y-7875000D03*
%TD*%
D21*
%TO.C,R4*%
X42068750Y-6318750D03*
X42068750Y-7968750D03*
%TD*%
D22*
%TO.C,C1*%
X59550000Y-19468750D03*
X61100000Y-19468750D03*
%TD*%
D10*
%TO.C,D23*%
X233680000Y-11175000D03*
X233680000Y-7875000D03*
%TD*%
D22*
%TO.C,C3*%
X59550000Y-21431250D03*
X61100000Y-21431250D03*
%TD*%
D10*
%TO.C,D31*%
X109537500Y-30225000D03*
X109537500Y-26925000D03*
%TD*%
%TO.C,D19*%
X157480000Y-11175000D03*
X157480000Y-7875000D03*
%TD*%
%TO.C,D9*%
X190500000Y7875000D03*
X190500000Y11175000D03*
%TD*%
%TO.C,D17*%
X119380000Y-11175000D03*
X119380000Y-7875000D03*
%TD*%
%TO.C,D29*%
X90487500Y-30225000D03*
X90487500Y-26925000D03*
%TD*%
D23*
%TO.C,SW1*%
X30187499Y-19362499D03*
X36487499Y-19362499D03*
X30187499Y-15562499D03*
X36487499Y-15562499D03*
%TD*%
D10*
%TO.C,D27*%
X71437500Y-30225000D03*
X71437500Y-26925000D03*
%TD*%
%TO.C,D45*%
X242887500Y-30225000D03*
X242887500Y-26925000D03*
%TD*%
D21*
%TO.C,R1*%
X39687500Y-11875000D03*
X39687500Y-13525000D03*
%TD*%
D10*
%TO.C,D7*%
X152400000Y7875000D03*
X152400000Y11175000D03*
%TD*%
%TO.C,D11*%
X228600000Y7875000D03*
X228600000Y11175000D03*
%TD*%
%TO.C,D44*%
X221456250Y-49275000D03*
X221456250Y-45975000D03*
%TD*%
D22*
%TO.C,C4*%
X59550000Y-23018750D03*
X61100000Y-23018750D03*
%TD*%
D10*
%TO.C,D5*%
X114300000Y7875000D03*
X114300000Y11175000D03*
%TD*%
%TO.C,D3*%
X76200000Y7875000D03*
X76200000Y11175000D03*
%TD*%
%TO.C,D28*%
X54768750Y-49275000D03*
X54768750Y-45975000D03*
%TD*%
%TO.C,D32*%
X95250000Y-49275000D03*
X95250000Y-45975000D03*
%TD*%
%TO.C,D6*%
X133350000Y7875000D03*
X133350000Y11175000D03*
%TD*%
%TO.C,D20*%
X176530000Y-11175000D03*
X176530000Y-7875000D03*
%TD*%
%TO.C,D16*%
X100330000Y-11175000D03*
X100330000Y-7875000D03*
%TD*%
%TO.C,D41*%
X204787500Y-30225000D03*
X204787500Y-26925000D03*
%TD*%
%TO.C,D8*%
X171450000Y7875000D03*
X171450000Y11175000D03*
%TD*%
D20*
%TO.C,C2*%
X48418750Y-28218750D03*
X48418750Y-29768750D03*
%TD*%
%TO.C,C7*%
X49212500Y-31768750D03*
X49212500Y-33318750D03*
%TD*%
D10*
%TO.C,D38*%
X166687500Y-49275000D03*
X166687500Y-45975000D03*
%TD*%
D21*
%TO.C,R3*%
X43656250Y-6318750D03*
X43656250Y-7968750D03*
%TD*%
D10*
%TO.C,D4*%
X95250000Y7875000D03*
X95250000Y11175000D03*
%TD*%
M02*
