M48
; DRILL file {KiCad (7.0.0-rc2-153-g7d6218acb4)} date Sun Feb 26 22:54:42 2023
; FORMAT={-:-/ absolute / inch / decimal}
; #@! TF.CreationDate,2023-02-26T22:54:42+05:30
; #@! TF.GenerationSoftware,Kicad,Pcbnew,(7.0.0-rc2-153-g7d6218acb4)
; #@! TF.FileFunction,NonPlated,1,2,NPTH
FMAT,2
INCH
; #@! TA.AperFunction,NonPlated,NPTH,ComponentDrill
T1C0.0689
; #@! TA.AperFunction,NonPlated,NPTH,ComponentDrill
T2C0.1200
; #@! TA.AperFunction,NonPlated,NPTH,ComponentDrill
T3C0.1570
%
G90
G05
T1
X1.0188Y0.375
X1.1125Y-0.375
X1.1125Y-1.875
X1.3Y-1.125
X1.4187Y0.375
X1.5125Y-0.375
X1.5125Y-1.875
X1.675Y-1.875
X1.7Y-1.125
X1.7688Y0.375
X1.9563Y-0.375
X2.075Y-1.875
X2.1687Y0.375
X2.3312Y-1.125
X2.3562Y-0.375
X2.5187Y0.375
X2.5187Y-1.875
X2.6125Y-1.875
X2.7062Y-0.375
X2.7312Y-1.125
X2.9187Y0.375
X2.9187Y-1.875
X3.0125Y-1.875
X3.0812Y-1.125
X3.1062Y-0.375
X3.2687Y0.375
X3.2687Y-1.875
X3.4562Y-0.375
X3.4812Y-1.125
X3.6687Y0.375
X3.6687Y-1.875
X3.8312Y-1.125
X3.8562Y-0.375
X4.0187Y0.375
X4.2062Y-0.375
X4.2313Y-1.125
X4.4188Y0.375
X4.4875Y-1.875
X4.5812Y-1.125
X4.6063Y-0.375
X4.7687Y0.375
X4.8875Y-1.875
X4.9562Y-0.375
X4.9813Y-1.125
X5.1688Y0.375
X5.3312Y-1.125
X5.3563Y-0.375
X5.425Y-1.875
X5.5187Y0.375
X5.7062Y-0.375
X5.7313Y-1.125
X5.825Y-1.875
X5.9188Y0.375
X6.0812Y-1.125
X6.0812Y-1.875
X6.1063Y-0.375
X6.2687Y0.375
X6.4562Y-0.375
X6.4813Y-1.125
X6.4813Y-1.875
X6.6688Y0.375
X6.8312Y-1.125
X6.8563Y-0.375
X7.0187Y0.375
X7.2062Y-0.375
X7.2313Y-1.125
X7.3Y-1.875
X7.4188Y0.375
X7.5812Y-1.125
X7.6063Y-0.375
X7.7Y-1.875
X7.7687Y0.375
X7.9562Y-0.375
X7.9813Y-1.125
X8.1687Y0.375
X8.2375Y-1.875
X8.3312Y-1.125
X8.3562Y-0.375
X8.5187Y0.375
X8.6375Y-1.875
X8.7062Y-0.375
X8.7312Y-1.125
X8.9187Y0.375
X9.0812Y-1.125
X9.1062Y-0.375
X9.175Y-1.875
X9.4812Y-1.125
X9.55Y0.375
X9.575Y-1.875
X9.6437Y-0.375
X9.7375Y-1.875
X9.8312Y-1.125
X9.95Y0.375
X10.0437Y-0.375
X10.1375Y-1.875
X10.2312Y-1.125
T2
X3.6565Y-2.15
X4.2188Y-2.15
X5.1562Y-2.15
X5.8125Y-2.15
X6.75Y-2.15
X7.5935Y-2.15
T3
X1.2188Y0.375
X1.3125Y-0.375
X1.3125Y-1.875
X1.5Y-1.125
X1.875Y-1.875
X1.9688Y0.375
X2.1562Y-0.375
X2.5312Y-1.125
X2.7188Y0.375
X2.7188Y-1.875
X2.8125Y-1.875
X2.9062Y-0.375
X3.2812Y-1.125
X3.4688Y0.375
X3.4688Y-1.875
X3.6562Y-0.375
X3.6565Y-1.55
X4.0312Y-1.125
X4.2188Y0.375
X4.2188Y-1.55
X4.4062Y-0.375
X4.6875Y-1.875
X4.7812Y-1.125
X4.9688Y0.375
X5.1562Y-0.375
X5.1562Y-1.55
X5.5312Y-1.125
X5.625Y-1.875
X5.7188Y0.375
X5.8125Y-1.55
X5.9062Y-0.375
X6.2812Y-1.125
X6.2812Y-1.875
X6.4688Y0.375
X6.6562Y-0.375
X6.75Y-1.55
X7.0312Y-1.125
X7.2188Y0.375
X7.4062Y-0.375
X7.5Y-1.875
X7.5935Y-1.55
X7.7812Y-1.125
X7.9688Y0.375
X8.1562Y-0.375
X8.4375Y-1.875
X8.5312Y-1.125
X8.7188Y0.375
X8.9062Y-0.375
X9.2812Y-1.125
X9.375Y-1.875
X9.75Y0.375
X9.8438Y-0.375
X9.9375Y-1.875
X10.0312Y-1.125
T0
M30
