M48
; DRILL file {KiCad (7.0.0-rc2-153-g7d6218acb4)} date Sun Feb 26 22:54:42 2023
; FORMAT={-:-/ absolute / inch / decimal}
; #@! TF.CreationDate,2023-02-26T22:54:42+05:30
; #@! TF.GenerationSoftware,Kicad,Pcbnew,(7.0.0-rc2-153-g7d6218acb4)
; #@! TF.FileFunction,Plated,1,2,PTH
FMAT,2
INCH
; #@! TA.AperFunction,Plated,PTH,ComponentDrill
T1C0.0118
; #@! TA.AperFunction,Plated,PTH,ViaDrill
T2C0.0157
; #@! TA.AperFunction,Plated,PTH,ComponentDrill
T3C0.0579
; #@! TA.AperFunction,Plated,PTH,ComponentDrill
T4C0.1260
%
G90
G05
T1
X3.3265Y0.1969
X3.3265Y0.1654
X3.3265Y-0.0472
X3.3265Y-0.0787
X3.3541Y0.1949
X3.3541Y0.1673
X3.3541Y-0.0492
X3.3541Y-0.0768
X3.3816Y0.1969
X3.3816Y0.1654
X3.3816Y-0.0472
X3.3816Y-0.0787
T2
X1.625Y-0.4688
X1.6668Y-0.4587
X1.6875Y-1.25
X1.7082Y-0.4587
X1.7239Y-0.6875
X1.75Y-0.4688
X1.8125Y-0.625
X1.9062Y-1.079
X1.9375Y-0.7156
X1.9375Y-0.8083
X1.9375Y-0.8497
X2.0Y-0.7926
X2.2812Y-0.8383
X2.2812Y-0.954
X2.3438Y-1.25
T3
X1.0687Y0.475
X1.1625Y-0.275
X1.1625Y-1.775
X1.3187Y0.575
X1.35Y-1.025
X1.4125Y-0.175
X1.4125Y-1.675
X1.6Y-0.925
X1.725Y-1.775
X1.8187Y0.475
X1.975Y-1.675
X2.0063Y-0.275
X2.0688Y0.575
X2.2563Y-0.175
X2.3813Y-1.025
X2.5688Y0.475
X2.5688Y-1.775
X2.6313Y-0.925
X2.6625Y-1.775
X2.7563Y-0.275
X2.8188Y0.575
X2.8188Y-1.675
X2.9125Y-1.675
X3.0063Y-0.175
X3.1313Y-1.025
X3.3188Y0.475
X3.3188Y-1.775
X3.3813Y-0.925
X3.5063Y-0.275
X3.5688Y0.575
X3.5688Y-1.675
X3.7563Y-0.175
X3.8813Y-1.025
X4.0687Y0.475
X4.1312Y-0.925
X4.2562Y-0.275
X4.3187Y0.575
X4.5062Y-0.175
X4.5375Y-1.775
X4.6312Y-1.025
X4.7875Y-1.675
X4.8187Y0.475
X4.8812Y-0.925
X5.0062Y-0.275
X5.0687Y0.575
X5.2562Y-0.175
X5.3812Y-1.025
X5.475Y-1.775
X5.5687Y0.475
X5.6312Y-0.925
X5.725Y-1.675
X5.7562Y-0.275
X5.8187Y0.575
X6.0062Y-0.175
X6.1312Y-1.025
X6.1312Y-1.775
X6.3187Y0.475
X6.3812Y-0.925
X6.3812Y-1.675
X6.5062Y-0.275
X6.5687Y0.575
X6.7562Y-0.175
X6.8812Y-1.025
X7.0687Y0.475
X7.1312Y-0.925
X7.2562Y-0.275
X7.3187Y0.575
X7.35Y-1.775
X7.5062Y-0.175
X7.6Y-1.675
X7.6312Y-1.025
X7.8187Y0.475
X7.8812Y-0.925
X8.0062Y-0.275
X8.0687Y0.575
X8.2562Y-0.175
X8.2875Y-1.775
X8.3812Y-1.025
X8.5375Y-1.675
X8.5687Y0.475
X8.6312Y-0.925
X8.7562Y-0.275
X8.8187Y0.575
X9.0062Y-0.175
X9.1312Y-1.025
X9.225Y-1.775
X9.3812Y-0.925
X9.475Y-1.675
X9.6Y0.475
X9.6937Y-0.275
X9.7875Y-1.775
X9.85Y0.575
X9.8812Y-1.025
X9.9437Y-0.175
X10.0375Y-1.675
X10.1312Y-0.925
T4
X1.2188Y0.8898
X1.2188Y-2.3898
X10.0312Y0.8898
X10.0312Y-2.3898
T0
M30
