%TF.GenerationSoftware,KiCad,Pcbnew,(7.0.0-rc2-153-g7d6218acb4)*%
%TF.CreationDate,2023-02-26T22:54:42+05:30*%
%TF.ProjectId,40-m0110,34302d6d-3031-4313-902e-6b696361645f,rev?*%
%TF.SameCoordinates,Original*%
%TF.FileFunction,Legend,Bot*%
%TF.FilePolarity,Positive*%
%FSLAX46Y46*%
G04 Gerber Fmt 4.6, Leading zero omitted, Abs format (unit mm)*
G04 Created by KiCad (PCBNEW (7.0.0-rc2-153-g7d6218acb4)) date 2023-02-26 22:54:42*
%MOMM*%
%LPD*%
G01*
G04 APERTURE LIST*
G04 Aperture macros list*
%AMRoundRect*
0 Rectangle with rounded corners*
0 $1 Rounding radius*
0 $2 $3 $4 $5 $6 $7 $8 $9 X,Y pos of 4 corners*
0 Add a 4 corners polygon primitive as box body*
4,1,4,$2,$3,$4,$5,$6,$7,$8,$9,$2,$3,0*
0 Add four circle primitives for the rounded corners*
1,1,$1+$1,$2,$3*
1,1,$1+$1,$4,$5*
1,1,$1+$1,$6,$7*
1,1,$1+$1,$8,$9*
0 Add four rect primitives between the rounded corners*
20,1,$1+$1,$2,$3,$4,$5,0*
20,1,$1+$1,$4,$5,$6,$7,0*
20,1,$1+$1,$6,$7,$8,$9,0*
20,1,$1+$1,$8,$9,$2,$3,0*%
%AMRotRect*
0 Rectangle, with rotation*
0 The origin of the aperture is its center*
0 $1 length*
0 $2 width*
0 $3 Rotation angle, in degrees counterclockwise*
0 Add horizontal line*
21,1,$1,$2,0,0,$3*%
G04 Aperture macros list end*
%ADD10C,0.150000*%
%ADD11C,0.200000*%
%ADD12C,0.120000*%
%ADD13C,1.750000*%
%ADD14C,3.987800*%
%ADD15C,2.250000*%
%ADD16C,3.048000*%
%ADD17C,5.600000*%
%ADD18RoundRect,0.225000X0.375000X-0.225000X0.375000X0.225000X-0.375000X0.225000X-0.375000X-0.225000X0*%
%ADD19RoundRect,0.243750X0.243750X0.456250X-0.243750X0.456250X-0.243750X-0.456250X0.243750X-0.456250X0*%
%ADD20RoundRect,0.150000X0.150000X-0.450000X0.150000X0.450000X-0.150000X0.450000X-0.150000X-0.450000X0*%
%ADD21RoundRect,0.250000X-0.325000X-0.650000X0.325000X-0.650000X0.325000X0.650000X-0.325000X0.650000X0*%
%ADD22R,0.550000X1.600000*%
%ADD23R,1.600000X0.550000*%
%ADD24RotRect,1.400000X1.200000X225.000000*%
%ADD25RoundRect,0.200000X-0.200000X-0.275000X0.200000X-0.275000X0.200000X0.275000X-0.200000X0.275000X0*%
%ADD26R,1.550000X0.600000*%
%ADD27C,0.400000*%
%ADD28R,1.800000X1.200000*%
%ADD29RoundRect,0.225000X-0.250000X0.225000X-0.250000X-0.225000X0.250000X-0.225000X0.250000X0.225000X0*%
%ADD30RoundRect,0.200000X-0.275000X0.200000X-0.275000X-0.200000X0.275000X-0.200000X0.275000X0.200000X0*%
%ADD31RoundRect,0.225000X-0.225000X-0.250000X0.225000X-0.250000X0.225000X0.250000X-0.225000X0.250000X0*%
%ADD32R,1.700000X1.000000*%
G04 APERTURE END LIST*
D10*
X260619940Y-53551130D02*
X260619940Y-54265416D01*
X260619940Y-54265416D02*
X260667559Y-54408273D01*
X260667559Y-54408273D02*
X260762797Y-54503511D01*
X260762797Y-54503511D02*
X260905654Y-54551130D01*
X260905654Y-54551130D02*
X261000892Y-54551130D01*
X259667559Y-54551130D02*
X260143749Y-54551130D01*
X260143749Y-54551130D02*
X260143749Y-53551130D01*
X258762797Y-54455892D02*
X258810416Y-54503511D01*
X258810416Y-54503511D02*
X258953273Y-54551130D01*
X258953273Y-54551130D02*
X259048511Y-54551130D01*
X259048511Y-54551130D02*
X259191368Y-54503511D01*
X259191368Y-54503511D02*
X259286606Y-54408273D01*
X259286606Y-54408273D02*
X259334225Y-54313035D01*
X259334225Y-54313035D02*
X259381844Y-54122559D01*
X259381844Y-54122559D02*
X259381844Y-53979702D01*
X259381844Y-53979702D02*
X259334225Y-53789226D01*
X259334225Y-53789226D02*
X259286606Y-53693988D01*
X259286606Y-53693988D02*
X259191368Y-53598750D01*
X259191368Y-53598750D02*
X259048511Y-53551130D01*
X259048511Y-53551130D02*
X258953273Y-53551130D01*
X258953273Y-53551130D02*
X258810416Y-53598750D01*
X258810416Y-53598750D02*
X258762797Y-53646369D01*
X258048511Y-53551130D02*
X258048511Y-54265416D01*
X258048511Y-54265416D02*
X258096130Y-54408273D01*
X258096130Y-54408273D02*
X258191368Y-54503511D01*
X258191368Y-54503511D02*
X258334225Y-54551130D01*
X258334225Y-54551130D02*
X258429463Y-54551130D01*
X257096130Y-54551130D02*
X257572320Y-54551130D01*
X257572320Y-54551130D02*
X257572320Y-53551130D01*
X256191368Y-54455892D02*
X256238987Y-54503511D01*
X256238987Y-54503511D02*
X256381844Y-54551130D01*
X256381844Y-54551130D02*
X256477082Y-54551130D01*
X256477082Y-54551130D02*
X256619939Y-54503511D01*
X256619939Y-54503511D02*
X256715177Y-54408273D01*
X256715177Y-54408273D02*
X256762796Y-54313035D01*
X256762796Y-54313035D02*
X256810415Y-54122559D01*
X256810415Y-54122559D02*
X256810415Y-53979702D01*
X256810415Y-53979702D02*
X256762796Y-53789226D01*
X256762796Y-53789226D02*
X256715177Y-53693988D01*
X256715177Y-53693988D02*
X256619939Y-53598750D01*
X256619939Y-53598750D02*
X256477082Y-53551130D01*
X256477082Y-53551130D02*
X256381844Y-53551130D01*
X256381844Y-53551130D02*
X256238987Y-53598750D01*
X256238987Y-53598750D02*
X256191368Y-53646369D01*
X255477082Y-53551130D02*
X255477082Y-54265416D01*
X255477082Y-54265416D02*
X255524701Y-54408273D01*
X255524701Y-54408273D02*
X255619939Y-54503511D01*
X255619939Y-54503511D02*
X255762796Y-54551130D01*
X255762796Y-54551130D02*
X255858034Y-54551130D01*
X254524701Y-54551130D02*
X255000891Y-54551130D01*
X255000891Y-54551130D02*
X255000891Y-53551130D01*
X253619939Y-54455892D02*
X253667558Y-54503511D01*
X253667558Y-54503511D02*
X253810415Y-54551130D01*
X253810415Y-54551130D02*
X253905653Y-54551130D01*
X253905653Y-54551130D02*
X254048510Y-54503511D01*
X254048510Y-54503511D02*
X254143748Y-54408273D01*
X254143748Y-54408273D02*
X254191367Y-54313035D01*
X254191367Y-54313035D02*
X254238986Y-54122559D01*
X254238986Y-54122559D02*
X254238986Y-53979702D01*
X254238986Y-53979702D02*
X254191367Y-53789226D01*
X254191367Y-53789226D02*
X254143748Y-53693988D01*
X254143748Y-53693988D02*
X254048510Y-53598750D01*
X254048510Y-53598750D02*
X253905653Y-53551130D01*
X253905653Y-53551130D02*
X253810415Y-53551130D01*
X253810415Y-53551130D02*
X253667558Y-53598750D01*
X253667558Y-53598750D02*
X253619939Y-53646369D01*
X252905653Y-53551130D02*
X252905653Y-54265416D01*
X252905653Y-54265416D02*
X252953272Y-54408273D01*
X252953272Y-54408273D02*
X253048510Y-54503511D01*
X253048510Y-54503511D02*
X253191367Y-54551130D01*
X253191367Y-54551130D02*
X253286605Y-54551130D01*
X251953272Y-54551130D02*
X252429462Y-54551130D01*
X252429462Y-54551130D02*
X252429462Y-53551130D01*
X251048510Y-54455892D02*
X251096129Y-54503511D01*
X251096129Y-54503511D02*
X251238986Y-54551130D01*
X251238986Y-54551130D02*
X251334224Y-54551130D01*
X251334224Y-54551130D02*
X251477081Y-54503511D01*
X251477081Y-54503511D02*
X251572319Y-54408273D01*
X251572319Y-54408273D02*
X251619938Y-54313035D01*
X251619938Y-54313035D02*
X251667557Y-54122559D01*
X251667557Y-54122559D02*
X251667557Y-53979702D01*
X251667557Y-53979702D02*
X251619938Y-53789226D01*
X251619938Y-53789226D02*
X251572319Y-53693988D01*
X251572319Y-53693988D02*
X251477081Y-53598750D01*
X251477081Y-53598750D02*
X251334224Y-53551130D01*
X251334224Y-53551130D02*
X251238986Y-53551130D01*
X251238986Y-53551130D02*
X251096129Y-53598750D01*
X251096129Y-53598750D02*
X251048510Y-53646369D01*
%TO.C,D26*%
X40848630Y-50379464D02*
X39848630Y-50379464D01*
X39848630Y-50379464D02*
X39848630Y-50617559D01*
X39848630Y-50617559D02*
X39896250Y-50760416D01*
X39896250Y-50760416D02*
X39991488Y-50855654D01*
X39991488Y-50855654D02*
X40086726Y-50903273D01*
X40086726Y-50903273D02*
X40277202Y-50950892D01*
X40277202Y-50950892D02*
X40420059Y-50950892D01*
X40420059Y-50950892D02*
X40610535Y-50903273D01*
X40610535Y-50903273D02*
X40705773Y-50855654D01*
X40705773Y-50855654D02*
X40801011Y-50760416D01*
X40801011Y-50760416D02*
X40848630Y-50617559D01*
X40848630Y-50617559D02*
X40848630Y-50379464D01*
X39943869Y-51331845D02*
X39896250Y-51379464D01*
X39896250Y-51379464D02*
X39848630Y-51474702D01*
X39848630Y-51474702D02*
X39848630Y-51712797D01*
X39848630Y-51712797D02*
X39896250Y-51808035D01*
X39896250Y-51808035D02*
X39943869Y-51855654D01*
X39943869Y-51855654D02*
X40039107Y-51903273D01*
X40039107Y-51903273D02*
X40134345Y-51903273D01*
X40134345Y-51903273D02*
X40277202Y-51855654D01*
X40277202Y-51855654D02*
X40848630Y-51284226D01*
X40848630Y-51284226D02*
X40848630Y-51903273D01*
X39848630Y-52760416D02*
X39848630Y-52569940D01*
X39848630Y-52569940D02*
X39896250Y-52474702D01*
X39896250Y-52474702D02*
X39943869Y-52427083D01*
X39943869Y-52427083D02*
X40086726Y-52331845D01*
X40086726Y-52331845D02*
X40277202Y-52284226D01*
X40277202Y-52284226D02*
X40658154Y-52284226D01*
X40658154Y-52284226D02*
X40753392Y-52331845D01*
X40753392Y-52331845D02*
X40801011Y-52379464D01*
X40801011Y-52379464D02*
X40848630Y-52474702D01*
X40848630Y-52474702D02*
X40848630Y-52665178D01*
X40848630Y-52665178D02*
X40801011Y-52760416D01*
X40801011Y-52760416D02*
X40753392Y-52808035D01*
X40753392Y-52808035D02*
X40658154Y-52855654D01*
X40658154Y-52855654D02*
X40420059Y-52855654D01*
X40420059Y-52855654D02*
X40324821Y-52808035D01*
X40324821Y-52808035D02*
X40277202Y-52760416D01*
X40277202Y-52760416D02*
X40229583Y-52665178D01*
X40229583Y-52665178D02*
X40229583Y-52474702D01*
X40229583Y-52474702D02*
X40277202Y-52379464D01*
X40277202Y-52379464D02*
X40324821Y-52331845D01*
X40324821Y-52331845D02*
X40420059Y-52284226D01*
%TO.C,D46*%
X245636130Y-50379464D02*
X244636130Y-50379464D01*
X244636130Y-50379464D02*
X244636130Y-50617559D01*
X244636130Y-50617559D02*
X244683750Y-50760416D01*
X244683750Y-50760416D02*
X244778988Y-50855654D01*
X244778988Y-50855654D02*
X244874226Y-50903273D01*
X244874226Y-50903273D02*
X245064702Y-50950892D01*
X245064702Y-50950892D02*
X245207559Y-50950892D01*
X245207559Y-50950892D02*
X245398035Y-50903273D01*
X245398035Y-50903273D02*
X245493273Y-50855654D01*
X245493273Y-50855654D02*
X245588511Y-50760416D01*
X245588511Y-50760416D02*
X245636130Y-50617559D01*
X245636130Y-50617559D02*
X245636130Y-50379464D01*
X244969464Y-51808035D02*
X245636130Y-51808035D01*
X244588511Y-51569940D02*
X245302797Y-51331845D01*
X245302797Y-51331845D02*
X245302797Y-51950892D01*
X244636130Y-52760416D02*
X244636130Y-52569940D01*
X244636130Y-52569940D02*
X244683750Y-52474702D01*
X244683750Y-52474702D02*
X244731369Y-52427083D01*
X244731369Y-52427083D02*
X244874226Y-52331845D01*
X244874226Y-52331845D02*
X245064702Y-52284226D01*
X245064702Y-52284226D02*
X245445654Y-52284226D01*
X245445654Y-52284226D02*
X245540892Y-52331845D01*
X245540892Y-52331845D02*
X245588511Y-52379464D01*
X245588511Y-52379464D02*
X245636130Y-52474702D01*
X245636130Y-52474702D02*
X245636130Y-52665178D01*
X245636130Y-52665178D02*
X245588511Y-52760416D01*
X245588511Y-52760416D02*
X245540892Y-52808035D01*
X245540892Y-52808035D02*
X245445654Y-52855654D01*
X245445654Y-52855654D02*
X245207559Y-52855654D01*
X245207559Y-52855654D02*
X245112321Y-52808035D01*
X245112321Y-52808035D02*
X245064702Y-52760416D01*
X245064702Y-52760416D02*
X245017083Y-52665178D01*
X245017083Y-52665178D02*
X245017083Y-52474702D01*
X245017083Y-52474702D02*
X245064702Y-52379464D01*
X245064702Y-52379464D02*
X245112321Y-52331845D01*
X245112321Y-52331845D02*
X245207559Y-52284226D01*
%TO.C,D2*%
X59517380Y10263094D02*
X58517380Y10263094D01*
X58517380Y10263094D02*
X58517380Y10024999D01*
X58517380Y10024999D02*
X58565000Y9882142D01*
X58565000Y9882142D02*
X58660238Y9786904D01*
X58660238Y9786904D02*
X58755476Y9739285D01*
X58755476Y9739285D02*
X58945952Y9691666D01*
X58945952Y9691666D02*
X59088809Y9691666D01*
X59088809Y9691666D02*
X59279285Y9739285D01*
X59279285Y9739285D02*
X59374523Y9786904D01*
X59374523Y9786904D02*
X59469761Y9882142D01*
X59469761Y9882142D02*
X59517380Y10024999D01*
X59517380Y10024999D02*
X59517380Y10263094D01*
X58612619Y9310713D02*
X58565000Y9263094D01*
X58565000Y9263094D02*
X58517380Y9167856D01*
X58517380Y9167856D02*
X58517380Y8929761D01*
X58517380Y8929761D02*
X58565000Y8834523D01*
X58565000Y8834523D02*
X58612619Y8786904D01*
X58612619Y8786904D02*
X58707857Y8739285D01*
X58707857Y8739285D02*
X58803095Y8739285D01*
X58803095Y8739285D02*
X58945952Y8786904D01*
X58945952Y8786904D02*
X59517380Y9358332D01*
X59517380Y9358332D02*
X59517380Y8739285D01*
%TO.C,D12*%
X257637380Y10739285D02*
X256637380Y10739285D01*
X256637380Y10739285D02*
X256637380Y10501190D01*
X256637380Y10501190D02*
X256685000Y10358333D01*
X256685000Y10358333D02*
X256780238Y10263095D01*
X256780238Y10263095D02*
X256875476Y10215476D01*
X256875476Y10215476D02*
X257065952Y10167857D01*
X257065952Y10167857D02*
X257208809Y10167857D01*
X257208809Y10167857D02*
X257399285Y10215476D01*
X257399285Y10215476D02*
X257494523Y10263095D01*
X257494523Y10263095D02*
X257589761Y10358333D01*
X257589761Y10358333D02*
X257637380Y10501190D01*
X257637380Y10501190D02*
X257637380Y10739285D01*
X257637380Y9215476D02*
X257637380Y9786904D01*
X257637380Y9501190D02*
X256637380Y9501190D01*
X256637380Y9501190D02*
X256780238Y9596428D01*
X256780238Y9596428D02*
X256875476Y9691666D01*
X256875476Y9691666D02*
X256923095Y9786904D01*
X256732619Y8834523D02*
X256685000Y8786904D01*
X256685000Y8786904D02*
X256637380Y8691666D01*
X256637380Y8691666D02*
X256637380Y8453571D01*
X256637380Y8453571D02*
X256685000Y8358333D01*
X256685000Y8358333D02*
X256732619Y8310714D01*
X256732619Y8310714D02*
X256827857Y8263095D01*
X256827857Y8263095D02*
X256923095Y8263095D01*
X256923095Y8263095D02*
X257065952Y8310714D01*
X257065952Y8310714D02*
X257637380Y8882142D01*
X257637380Y8882142D02*
X257637380Y8263095D01*
%TO.C,D33*%
X130954880Y-27360714D02*
X129954880Y-27360714D01*
X129954880Y-27360714D02*
X129954880Y-27598809D01*
X129954880Y-27598809D02*
X130002500Y-27741666D01*
X130002500Y-27741666D02*
X130097738Y-27836904D01*
X130097738Y-27836904D02*
X130192976Y-27884523D01*
X130192976Y-27884523D02*
X130383452Y-27932142D01*
X130383452Y-27932142D02*
X130526309Y-27932142D01*
X130526309Y-27932142D02*
X130716785Y-27884523D01*
X130716785Y-27884523D02*
X130812023Y-27836904D01*
X130812023Y-27836904D02*
X130907261Y-27741666D01*
X130907261Y-27741666D02*
X130954880Y-27598809D01*
X130954880Y-27598809D02*
X130954880Y-27360714D01*
X129954880Y-28265476D02*
X129954880Y-28884523D01*
X129954880Y-28884523D02*
X130335833Y-28551190D01*
X130335833Y-28551190D02*
X130335833Y-28694047D01*
X130335833Y-28694047D02*
X130383452Y-28789285D01*
X130383452Y-28789285D02*
X130431071Y-28836904D01*
X130431071Y-28836904D02*
X130526309Y-28884523D01*
X130526309Y-28884523D02*
X130764404Y-28884523D01*
X130764404Y-28884523D02*
X130859642Y-28836904D01*
X130859642Y-28836904D02*
X130907261Y-28789285D01*
X130907261Y-28789285D02*
X130954880Y-28694047D01*
X130954880Y-28694047D02*
X130954880Y-28408333D01*
X130954880Y-28408333D02*
X130907261Y-28313095D01*
X130907261Y-28313095D02*
X130859642Y-28265476D01*
X129954880Y-29217857D02*
X129954880Y-29836904D01*
X129954880Y-29836904D02*
X130335833Y-29503571D01*
X130335833Y-29503571D02*
X130335833Y-29646428D01*
X130335833Y-29646428D02*
X130383452Y-29741666D01*
X130383452Y-29741666D02*
X130431071Y-29789285D01*
X130431071Y-29789285D02*
X130526309Y-29836904D01*
X130526309Y-29836904D02*
X130764404Y-29836904D01*
X130764404Y-29836904D02*
X130859642Y-29789285D01*
X130859642Y-29789285D02*
X130907261Y-29741666D01*
X130907261Y-29741666D02*
X130954880Y-29646428D01*
X130954880Y-29646428D02*
X130954880Y-29360714D01*
X130954880Y-29360714D02*
X130907261Y-29265476D01*
X130907261Y-29265476D02*
X130859642Y-29217857D01*
%TO.C,D25*%
X29736130Y-27360714D02*
X28736130Y-27360714D01*
X28736130Y-27360714D02*
X28736130Y-27598809D01*
X28736130Y-27598809D02*
X28783750Y-27741666D01*
X28783750Y-27741666D02*
X28878988Y-27836904D01*
X28878988Y-27836904D02*
X28974226Y-27884523D01*
X28974226Y-27884523D02*
X29164702Y-27932142D01*
X29164702Y-27932142D02*
X29307559Y-27932142D01*
X29307559Y-27932142D02*
X29498035Y-27884523D01*
X29498035Y-27884523D02*
X29593273Y-27836904D01*
X29593273Y-27836904D02*
X29688511Y-27741666D01*
X29688511Y-27741666D02*
X29736130Y-27598809D01*
X29736130Y-27598809D02*
X29736130Y-27360714D01*
X28831369Y-28313095D02*
X28783750Y-28360714D01*
X28783750Y-28360714D02*
X28736130Y-28455952D01*
X28736130Y-28455952D02*
X28736130Y-28694047D01*
X28736130Y-28694047D02*
X28783750Y-28789285D01*
X28783750Y-28789285D02*
X28831369Y-28836904D01*
X28831369Y-28836904D02*
X28926607Y-28884523D01*
X28926607Y-28884523D02*
X29021845Y-28884523D01*
X29021845Y-28884523D02*
X29164702Y-28836904D01*
X29164702Y-28836904D02*
X29736130Y-28265476D01*
X29736130Y-28265476D02*
X29736130Y-28884523D01*
X28736130Y-29789285D02*
X28736130Y-29313095D01*
X28736130Y-29313095D02*
X29212321Y-29265476D01*
X29212321Y-29265476D02*
X29164702Y-29313095D01*
X29164702Y-29313095D02*
X29117083Y-29408333D01*
X29117083Y-29408333D02*
X29117083Y-29646428D01*
X29117083Y-29646428D02*
X29164702Y-29741666D01*
X29164702Y-29741666D02*
X29212321Y-29789285D01*
X29212321Y-29789285D02*
X29307559Y-29836904D01*
X29307559Y-29836904D02*
X29545654Y-29836904D01*
X29545654Y-29836904D02*
X29640892Y-29789285D01*
X29640892Y-29789285D02*
X29688511Y-29741666D01*
X29688511Y-29741666D02*
X29736130Y-29646428D01*
X29736130Y-29646428D02*
X29736130Y-29408333D01*
X29736130Y-29408333D02*
X29688511Y-29313095D01*
X29688511Y-29313095D02*
X29640892Y-29265476D01*
%TO.C,D15*%
X83647380Y-8310714D02*
X82647380Y-8310714D01*
X82647380Y-8310714D02*
X82647380Y-8548809D01*
X82647380Y-8548809D02*
X82695000Y-8691666D01*
X82695000Y-8691666D02*
X82790238Y-8786904D01*
X82790238Y-8786904D02*
X82885476Y-8834523D01*
X82885476Y-8834523D02*
X83075952Y-8882142D01*
X83075952Y-8882142D02*
X83218809Y-8882142D01*
X83218809Y-8882142D02*
X83409285Y-8834523D01*
X83409285Y-8834523D02*
X83504523Y-8786904D01*
X83504523Y-8786904D02*
X83599761Y-8691666D01*
X83599761Y-8691666D02*
X83647380Y-8548809D01*
X83647380Y-8548809D02*
X83647380Y-8310714D01*
X83647380Y-9834523D02*
X83647380Y-9263095D01*
X83647380Y-9548809D02*
X82647380Y-9548809D01*
X82647380Y-9548809D02*
X82790238Y-9453571D01*
X82790238Y-9453571D02*
X82885476Y-9358333D01*
X82885476Y-9358333D02*
X82933095Y-9263095D01*
X82647380Y-10739285D02*
X82647380Y-10263095D01*
X82647380Y-10263095D02*
X83123571Y-10215476D01*
X83123571Y-10215476D02*
X83075952Y-10263095D01*
X83075952Y-10263095D02*
X83028333Y-10358333D01*
X83028333Y-10358333D02*
X83028333Y-10596428D01*
X83028333Y-10596428D02*
X83075952Y-10691666D01*
X83075952Y-10691666D02*
X83123571Y-10739285D01*
X83123571Y-10739285D02*
X83218809Y-10786904D01*
X83218809Y-10786904D02*
X83456904Y-10786904D01*
X83456904Y-10786904D02*
X83552142Y-10739285D01*
X83552142Y-10739285D02*
X83599761Y-10691666D01*
X83599761Y-10691666D02*
X83647380Y-10596428D01*
X83647380Y-10596428D02*
X83647380Y-10358333D01*
X83647380Y-10358333D02*
X83599761Y-10263095D01*
X83599761Y-10263095D02*
X83552142Y-10215476D01*
%TO.C,F1*%
X74152083Y4981428D02*
X74485416Y4981428D01*
X74485416Y4457619D02*
X74485416Y5457619D01*
X74485416Y5457619D02*
X74009226Y5457619D01*
X73104464Y4457619D02*
X73675892Y4457619D01*
X73390178Y4457619D02*
X73390178Y5457619D01*
X73390178Y5457619D02*
X73485416Y5314761D01*
X73485416Y5314761D02*
X73580654Y5219523D01*
X73580654Y5219523D02*
X73675892Y5171904D01*
%TO.C,D18*%
X140797380Y-8310714D02*
X139797380Y-8310714D01*
X139797380Y-8310714D02*
X139797380Y-8548809D01*
X139797380Y-8548809D02*
X139845000Y-8691666D01*
X139845000Y-8691666D02*
X139940238Y-8786904D01*
X139940238Y-8786904D02*
X140035476Y-8834523D01*
X140035476Y-8834523D02*
X140225952Y-8882142D01*
X140225952Y-8882142D02*
X140368809Y-8882142D01*
X140368809Y-8882142D02*
X140559285Y-8834523D01*
X140559285Y-8834523D02*
X140654523Y-8786904D01*
X140654523Y-8786904D02*
X140749761Y-8691666D01*
X140749761Y-8691666D02*
X140797380Y-8548809D01*
X140797380Y-8548809D02*
X140797380Y-8310714D01*
X140797380Y-9834523D02*
X140797380Y-9263095D01*
X140797380Y-9548809D02*
X139797380Y-9548809D01*
X139797380Y-9548809D02*
X139940238Y-9453571D01*
X139940238Y-9453571D02*
X140035476Y-9358333D01*
X140035476Y-9358333D02*
X140083095Y-9263095D01*
X140225952Y-10405952D02*
X140178333Y-10310714D01*
X140178333Y-10310714D02*
X140130714Y-10263095D01*
X140130714Y-10263095D02*
X140035476Y-10215476D01*
X140035476Y-10215476D02*
X139987857Y-10215476D01*
X139987857Y-10215476D02*
X139892619Y-10263095D01*
X139892619Y-10263095D02*
X139845000Y-10310714D01*
X139845000Y-10310714D02*
X139797380Y-10405952D01*
X139797380Y-10405952D02*
X139797380Y-10596428D01*
X139797380Y-10596428D02*
X139845000Y-10691666D01*
X139845000Y-10691666D02*
X139892619Y-10739285D01*
X139892619Y-10739285D02*
X139987857Y-10786904D01*
X139987857Y-10786904D02*
X140035476Y-10786904D01*
X140035476Y-10786904D02*
X140130714Y-10739285D01*
X140130714Y-10739285D02*
X140178333Y-10691666D01*
X140178333Y-10691666D02*
X140225952Y-10596428D01*
X140225952Y-10596428D02*
X140225952Y-10405952D01*
X140225952Y-10405952D02*
X140273571Y-10310714D01*
X140273571Y-10310714D02*
X140321190Y-10263095D01*
X140321190Y-10263095D02*
X140416428Y-10215476D01*
X140416428Y-10215476D02*
X140606904Y-10215476D01*
X140606904Y-10215476D02*
X140702142Y-10263095D01*
X140702142Y-10263095D02*
X140749761Y-10310714D01*
X140749761Y-10310714D02*
X140797380Y-10405952D01*
X140797380Y-10405952D02*
X140797380Y-10596428D01*
X140797380Y-10596428D02*
X140749761Y-10691666D01*
X140749761Y-10691666D02*
X140702142Y-10739285D01*
X140702142Y-10739285D02*
X140606904Y-10786904D01*
X140606904Y-10786904D02*
X140416428Y-10786904D01*
X140416428Y-10786904D02*
X140321190Y-10739285D01*
X140321190Y-10739285D02*
X140273571Y-10691666D01*
X140273571Y-10691666D02*
X140225952Y-10596428D01*
%TO.C,D24*%
X260177380Y-8310714D02*
X259177380Y-8310714D01*
X259177380Y-8310714D02*
X259177380Y-8548809D01*
X259177380Y-8548809D02*
X259225000Y-8691666D01*
X259225000Y-8691666D02*
X259320238Y-8786904D01*
X259320238Y-8786904D02*
X259415476Y-8834523D01*
X259415476Y-8834523D02*
X259605952Y-8882142D01*
X259605952Y-8882142D02*
X259748809Y-8882142D01*
X259748809Y-8882142D02*
X259939285Y-8834523D01*
X259939285Y-8834523D02*
X260034523Y-8786904D01*
X260034523Y-8786904D02*
X260129761Y-8691666D01*
X260129761Y-8691666D02*
X260177380Y-8548809D01*
X260177380Y-8548809D02*
X260177380Y-8310714D01*
X259272619Y-9263095D02*
X259225000Y-9310714D01*
X259225000Y-9310714D02*
X259177380Y-9405952D01*
X259177380Y-9405952D02*
X259177380Y-9644047D01*
X259177380Y-9644047D02*
X259225000Y-9739285D01*
X259225000Y-9739285D02*
X259272619Y-9786904D01*
X259272619Y-9786904D02*
X259367857Y-9834523D01*
X259367857Y-9834523D02*
X259463095Y-9834523D01*
X259463095Y-9834523D02*
X259605952Y-9786904D01*
X259605952Y-9786904D02*
X260177380Y-9215476D01*
X260177380Y-9215476D02*
X260177380Y-9834523D01*
X259510714Y-10691666D02*
X260177380Y-10691666D01*
X259129761Y-10453571D02*
X259844047Y-10215476D01*
X259844047Y-10215476D02*
X259844047Y-10834523D01*
%TO.C,D10*%
X211917380Y10739285D02*
X210917380Y10739285D01*
X210917380Y10739285D02*
X210917380Y10501190D01*
X210917380Y10501190D02*
X210965000Y10358333D01*
X210965000Y10358333D02*
X211060238Y10263095D01*
X211060238Y10263095D02*
X211155476Y10215476D01*
X211155476Y10215476D02*
X211345952Y10167857D01*
X211345952Y10167857D02*
X211488809Y10167857D01*
X211488809Y10167857D02*
X211679285Y10215476D01*
X211679285Y10215476D02*
X211774523Y10263095D01*
X211774523Y10263095D02*
X211869761Y10358333D01*
X211869761Y10358333D02*
X211917380Y10501190D01*
X211917380Y10501190D02*
X211917380Y10739285D01*
X211917380Y9215476D02*
X211917380Y9786904D01*
X211917380Y9501190D02*
X210917380Y9501190D01*
X210917380Y9501190D02*
X211060238Y9596428D01*
X211060238Y9596428D02*
X211155476Y9691666D01*
X211155476Y9691666D02*
X211203095Y9786904D01*
X210917380Y8596428D02*
X210917380Y8501190D01*
X210917380Y8501190D02*
X210965000Y8405952D01*
X210965000Y8405952D02*
X211012619Y8358333D01*
X211012619Y8358333D02*
X211107857Y8310714D01*
X211107857Y8310714D02*
X211298333Y8263095D01*
X211298333Y8263095D02*
X211536428Y8263095D01*
X211536428Y8263095D02*
X211726904Y8310714D01*
X211726904Y8310714D02*
X211822142Y8358333D01*
X211822142Y8358333D02*
X211869761Y8405952D01*
X211869761Y8405952D02*
X211917380Y8501190D01*
X211917380Y8501190D02*
X211917380Y8596428D01*
X211917380Y8596428D02*
X211869761Y8691666D01*
X211869761Y8691666D02*
X211822142Y8739285D01*
X211822142Y8739285D02*
X211726904Y8786904D01*
X211726904Y8786904D02*
X211536428Y8834523D01*
X211536428Y8834523D02*
X211298333Y8834523D01*
X211298333Y8834523D02*
X211107857Y8786904D01*
X211107857Y8786904D02*
X211012619Y8739285D01*
X211012619Y8739285D02*
X210965000Y8691666D01*
X210965000Y8691666D02*
X210917380Y8596428D01*
%TO.C,D39*%
X188104880Y-27360714D02*
X187104880Y-27360714D01*
X187104880Y-27360714D02*
X187104880Y-27598809D01*
X187104880Y-27598809D02*
X187152500Y-27741666D01*
X187152500Y-27741666D02*
X187247738Y-27836904D01*
X187247738Y-27836904D02*
X187342976Y-27884523D01*
X187342976Y-27884523D02*
X187533452Y-27932142D01*
X187533452Y-27932142D02*
X187676309Y-27932142D01*
X187676309Y-27932142D02*
X187866785Y-27884523D01*
X187866785Y-27884523D02*
X187962023Y-27836904D01*
X187962023Y-27836904D02*
X188057261Y-27741666D01*
X188057261Y-27741666D02*
X188104880Y-27598809D01*
X188104880Y-27598809D02*
X188104880Y-27360714D01*
X187104880Y-28265476D02*
X187104880Y-28884523D01*
X187104880Y-28884523D02*
X187485833Y-28551190D01*
X187485833Y-28551190D02*
X187485833Y-28694047D01*
X187485833Y-28694047D02*
X187533452Y-28789285D01*
X187533452Y-28789285D02*
X187581071Y-28836904D01*
X187581071Y-28836904D02*
X187676309Y-28884523D01*
X187676309Y-28884523D02*
X187914404Y-28884523D01*
X187914404Y-28884523D02*
X188009642Y-28836904D01*
X188009642Y-28836904D02*
X188057261Y-28789285D01*
X188057261Y-28789285D02*
X188104880Y-28694047D01*
X188104880Y-28694047D02*
X188104880Y-28408333D01*
X188104880Y-28408333D02*
X188057261Y-28313095D01*
X188057261Y-28313095D02*
X188009642Y-28265476D01*
X188104880Y-29360714D02*
X188104880Y-29551190D01*
X188104880Y-29551190D02*
X188057261Y-29646428D01*
X188057261Y-29646428D02*
X188009642Y-29694047D01*
X188009642Y-29694047D02*
X187866785Y-29789285D01*
X187866785Y-29789285D02*
X187676309Y-29836904D01*
X187676309Y-29836904D02*
X187295357Y-29836904D01*
X187295357Y-29836904D02*
X187200119Y-29789285D01*
X187200119Y-29789285D02*
X187152500Y-29741666D01*
X187152500Y-29741666D02*
X187104880Y-29646428D01*
X187104880Y-29646428D02*
X187104880Y-29455952D01*
X187104880Y-29455952D02*
X187152500Y-29360714D01*
X187152500Y-29360714D02*
X187200119Y-29313095D01*
X187200119Y-29313095D02*
X187295357Y-29265476D01*
X187295357Y-29265476D02*
X187533452Y-29265476D01*
X187533452Y-29265476D02*
X187628690Y-29313095D01*
X187628690Y-29313095D02*
X187676309Y-29360714D01*
X187676309Y-29360714D02*
X187723928Y-29455952D01*
X187723928Y-29455952D02*
X187723928Y-29646428D01*
X187723928Y-29646428D02*
X187676309Y-29741666D01*
X187676309Y-29741666D02*
X187628690Y-29789285D01*
X187628690Y-29789285D02*
X187533452Y-29836904D01*
%TO.C,D42*%
X200011130Y-46410714D02*
X199011130Y-46410714D01*
X199011130Y-46410714D02*
X199011130Y-46648809D01*
X199011130Y-46648809D02*
X199058750Y-46791666D01*
X199058750Y-46791666D02*
X199153988Y-46886904D01*
X199153988Y-46886904D02*
X199249226Y-46934523D01*
X199249226Y-46934523D02*
X199439702Y-46982142D01*
X199439702Y-46982142D02*
X199582559Y-46982142D01*
X199582559Y-46982142D02*
X199773035Y-46934523D01*
X199773035Y-46934523D02*
X199868273Y-46886904D01*
X199868273Y-46886904D02*
X199963511Y-46791666D01*
X199963511Y-46791666D02*
X200011130Y-46648809D01*
X200011130Y-46648809D02*
X200011130Y-46410714D01*
X199344464Y-47839285D02*
X200011130Y-47839285D01*
X198963511Y-47601190D02*
X199677797Y-47363095D01*
X199677797Y-47363095D02*
X199677797Y-47982142D01*
X199106369Y-48315476D02*
X199058750Y-48363095D01*
X199058750Y-48363095D02*
X199011130Y-48458333D01*
X199011130Y-48458333D02*
X199011130Y-48696428D01*
X199011130Y-48696428D02*
X199058750Y-48791666D01*
X199058750Y-48791666D02*
X199106369Y-48839285D01*
X199106369Y-48839285D02*
X199201607Y-48886904D01*
X199201607Y-48886904D02*
X199296845Y-48886904D01*
X199296845Y-48886904D02*
X199439702Y-48839285D01*
X199439702Y-48839285D02*
X200011130Y-48267857D01*
X200011130Y-48267857D02*
X200011130Y-48886904D01*
%TO.C,D37*%
X169054880Y-27360714D02*
X168054880Y-27360714D01*
X168054880Y-27360714D02*
X168054880Y-27598809D01*
X168054880Y-27598809D02*
X168102500Y-27741666D01*
X168102500Y-27741666D02*
X168197738Y-27836904D01*
X168197738Y-27836904D02*
X168292976Y-27884523D01*
X168292976Y-27884523D02*
X168483452Y-27932142D01*
X168483452Y-27932142D02*
X168626309Y-27932142D01*
X168626309Y-27932142D02*
X168816785Y-27884523D01*
X168816785Y-27884523D02*
X168912023Y-27836904D01*
X168912023Y-27836904D02*
X169007261Y-27741666D01*
X169007261Y-27741666D02*
X169054880Y-27598809D01*
X169054880Y-27598809D02*
X169054880Y-27360714D01*
X168054880Y-28265476D02*
X168054880Y-28884523D01*
X168054880Y-28884523D02*
X168435833Y-28551190D01*
X168435833Y-28551190D02*
X168435833Y-28694047D01*
X168435833Y-28694047D02*
X168483452Y-28789285D01*
X168483452Y-28789285D02*
X168531071Y-28836904D01*
X168531071Y-28836904D02*
X168626309Y-28884523D01*
X168626309Y-28884523D02*
X168864404Y-28884523D01*
X168864404Y-28884523D02*
X168959642Y-28836904D01*
X168959642Y-28836904D02*
X169007261Y-28789285D01*
X169007261Y-28789285D02*
X169054880Y-28694047D01*
X169054880Y-28694047D02*
X169054880Y-28408333D01*
X169054880Y-28408333D02*
X169007261Y-28313095D01*
X169007261Y-28313095D02*
X168959642Y-28265476D01*
X168054880Y-29217857D02*
X168054880Y-29884523D01*
X168054880Y-29884523D02*
X169054880Y-29455952D01*
%TO.C,U2*%
X68230654Y2132619D02*
X68230654Y1323095D01*
X68230654Y1323095D02*
X68183035Y1227857D01*
X68183035Y1227857D02*
X68135416Y1180238D01*
X68135416Y1180238D02*
X68040178Y1132619D01*
X68040178Y1132619D02*
X67849702Y1132619D01*
X67849702Y1132619D02*
X67754464Y1180238D01*
X67754464Y1180238D02*
X67706845Y1227857D01*
X67706845Y1227857D02*
X67659226Y1323095D01*
X67659226Y1323095D02*
X67659226Y2132619D01*
X67230654Y2037380D02*
X67183035Y2085000D01*
X67183035Y2085000D02*
X67087797Y2132619D01*
X67087797Y2132619D02*
X66849702Y2132619D01*
X66849702Y2132619D02*
X66754464Y2085000D01*
X66754464Y2085000D02*
X66706845Y2037380D01*
X66706845Y2037380D02*
X66659226Y1942142D01*
X66659226Y1942142D02*
X66659226Y1846904D01*
X66659226Y1846904D02*
X66706845Y1704047D01*
X66706845Y1704047D02*
X67278273Y1132619D01*
X67278273Y1132619D02*
X66659226Y1132619D01*
%TO.C,D48*%
X261923630Y-46410714D02*
X260923630Y-46410714D01*
X260923630Y-46410714D02*
X260923630Y-46648809D01*
X260923630Y-46648809D02*
X260971250Y-46791666D01*
X260971250Y-46791666D02*
X261066488Y-46886904D01*
X261066488Y-46886904D02*
X261161726Y-46934523D01*
X261161726Y-46934523D02*
X261352202Y-46982142D01*
X261352202Y-46982142D02*
X261495059Y-46982142D01*
X261495059Y-46982142D02*
X261685535Y-46934523D01*
X261685535Y-46934523D02*
X261780773Y-46886904D01*
X261780773Y-46886904D02*
X261876011Y-46791666D01*
X261876011Y-46791666D02*
X261923630Y-46648809D01*
X261923630Y-46648809D02*
X261923630Y-46410714D01*
X261256964Y-47839285D02*
X261923630Y-47839285D01*
X260876011Y-47601190D02*
X261590297Y-47363095D01*
X261590297Y-47363095D02*
X261590297Y-47982142D01*
X261352202Y-48505952D02*
X261304583Y-48410714D01*
X261304583Y-48410714D02*
X261256964Y-48363095D01*
X261256964Y-48363095D02*
X261161726Y-48315476D01*
X261161726Y-48315476D02*
X261114107Y-48315476D01*
X261114107Y-48315476D02*
X261018869Y-48363095D01*
X261018869Y-48363095D02*
X260971250Y-48410714D01*
X260971250Y-48410714D02*
X260923630Y-48505952D01*
X260923630Y-48505952D02*
X260923630Y-48696428D01*
X260923630Y-48696428D02*
X260971250Y-48791666D01*
X260971250Y-48791666D02*
X261018869Y-48839285D01*
X261018869Y-48839285D02*
X261114107Y-48886904D01*
X261114107Y-48886904D02*
X261161726Y-48886904D01*
X261161726Y-48886904D02*
X261256964Y-48839285D01*
X261256964Y-48839285D02*
X261304583Y-48791666D01*
X261304583Y-48791666D02*
X261352202Y-48696428D01*
X261352202Y-48696428D02*
X261352202Y-48505952D01*
X261352202Y-48505952D02*
X261399821Y-48410714D01*
X261399821Y-48410714D02*
X261447440Y-48363095D01*
X261447440Y-48363095D02*
X261542678Y-48315476D01*
X261542678Y-48315476D02*
X261733154Y-48315476D01*
X261733154Y-48315476D02*
X261828392Y-48363095D01*
X261828392Y-48363095D02*
X261876011Y-48410714D01*
X261876011Y-48410714D02*
X261923630Y-48505952D01*
X261923630Y-48505952D02*
X261923630Y-48696428D01*
X261923630Y-48696428D02*
X261876011Y-48791666D01*
X261876011Y-48791666D02*
X261828392Y-48839285D01*
X261828392Y-48839285D02*
X261733154Y-48886904D01*
X261733154Y-48886904D02*
X261542678Y-48886904D01*
X261542678Y-48886904D02*
X261447440Y-48839285D01*
X261447440Y-48839285D02*
X261399821Y-48791666D01*
X261399821Y-48791666D02*
X261352202Y-48696428D01*
%TO.C,C5*%
X43029166Y-12440892D02*
X43076785Y-12488511D01*
X43076785Y-12488511D02*
X43219642Y-12536130D01*
X43219642Y-12536130D02*
X43314880Y-12536130D01*
X43314880Y-12536130D02*
X43457737Y-12488511D01*
X43457737Y-12488511D02*
X43552975Y-12393273D01*
X43552975Y-12393273D02*
X43600594Y-12298035D01*
X43600594Y-12298035D02*
X43648213Y-12107559D01*
X43648213Y-12107559D02*
X43648213Y-11964702D01*
X43648213Y-11964702D02*
X43600594Y-11774226D01*
X43600594Y-11774226D02*
X43552975Y-11678988D01*
X43552975Y-11678988D02*
X43457737Y-11583750D01*
X43457737Y-11583750D02*
X43314880Y-11536130D01*
X43314880Y-11536130D02*
X43219642Y-11536130D01*
X43219642Y-11536130D02*
X43076785Y-11583750D01*
X43076785Y-11583750D02*
X43029166Y-11631369D01*
X42124404Y-11536130D02*
X42600594Y-11536130D01*
X42600594Y-11536130D02*
X42648213Y-12012321D01*
X42648213Y-12012321D02*
X42600594Y-11964702D01*
X42600594Y-11964702D02*
X42505356Y-11917083D01*
X42505356Y-11917083D02*
X42267261Y-11917083D01*
X42267261Y-11917083D02*
X42172023Y-11964702D01*
X42172023Y-11964702D02*
X42124404Y-12012321D01*
X42124404Y-12012321D02*
X42076785Y-12107559D01*
X42076785Y-12107559D02*
X42076785Y-12345654D01*
X42076785Y-12345654D02*
X42124404Y-12440892D01*
X42124404Y-12440892D02*
X42172023Y-12488511D01*
X42172023Y-12488511D02*
X42267261Y-12536130D01*
X42267261Y-12536130D02*
X42505356Y-12536130D01*
X42505356Y-12536130D02*
X42600594Y-12488511D01*
X42600594Y-12488511D02*
X42648213Y-12440892D01*
%TO.C,U1*%
X57611904Y-19629880D02*
X57611904Y-20439404D01*
X57611904Y-20439404D02*
X57564285Y-20534642D01*
X57564285Y-20534642D02*
X57516666Y-20582261D01*
X57516666Y-20582261D02*
X57421428Y-20629880D01*
X57421428Y-20629880D02*
X57230952Y-20629880D01*
X57230952Y-20629880D02*
X57135714Y-20582261D01*
X57135714Y-20582261D02*
X57088095Y-20534642D01*
X57088095Y-20534642D02*
X57040476Y-20439404D01*
X57040476Y-20439404D02*
X57040476Y-19629880D01*
X56040476Y-20629880D02*
X56611904Y-20629880D01*
X56326190Y-20629880D02*
X56326190Y-19629880D01*
X56326190Y-19629880D02*
X56421428Y-19772738D01*
X56421428Y-19772738D02*
X56516666Y-19867976D01*
X56516666Y-19867976D02*
X56611904Y-19915595D01*
%TO.C,Y1*%
X51708615Y-29603930D02*
X52045333Y-29940647D01*
X51573928Y-28997838D02*
X51708615Y-29603930D01*
X51708615Y-29603930D02*
X51102524Y-29469243D01*
X51203539Y-30782441D02*
X51607600Y-30378380D01*
X51405569Y-30580411D02*
X50698462Y-29873304D01*
X50698462Y-29873304D02*
X50866821Y-29906976D01*
X50866821Y-29906976D02*
X51001508Y-29906976D01*
X51001508Y-29906976D02*
X51102524Y-29873304D01*
%TO.C,D21*%
X197947380Y-8310714D02*
X196947380Y-8310714D01*
X196947380Y-8310714D02*
X196947380Y-8548809D01*
X196947380Y-8548809D02*
X196995000Y-8691666D01*
X196995000Y-8691666D02*
X197090238Y-8786904D01*
X197090238Y-8786904D02*
X197185476Y-8834523D01*
X197185476Y-8834523D02*
X197375952Y-8882142D01*
X197375952Y-8882142D02*
X197518809Y-8882142D01*
X197518809Y-8882142D02*
X197709285Y-8834523D01*
X197709285Y-8834523D02*
X197804523Y-8786904D01*
X197804523Y-8786904D02*
X197899761Y-8691666D01*
X197899761Y-8691666D02*
X197947380Y-8548809D01*
X197947380Y-8548809D02*
X197947380Y-8310714D01*
X197042619Y-9263095D02*
X196995000Y-9310714D01*
X196995000Y-9310714D02*
X196947380Y-9405952D01*
X196947380Y-9405952D02*
X196947380Y-9644047D01*
X196947380Y-9644047D02*
X196995000Y-9739285D01*
X196995000Y-9739285D02*
X197042619Y-9786904D01*
X197042619Y-9786904D02*
X197137857Y-9834523D01*
X197137857Y-9834523D02*
X197233095Y-9834523D01*
X197233095Y-9834523D02*
X197375952Y-9786904D01*
X197375952Y-9786904D02*
X197947380Y-9215476D01*
X197947380Y-9215476D02*
X197947380Y-9834523D01*
X197947380Y-10786904D02*
X197947380Y-10215476D01*
X197947380Y-10501190D02*
X196947380Y-10501190D01*
X196947380Y-10501190D02*
X197090238Y-10405952D01*
X197090238Y-10405952D02*
X197185476Y-10310714D01*
X197185476Y-10310714D02*
X197233095Y-10215476D01*
%TO.C,D30*%
X80948630Y-46410714D02*
X79948630Y-46410714D01*
X79948630Y-46410714D02*
X79948630Y-46648809D01*
X79948630Y-46648809D02*
X79996250Y-46791666D01*
X79996250Y-46791666D02*
X80091488Y-46886904D01*
X80091488Y-46886904D02*
X80186726Y-46934523D01*
X80186726Y-46934523D02*
X80377202Y-46982142D01*
X80377202Y-46982142D02*
X80520059Y-46982142D01*
X80520059Y-46982142D02*
X80710535Y-46934523D01*
X80710535Y-46934523D02*
X80805773Y-46886904D01*
X80805773Y-46886904D02*
X80901011Y-46791666D01*
X80901011Y-46791666D02*
X80948630Y-46648809D01*
X80948630Y-46648809D02*
X80948630Y-46410714D01*
X79948630Y-47315476D02*
X79948630Y-47934523D01*
X79948630Y-47934523D02*
X80329583Y-47601190D01*
X80329583Y-47601190D02*
X80329583Y-47744047D01*
X80329583Y-47744047D02*
X80377202Y-47839285D01*
X80377202Y-47839285D02*
X80424821Y-47886904D01*
X80424821Y-47886904D02*
X80520059Y-47934523D01*
X80520059Y-47934523D02*
X80758154Y-47934523D01*
X80758154Y-47934523D02*
X80853392Y-47886904D01*
X80853392Y-47886904D02*
X80901011Y-47839285D01*
X80901011Y-47839285D02*
X80948630Y-47744047D01*
X80948630Y-47744047D02*
X80948630Y-47458333D01*
X80948630Y-47458333D02*
X80901011Y-47363095D01*
X80901011Y-47363095D02*
X80853392Y-47315476D01*
X79948630Y-48553571D02*
X79948630Y-48648809D01*
X79948630Y-48648809D02*
X79996250Y-48744047D01*
X79996250Y-48744047D02*
X80043869Y-48791666D01*
X80043869Y-48791666D02*
X80139107Y-48839285D01*
X80139107Y-48839285D02*
X80329583Y-48886904D01*
X80329583Y-48886904D02*
X80567678Y-48886904D01*
X80567678Y-48886904D02*
X80758154Y-48839285D01*
X80758154Y-48839285D02*
X80853392Y-48791666D01*
X80853392Y-48791666D02*
X80901011Y-48744047D01*
X80901011Y-48744047D02*
X80948630Y-48648809D01*
X80948630Y-48648809D02*
X80948630Y-48553571D01*
X80948630Y-48553571D02*
X80901011Y-48458333D01*
X80901011Y-48458333D02*
X80853392Y-48410714D01*
X80853392Y-48410714D02*
X80758154Y-48363095D01*
X80758154Y-48363095D02*
X80567678Y-48315476D01*
X80567678Y-48315476D02*
X80329583Y-48315476D01*
X80329583Y-48315476D02*
X80139107Y-48363095D01*
X80139107Y-48363095D02*
X80043869Y-48410714D01*
X80043869Y-48410714D02*
X79996250Y-48458333D01*
X79996250Y-48458333D02*
X79948630Y-48553571D01*
%TO.C,D14*%
X64279880Y-8310714D02*
X63279880Y-8310714D01*
X63279880Y-8310714D02*
X63279880Y-8548809D01*
X63279880Y-8548809D02*
X63327500Y-8691666D01*
X63327500Y-8691666D02*
X63422738Y-8786904D01*
X63422738Y-8786904D02*
X63517976Y-8834523D01*
X63517976Y-8834523D02*
X63708452Y-8882142D01*
X63708452Y-8882142D02*
X63851309Y-8882142D01*
X63851309Y-8882142D02*
X64041785Y-8834523D01*
X64041785Y-8834523D02*
X64137023Y-8786904D01*
X64137023Y-8786904D02*
X64232261Y-8691666D01*
X64232261Y-8691666D02*
X64279880Y-8548809D01*
X64279880Y-8548809D02*
X64279880Y-8310714D01*
X64279880Y-9834523D02*
X64279880Y-9263095D01*
X64279880Y-9548809D02*
X63279880Y-9548809D01*
X63279880Y-9548809D02*
X63422738Y-9453571D01*
X63422738Y-9453571D02*
X63517976Y-9358333D01*
X63517976Y-9358333D02*
X63565595Y-9263095D01*
X63613214Y-10691666D02*
X64279880Y-10691666D01*
X63232261Y-10453571D02*
X63946547Y-10215476D01*
X63946547Y-10215476D02*
X63946547Y-10834523D01*
%TO.C,D1*%
X40467380Y10263094D02*
X39467380Y10263094D01*
X39467380Y10263094D02*
X39467380Y10024999D01*
X39467380Y10024999D02*
X39515000Y9882142D01*
X39515000Y9882142D02*
X39610238Y9786904D01*
X39610238Y9786904D02*
X39705476Y9739285D01*
X39705476Y9739285D02*
X39895952Y9691666D01*
X39895952Y9691666D02*
X40038809Y9691666D01*
X40038809Y9691666D02*
X40229285Y9739285D01*
X40229285Y9739285D02*
X40324523Y9786904D01*
X40324523Y9786904D02*
X40419761Y9882142D01*
X40419761Y9882142D02*
X40467380Y10024999D01*
X40467380Y10024999D02*
X40467380Y10263094D01*
X40467380Y8739285D02*
X40467380Y9310713D01*
X40467380Y9024999D02*
X39467380Y9024999D01*
X39467380Y9024999D02*
X39610238Y9120237D01*
X39610238Y9120237D02*
X39705476Y9215475D01*
X39705476Y9215475D02*
X39753095Y9310713D01*
%TO.C,D34*%
X128573630Y-46410714D02*
X127573630Y-46410714D01*
X127573630Y-46410714D02*
X127573630Y-46648809D01*
X127573630Y-46648809D02*
X127621250Y-46791666D01*
X127621250Y-46791666D02*
X127716488Y-46886904D01*
X127716488Y-46886904D02*
X127811726Y-46934523D01*
X127811726Y-46934523D02*
X128002202Y-46982142D01*
X128002202Y-46982142D02*
X128145059Y-46982142D01*
X128145059Y-46982142D02*
X128335535Y-46934523D01*
X128335535Y-46934523D02*
X128430773Y-46886904D01*
X128430773Y-46886904D02*
X128526011Y-46791666D01*
X128526011Y-46791666D02*
X128573630Y-46648809D01*
X128573630Y-46648809D02*
X128573630Y-46410714D01*
X127573630Y-47315476D02*
X127573630Y-47934523D01*
X127573630Y-47934523D02*
X127954583Y-47601190D01*
X127954583Y-47601190D02*
X127954583Y-47744047D01*
X127954583Y-47744047D02*
X128002202Y-47839285D01*
X128002202Y-47839285D02*
X128049821Y-47886904D01*
X128049821Y-47886904D02*
X128145059Y-47934523D01*
X128145059Y-47934523D02*
X128383154Y-47934523D01*
X128383154Y-47934523D02*
X128478392Y-47886904D01*
X128478392Y-47886904D02*
X128526011Y-47839285D01*
X128526011Y-47839285D02*
X128573630Y-47744047D01*
X128573630Y-47744047D02*
X128573630Y-47458333D01*
X128573630Y-47458333D02*
X128526011Y-47363095D01*
X128526011Y-47363095D02*
X128478392Y-47315476D01*
X127906964Y-48791666D02*
X128573630Y-48791666D01*
X127526011Y-48553571D02*
X128240297Y-48315476D01*
X128240297Y-48315476D02*
X128240297Y-48934523D01*
%TO.C,R2*%
X41441666Y-20847380D02*
X41774999Y-20371190D01*
X42013094Y-20847380D02*
X42013094Y-19847380D01*
X42013094Y-19847380D02*
X41632142Y-19847380D01*
X41632142Y-19847380D02*
X41536904Y-19895000D01*
X41536904Y-19895000D02*
X41489285Y-19942619D01*
X41489285Y-19942619D02*
X41441666Y-20037857D01*
X41441666Y-20037857D02*
X41441666Y-20180714D01*
X41441666Y-20180714D02*
X41489285Y-20275952D01*
X41489285Y-20275952D02*
X41536904Y-20323571D01*
X41536904Y-20323571D02*
X41632142Y-20371190D01*
X41632142Y-20371190D02*
X42013094Y-20371190D01*
X41060713Y-19942619D02*
X41013094Y-19895000D01*
X41013094Y-19895000D02*
X40917856Y-19847380D01*
X40917856Y-19847380D02*
X40679761Y-19847380D01*
X40679761Y-19847380D02*
X40584523Y-19895000D01*
X40584523Y-19895000D02*
X40536904Y-19942619D01*
X40536904Y-19942619D02*
X40489285Y-20037857D01*
X40489285Y-20037857D02*
X40489285Y-20133095D01*
X40489285Y-20133095D02*
X40536904Y-20275952D01*
X40536904Y-20275952D02*
X41108332Y-20847380D01*
X41108332Y-20847380D02*
X40489285Y-20847380D01*
%TO.C,D47*%
X262304880Y-31329464D02*
X261304880Y-31329464D01*
X261304880Y-31329464D02*
X261304880Y-31567559D01*
X261304880Y-31567559D02*
X261352500Y-31710416D01*
X261352500Y-31710416D02*
X261447738Y-31805654D01*
X261447738Y-31805654D02*
X261542976Y-31853273D01*
X261542976Y-31853273D02*
X261733452Y-31900892D01*
X261733452Y-31900892D02*
X261876309Y-31900892D01*
X261876309Y-31900892D02*
X262066785Y-31853273D01*
X262066785Y-31853273D02*
X262162023Y-31805654D01*
X262162023Y-31805654D02*
X262257261Y-31710416D01*
X262257261Y-31710416D02*
X262304880Y-31567559D01*
X262304880Y-31567559D02*
X262304880Y-31329464D01*
X261638214Y-32758035D02*
X262304880Y-32758035D01*
X261257261Y-32519940D02*
X261971547Y-32281845D01*
X261971547Y-32281845D02*
X261971547Y-32900892D01*
X261304880Y-33186607D02*
X261304880Y-33853273D01*
X261304880Y-33853273D02*
X262304880Y-33424702D01*
%TO.C,D22*%
X216997380Y-8310714D02*
X215997380Y-8310714D01*
X215997380Y-8310714D02*
X215997380Y-8548809D01*
X215997380Y-8548809D02*
X216045000Y-8691666D01*
X216045000Y-8691666D02*
X216140238Y-8786904D01*
X216140238Y-8786904D02*
X216235476Y-8834523D01*
X216235476Y-8834523D02*
X216425952Y-8882142D01*
X216425952Y-8882142D02*
X216568809Y-8882142D01*
X216568809Y-8882142D02*
X216759285Y-8834523D01*
X216759285Y-8834523D02*
X216854523Y-8786904D01*
X216854523Y-8786904D02*
X216949761Y-8691666D01*
X216949761Y-8691666D02*
X216997380Y-8548809D01*
X216997380Y-8548809D02*
X216997380Y-8310714D01*
X216092619Y-9263095D02*
X216045000Y-9310714D01*
X216045000Y-9310714D02*
X215997380Y-9405952D01*
X215997380Y-9405952D02*
X215997380Y-9644047D01*
X215997380Y-9644047D02*
X216045000Y-9739285D01*
X216045000Y-9739285D02*
X216092619Y-9786904D01*
X216092619Y-9786904D02*
X216187857Y-9834523D01*
X216187857Y-9834523D02*
X216283095Y-9834523D01*
X216283095Y-9834523D02*
X216425952Y-9786904D01*
X216425952Y-9786904D02*
X216997380Y-9215476D01*
X216997380Y-9215476D02*
X216997380Y-9834523D01*
X216092619Y-10215476D02*
X216045000Y-10263095D01*
X216045000Y-10263095D02*
X215997380Y-10358333D01*
X215997380Y-10358333D02*
X215997380Y-10596428D01*
X215997380Y-10596428D02*
X216045000Y-10691666D01*
X216045000Y-10691666D02*
X216092619Y-10739285D01*
X216092619Y-10739285D02*
X216187857Y-10786904D01*
X216187857Y-10786904D02*
X216283095Y-10786904D01*
X216283095Y-10786904D02*
X216425952Y-10739285D01*
X216425952Y-10739285D02*
X216997380Y-10167857D01*
X216997380Y-10167857D02*
X216997380Y-10786904D01*
%TO.C,D35*%
X150004880Y-27360714D02*
X149004880Y-27360714D01*
X149004880Y-27360714D02*
X149004880Y-27598809D01*
X149004880Y-27598809D02*
X149052500Y-27741666D01*
X149052500Y-27741666D02*
X149147738Y-27836904D01*
X149147738Y-27836904D02*
X149242976Y-27884523D01*
X149242976Y-27884523D02*
X149433452Y-27932142D01*
X149433452Y-27932142D02*
X149576309Y-27932142D01*
X149576309Y-27932142D02*
X149766785Y-27884523D01*
X149766785Y-27884523D02*
X149862023Y-27836904D01*
X149862023Y-27836904D02*
X149957261Y-27741666D01*
X149957261Y-27741666D02*
X150004880Y-27598809D01*
X150004880Y-27598809D02*
X150004880Y-27360714D01*
X149004880Y-28265476D02*
X149004880Y-28884523D01*
X149004880Y-28884523D02*
X149385833Y-28551190D01*
X149385833Y-28551190D02*
X149385833Y-28694047D01*
X149385833Y-28694047D02*
X149433452Y-28789285D01*
X149433452Y-28789285D02*
X149481071Y-28836904D01*
X149481071Y-28836904D02*
X149576309Y-28884523D01*
X149576309Y-28884523D02*
X149814404Y-28884523D01*
X149814404Y-28884523D02*
X149909642Y-28836904D01*
X149909642Y-28836904D02*
X149957261Y-28789285D01*
X149957261Y-28789285D02*
X150004880Y-28694047D01*
X150004880Y-28694047D02*
X150004880Y-28408333D01*
X150004880Y-28408333D02*
X149957261Y-28313095D01*
X149957261Y-28313095D02*
X149909642Y-28265476D01*
X149004880Y-29789285D02*
X149004880Y-29313095D01*
X149004880Y-29313095D02*
X149481071Y-29265476D01*
X149481071Y-29265476D02*
X149433452Y-29313095D01*
X149433452Y-29313095D02*
X149385833Y-29408333D01*
X149385833Y-29408333D02*
X149385833Y-29646428D01*
X149385833Y-29646428D02*
X149433452Y-29741666D01*
X149433452Y-29741666D02*
X149481071Y-29789285D01*
X149481071Y-29789285D02*
X149576309Y-29836904D01*
X149576309Y-29836904D02*
X149814404Y-29836904D01*
X149814404Y-29836904D02*
X149909642Y-29789285D01*
X149909642Y-29789285D02*
X149957261Y-29741666D01*
X149957261Y-29741666D02*
X150004880Y-29646428D01*
X150004880Y-29646428D02*
X150004880Y-29408333D01*
X150004880Y-29408333D02*
X149957261Y-29313095D01*
X149957261Y-29313095D02*
X149909642Y-29265476D01*
%TO.C,D36*%
X152386130Y-46410714D02*
X151386130Y-46410714D01*
X151386130Y-46410714D02*
X151386130Y-46648809D01*
X151386130Y-46648809D02*
X151433750Y-46791666D01*
X151433750Y-46791666D02*
X151528988Y-46886904D01*
X151528988Y-46886904D02*
X151624226Y-46934523D01*
X151624226Y-46934523D02*
X151814702Y-46982142D01*
X151814702Y-46982142D02*
X151957559Y-46982142D01*
X151957559Y-46982142D02*
X152148035Y-46934523D01*
X152148035Y-46934523D02*
X152243273Y-46886904D01*
X152243273Y-46886904D02*
X152338511Y-46791666D01*
X152338511Y-46791666D02*
X152386130Y-46648809D01*
X152386130Y-46648809D02*
X152386130Y-46410714D01*
X151386130Y-47315476D02*
X151386130Y-47934523D01*
X151386130Y-47934523D02*
X151767083Y-47601190D01*
X151767083Y-47601190D02*
X151767083Y-47744047D01*
X151767083Y-47744047D02*
X151814702Y-47839285D01*
X151814702Y-47839285D02*
X151862321Y-47886904D01*
X151862321Y-47886904D02*
X151957559Y-47934523D01*
X151957559Y-47934523D02*
X152195654Y-47934523D01*
X152195654Y-47934523D02*
X152290892Y-47886904D01*
X152290892Y-47886904D02*
X152338511Y-47839285D01*
X152338511Y-47839285D02*
X152386130Y-47744047D01*
X152386130Y-47744047D02*
X152386130Y-47458333D01*
X152386130Y-47458333D02*
X152338511Y-47363095D01*
X152338511Y-47363095D02*
X152290892Y-47315476D01*
X151386130Y-48791666D02*
X151386130Y-48601190D01*
X151386130Y-48601190D02*
X151433750Y-48505952D01*
X151433750Y-48505952D02*
X151481369Y-48458333D01*
X151481369Y-48458333D02*
X151624226Y-48363095D01*
X151624226Y-48363095D02*
X151814702Y-48315476D01*
X151814702Y-48315476D02*
X152195654Y-48315476D01*
X152195654Y-48315476D02*
X152290892Y-48363095D01*
X152290892Y-48363095D02*
X152338511Y-48410714D01*
X152338511Y-48410714D02*
X152386130Y-48505952D01*
X152386130Y-48505952D02*
X152386130Y-48696428D01*
X152386130Y-48696428D02*
X152338511Y-48791666D01*
X152338511Y-48791666D02*
X152290892Y-48839285D01*
X152290892Y-48839285D02*
X152195654Y-48886904D01*
X152195654Y-48886904D02*
X151957559Y-48886904D01*
X151957559Y-48886904D02*
X151862321Y-48839285D01*
X151862321Y-48839285D02*
X151814702Y-48791666D01*
X151814702Y-48791666D02*
X151767083Y-48696428D01*
X151767083Y-48696428D02*
X151767083Y-48505952D01*
X151767083Y-48505952D02*
X151814702Y-48410714D01*
X151814702Y-48410714D02*
X151862321Y-48363095D01*
X151862321Y-48363095D02*
X151957559Y-48315476D01*
D11*
%TO.C,J1*%
X79427083Y2132619D02*
X79427083Y1418333D01*
X79427083Y1418333D02*
X79474702Y1275476D01*
X79474702Y1275476D02*
X79569940Y1180238D01*
X79569940Y1180238D02*
X79712797Y1132619D01*
X79712797Y1132619D02*
X79808035Y1132619D01*
X78427083Y1132619D02*
X78998511Y1132619D01*
X78712797Y1132619D02*
X78712797Y2132619D01*
X78712797Y2132619D02*
X78808035Y1989761D01*
X78808035Y1989761D02*
X78903273Y1894523D01*
X78903273Y1894523D02*
X78998511Y1846904D01*
D10*
%TO.C,C6*%
X57316666Y-35197142D02*
X57364285Y-35244761D01*
X57364285Y-35244761D02*
X57507142Y-35292380D01*
X57507142Y-35292380D02*
X57602380Y-35292380D01*
X57602380Y-35292380D02*
X57745237Y-35244761D01*
X57745237Y-35244761D02*
X57840475Y-35149523D01*
X57840475Y-35149523D02*
X57888094Y-35054285D01*
X57888094Y-35054285D02*
X57935713Y-34863809D01*
X57935713Y-34863809D02*
X57935713Y-34720952D01*
X57935713Y-34720952D02*
X57888094Y-34530476D01*
X57888094Y-34530476D02*
X57840475Y-34435238D01*
X57840475Y-34435238D02*
X57745237Y-34340000D01*
X57745237Y-34340000D02*
X57602380Y-34292380D01*
X57602380Y-34292380D02*
X57507142Y-34292380D01*
X57507142Y-34292380D02*
X57364285Y-34340000D01*
X57364285Y-34340000D02*
X57316666Y-34387619D01*
X56459523Y-34292380D02*
X56649999Y-34292380D01*
X56649999Y-34292380D02*
X56745237Y-34340000D01*
X56745237Y-34340000D02*
X56792856Y-34387619D01*
X56792856Y-34387619D02*
X56888094Y-34530476D01*
X56888094Y-34530476D02*
X56935713Y-34720952D01*
X56935713Y-34720952D02*
X56935713Y-35101904D01*
X56935713Y-35101904D02*
X56888094Y-35197142D01*
X56888094Y-35197142D02*
X56840475Y-35244761D01*
X56840475Y-35244761D02*
X56745237Y-35292380D01*
X56745237Y-35292380D02*
X56554761Y-35292380D01*
X56554761Y-35292380D02*
X56459523Y-35244761D01*
X56459523Y-35244761D02*
X56411904Y-35197142D01*
X56411904Y-35197142D02*
X56364285Y-35101904D01*
X56364285Y-35101904D02*
X56364285Y-34863809D01*
X56364285Y-34863809D02*
X56411904Y-34768571D01*
X56411904Y-34768571D02*
X56459523Y-34720952D01*
X56459523Y-34720952D02*
X56554761Y-34673333D01*
X56554761Y-34673333D02*
X56745237Y-34673333D01*
X56745237Y-34673333D02*
X56840475Y-34720952D01*
X56840475Y-34720952D02*
X56888094Y-34768571D01*
X56888094Y-34768571D02*
X56935713Y-34863809D01*
%TO.C,D43*%
X226204880Y-27360714D02*
X225204880Y-27360714D01*
X225204880Y-27360714D02*
X225204880Y-27598809D01*
X225204880Y-27598809D02*
X225252500Y-27741666D01*
X225252500Y-27741666D02*
X225347738Y-27836904D01*
X225347738Y-27836904D02*
X225442976Y-27884523D01*
X225442976Y-27884523D02*
X225633452Y-27932142D01*
X225633452Y-27932142D02*
X225776309Y-27932142D01*
X225776309Y-27932142D02*
X225966785Y-27884523D01*
X225966785Y-27884523D02*
X226062023Y-27836904D01*
X226062023Y-27836904D02*
X226157261Y-27741666D01*
X226157261Y-27741666D02*
X226204880Y-27598809D01*
X226204880Y-27598809D02*
X226204880Y-27360714D01*
X225538214Y-28789285D02*
X226204880Y-28789285D01*
X225157261Y-28551190D02*
X225871547Y-28313095D01*
X225871547Y-28313095D02*
X225871547Y-28932142D01*
X225204880Y-29217857D02*
X225204880Y-29836904D01*
X225204880Y-29836904D02*
X225585833Y-29503571D01*
X225585833Y-29503571D02*
X225585833Y-29646428D01*
X225585833Y-29646428D02*
X225633452Y-29741666D01*
X225633452Y-29741666D02*
X225681071Y-29789285D01*
X225681071Y-29789285D02*
X225776309Y-29836904D01*
X225776309Y-29836904D02*
X226014404Y-29836904D01*
X226014404Y-29836904D02*
X226109642Y-29789285D01*
X226109642Y-29789285D02*
X226157261Y-29741666D01*
X226157261Y-29741666D02*
X226204880Y-29646428D01*
X226204880Y-29646428D02*
X226204880Y-29360714D01*
X226204880Y-29360714D02*
X226157261Y-29265476D01*
X226157261Y-29265476D02*
X226109642Y-29217857D01*
%TO.C,D13*%
X24973630Y-8310714D02*
X23973630Y-8310714D01*
X23973630Y-8310714D02*
X23973630Y-8548809D01*
X23973630Y-8548809D02*
X24021250Y-8691666D01*
X24021250Y-8691666D02*
X24116488Y-8786904D01*
X24116488Y-8786904D02*
X24211726Y-8834523D01*
X24211726Y-8834523D02*
X24402202Y-8882142D01*
X24402202Y-8882142D02*
X24545059Y-8882142D01*
X24545059Y-8882142D02*
X24735535Y-8834523D01*
X24735535Y-8834523D02*
X24830773Y-8786904D01*
X24830773Y-8786904D02*
X24926011Y-8691666D01*
X24926011Y-8691666D02*
X24973630Y-8548809D01*
X24973630Y-8548809D02*
X24973630Y-8310714D01*
X24973630Y-9834523D02*
X24973630Y-9263095D01*
X24973630Y-9548809D02*
X23973630Y-9548809D01*
X23973630Y-9548809D02*
X24116488Y-9453571D01*
X24116488Y-9453571D02*
X24211726Y-9358333D01*
X24211726Y-9358333D02*
X24259345Y-9263095D01*
X23973630Y-10167857D02*
X23973630Y-10786904D01*
X23973630Y-10786904D02*
X24354583Y-10453571D01*
X24354583Y-10453571D02*
X24354583Y-10596428D01*
X24354583Y-10596428D02*
X24402202Y-10691666D01*
X24402202Y-10691666D02*
X24449821Y-10739285D01*
X24449821Y-10739285D02*
X24545059Y-10786904D01*
X24545059Y-10786904D02*
X24783154Y-10786904D01*
X24783154Y-10786904D02*
X24878392Y-10739285D01*
X24878392Y-10739285D02*
X24926011Y-10691666D01*
X24926011Y-10691666D02*
X24973630Y-10596428D01*
X24973630Y-10596428D02*
X24973630Y-10310714D01*
X24973630Y-10310714D02*
X24926011Y-10215476D01*
X24926011Y-10215476D02*
X24878392Y-10167857D01*
%TO.C,R4*%
X41006130Y-6977083D02*
X40529940Y-6643750D01*
X41006130Y-6405655D02*
X40006130Y-6405655D01*
X40006130Y-6405655D02*
X40006130Y-6786607D01*
X40006130Y-6786607D02*
X40053750Y-6881845D01*
X40053750Y-6881845D02*
X40101369Y-6929464D01*
X40101369Y-6929464D02*
X40196607Y-6977083D01*
X40196607Y-6977083D02*
X40339464Y-6977083D01*
X40339464Y-6977083D02*
X40434702Y-6929464D01*
X40434702Y-6929464D02*
X40482321Y-6881845D01*
X40482321Y-6881845D02*
X40529940Y-6786607D01*
X40529940Y-6786607D02*
X40529940Y-6405655D01*
X40339464Y-7834226D02*
X41006130Y-7834226D01*
X39958511Y-7596131D02*
X40672797Y-7358036D01*
X40672797Y-7358036D02*
X40672797Y-7977083D01*
%TO.C,C1*%
X62872916Y-20115892D02*
X62920535Y-20163511D01*
X62920535Y-20163511D02*
X63063392Y-20211130D01*
X63063392Y-20211130D02*
X63158630Y-20211130D01*
X63158630Y-20211130D02*
X63301487Y-20163511D01*
X63301487Y-20163511D02*
X63396725Y-20068273D01*
X63396725Y-20068273D02*
X63444344Y-19973035D01*
X63444344Y-19973035D02*
X63491963Y-19782559D01*
X63491963Y-19782559D02*
X63491963Y-19639702D01*
X63491963Y-19639702D02*
X63444344Y-19449226D01*
X63444344Y-19449226D02*
X63396725Y-19353988D01*
X63396725Y-19353988D02*
X63301487Y-19258750D01*
X63301487Y-19258750D02*
X63158630Y-19211130D01*
X63158630Y-19211130D02*
X63063392Y-19211130D01*
X63063392Y-19211130D02*
X62920535Y-19258750D01*
X62920535Y-19258750D02*
X62872916Y-19306369D01*
X61920535Y-20211130D02*
X62491963Y-20211130D01*
X62206249Y-20211130D02*
X62206249Y-19211130D01*
X62206249Y-19211130D02*
X62301487Y-19353988D01*
X62301487Y-19353988D02*
X62396725Y-19449226D01*
X62396725Y-19449226D02*
X62491963Y-19496845D01*
%TO.C,D23*%
X236047380Y-8310714D02*
X235047380Y-8310714D01*
X235047380Y-8310714D02*
X235047380Y-8548809D01*
X235047380Y-8548809D02*
X235095000Y-8691666D01*
X235095000Y-8691666D02*
X235190238Y-8786904D01*
X235190238Y-8786904D02*
X235285476Y-8834523D01*
X235285476Y-8834523D02*
X235475952Y-8882142D01*
X235475952Y-8882142D02*
X235618809Y-8882142D01*
X235618809Y-8882142D02*
X235809285Y-8834523D01*
X235809285Y-8834523D02*
X235904523Y-8786904D01*
X235904523Y-8786904D02*
X235999761Y-8691666D01*
X235999761Y-8691666D02*
X236047380Y-8548809D01*
X236047380Y-8548809D02*
X236047380Y-8310714D01*
X235142619Y-9263095D02*
X235095000Y-9310714D01*
X235095000Y-9310714D02*
X235047380Y-9405952D01*
X235047380Y-9405952D02*
X235047380Y-9644047D01*
X235047380Y-9644047D02*
X235095000Y-9739285D01*
X235095000Y-9739285D02*
X235142619Y-9786904D01*
X235142619Y-9786904D02*
X235237857Y-9834523D01*
X235237857Y-9834523D02*
X235333095Y-9834523D01*
X235333095Y-9834523D02*
X235475952Y-9786904D01*
X235475952Y-9786904D02*
X236047380Y-9215476D01*
X236047380Y-9215476D02*
X236047380Y-9834523D01*
X235047380Y-10167857D02*
X235047380Y-10786904D01*
X235047380Y-10786904D02*
X235428333Y-10453571D01*
X235428333Y-10453571D02*
X235428333Y-10596428D01*
X235428333Y-10596428D02*
X235475952Y-10691666D01*
X235475952Y-10691666D02*
X235523571Y-10739285D01*
X235523571Y-10739285D02*
X235618809Y-10786904D01*
X235618809Y-10786904D02*
X235856904Y-10786904D01*
X235856904Y-10786904D02*
X235952142Y-10739285D01*
X235952142Y-10739285D02*
X235999761Y-10691666D01*
X235999761Y-10691666D02*
X236047380Y-10596428D01*
X236047380Y-10596428D02*
X236047380Y-10310714D01*
X236047380Y-10310714D02*
X235999761Y-10215476D01*
X235999761Y-10215476D02*
X235952142Y-10167857D01*
%TO.C,C3*%
X62872916Y-22078392D02*
X62920535Y-22126011D01*
X62920535Y-22126011D02*
X63063392Y-22173630D01*
X63063392Y-22173630D02*
X63158630Y-22173630D01*
X63158630Y-22173630D02*
X63301487Y-22126011D01*
X63301487Y-22126011D02*
X63396725Y-22030773D01*
X63396725Y-22030773D02*
X63444344Y-21935535D01*
X63444344Y-21935535D02*
X63491963Y-21745059D01*
X63491963Y-21745059D02*
X63491963Y-21602202D01*
X63491963Y-21602202D02*
X63444344Y-21411726D01*
X63444344Y-21411726D02*
X63396725Y-21316488D01*
X63396725Y-21316488D02*
X63301487Y-21221250D01*
X63301487Y-21221250D02*
X63158630Y-21173630D01*
X63158630Y-21173630D02*
X63063392Y-21173630D01*
X63063392Y-21173630D02*
X62920535Y-21221250D01*
X62920535Y-21221250D02*
X62872916Y-21268869D01*
X62539582Y-21173630D02*
X61920535Y-21173630D01*
X61920535Y-21173630D02*
X62253868Y-21554583D01*
X62253868Y-21554583D02*
X62111011Y-21554583D01*
X62111011Y-21554583D02*
X62015773Y-21602202D01*
X62015773Y-21602202D02*
X61968154Y-21649821D01*
X61968154Y-21649821D02*
X61920535Y-21745059D01*
X61920535Y-21745059D02*
X61920535Y-21983154D01*
X61920535Y-21983154D02*
X61968154Y-22078392D01*
X61968154Y-22078392D02*
X62015773Y-22126011D01*
X62015773Y-22126011D02*
X62111011Y-22173630D01*
X62111011Y-22173630D02*
X62396725Y-22173630D01*
X62396725Y-22173630D02*
X62491963Y-22126011D01*
X62491963Y-22126011D02*
X62539582Y-22078392D01*
%TO.C,D31*%
X111904880Y-27360714D02*
X110904880Y-27360714D01*
X110904880Y-27360714D02*
X110904880Y-27598809D01*
X110904880Y-27598809D02*
X110952500Y-27741666D01*
X110952500Y-27741666D02*
X111047738Y-27836904D01*
X111047738Y-27836904D02*
X111142976Y-27884523D01*
X111142976Y-27884523D02*
X111333452Y-27932142D01*
X111333452Y-27932142D02*
X111476309Y-27932142D01*
X111476309Y-27932142D02*
X111666785Y-27884523D01*
X111666785Y-27884523D02*
X111762023Y-27836904D01*
X111762023Y-27836904D02*
X111857261Y-27741666D01*
X111857261Y-27741666D02*
X111904880Y-27598809D01*
X111904880Y-27598809D02*
X111904880Y-27360714D01*
X110904880Y-28265476D02*
X110904880Y-28884523D01*
X110904880Y-28884523D02*
X111285833Y-28551190D01*
X111285833Y-28551190D02*
X111285833Y-28694047D01*
X111285833Y-28694047D02*
X111333452Y-28789285D01*
X111333452Y-28789285D02*
X111381071Y-28836904D01*
X111381071Y-28836904D02*
X111476309Y-28884523D01*
X111476309Y-28884523D02*
X111714404Y-28884523D01*
X111714404Y-28884523D02*
X111809642Y-28836904D01*
X111809642Y-28836904D02*
X111857261Y-28789285D01*
X111857261Y-28789285D02*
X111904880Y-28694047D01*
X111904880Y-28694047D02*
X111904880Y-28408333D01*
X111904880Y-28408333D02*
X111857261Y-28313095D01*
X111857261Y-28313095D02*
X111809642Y-28265476D01*
X111904880Y-29836904D02*
X111904880Y-29265476D01*
X111904880Y-29551190D02*
X110904880Y-29551190D01*
X110904880Y-29551190D02*
X111047738Y-29455952D01*
X111047738Y-29455952D02*
X111142976Y-29360714D01*
X111142976Y-29360714D02*
X111190595Y-29265476D01*
%TO.C,D19*%
X159847380Y-8310714D02*
X158847380Y-8310714D01*
X158847380Y-8310714D02*
X158847380Y-8548809D01*
X158847380Y-8548809D02*
X158895000Y-8691666D01*
X158895000Y-8691666D02*
X158990238Y-8786904D01*
X158990238Y-8786904D02*
X159085476Y-8834523D01*
X159085476Y-8834523D02*
X159275952Y-8882142D01*
X159275952Y-8882142D02*
X159418809Y-8882142D01*
X159418809Y-8882142D02*
X159609285Y-8834523D01*
X159609285Y-8834523D02*
X159704523Y-8786904D01*
X159704523Y-8786904D02*
X159799761Y-8691666D01*
X159799761Y-8691666D02*
X159847380Y-8548809D01*
X159847380Y-8548809D02*
X159847380Y-8310714D01*
X159847380Y-9834523D02*
X159847380Y-9263095D01*
X159847380Y-9548809D02*
X158847380Y-9548809D01*
X158847380Y-9548809D02*
X158990238Y-9453571D01*
X158990238Y-9453571D02*
X159085476Y-9358333D01*
X159085476Y-9358333D02*
X159133095Y-9263095D01*
X159847380Y-10310714D02*
X159847380Y-10501190D01*
X159847380Y-10501190D02*
X159799761Y-10596428D01*
X159799761Y-10596428D02*
X159752142Y-10644047D01*
X159752142Y-10644047D02*
X159609285Y-10739285D01*
X159609285Y-10739285D02*
X159418809Y-10786904D01*
X159418809Y-10786904D02*
X159037857Y-10786904D01*
X159037857Y-10786904D02*
X158942619Y-10739285D01*
X158942619Y-10739285D02*
X158895000Y-10691666D01*
X158895000Y-10691666D02*
X158847380Y-10596428D01*
X158847380Y-10596428D02*
X158847380Y-10405952D01*
X158847380Y-10405952D02*
X158895000Y-10310714D01*
X158895000Y-10310714D02*
X158942619Y-10263095D01*
X158942619Y-10263095D02*
X159037857Y-10215476D01*
X159037857Y-10215476D02*
X159275952Y-10215476D01*
X159275952Y-10215476D02*
X159371190Y-10263095D01*
X159371190Y-10263095D02*
X159418809Y-10310714D01*
X159418809Y-10310714D02*
X159466428Y-10405952D01*
X159466428Y-10405952D02*
X159466428Y-10596428D01*
X159466428Y-10596428D02*
X159418809Y-10691666D01*
X159418809Y-10691666D02*
X159371190Y-10739285D01*
X159371190Y-10739285D02*
X159275952Y-10786904D01*
%TO.C,D9*%
X192867380Y10263094D02*
X191867380Y10263094D01*
X191867380Y10263094D02*
X191867380Y10024999D01*
X191867380Y10024999D02*
X191915000Y9882142D01*
X191915000Y9882142D02*
X192010238Y9786904D01*
X192010238Y9786904D02*
X192105476Y9739285D01*
X192105476Y9739285D02*
X192295952Y9691666D01*
X192295952Y9691666D02*
X192438809Y9691666D01*
X192438809Y9691666D02*
X192629285Y9739285D01*
X192629285Y9739285D02*
X192724523Y9786904D01*
X192724523Y9786904D02*
X192819761Y9882142D01*
X192819761Y9882142D02*
X192867380Y10024999D01*
X192867380Y10024999D02*
X192867380Y10263094D01*
X192867380Y9215475D02*
X192867380Y9024999D01*
X192867380Y9024999D02*
X192819761Y8929761D01*
X192819761Y8929761D02*
X192772142Y8882142D01*
X192772142Y8882142D02*
X192629285Y8786904D01*
X192629285Y8786904D02*
X192438809Y8739285D01*
X192438809Y8739285D02*
X192057857Y8739285D01*
X192057857Y8739285D02*
X191962619Y8786904D01*
X191962619Y8786904D02*
X191915000Y8834523D01*
X191915000Y8834523D02*
X191867380Y8929761D01*
X191867380Y8929761D02*
X191867380Y9120237D01*
X191867380Y9120237D02*
X191915000Y9215475D01*
X191915000Y9215475D02*
X191962619Y9263094D01*
X191962619Y9263094D02*
X192057857Y9310713D01*
X192057857Y9310713D02*
X192295952Y9310713D01*
X192295952Y9310713D02*
X192391190Y9263094D01*
X192391190Y9263094D02*
X192438809Y9215475D01*
X192438809Y9215475D02*
X192486428Y9120237D01*
X192486428Y9120237D02*
X192486428Y8929761D01*
X192486428Y8929761D02*
X192438809Y8834523D01*
X192438809Y8834523D02*
X192391190Y8786904D01*
X192391190Y8786904D02*
X192295952Y8739285D01*
%TO.C,D17*%
X121747380Y-8310714D02*
X120747380Y-8310714D01*
X120747380Y-8310714D02*
X120747380Y-8548809D01*
X120747380Y-8548809D02*
X120795000Y-8691666D01*
X120795000Y-8691666D02*
X120890238Y-8786904D01*
X120890238Y-8786904D02*
X120985476Y-8834523D01*
X120985476Y-8834523D02*
X121175952Y-8882142D01*
X121175952Y-8882142D02*
X121318809Y-8882142D01*
X121318809Y-8882142D02*
X121509285Y-8834523D01*
X121509285Y-8834523D02*
X121604523Y-8786904D01*
X121604523Y-8786904D02*
X121699761Y-8691666D01*
X121699761Y-8691666D02*
X121747380Y-8548809D01*
X121747380Y-8548809D02*
X121747380Y-8310714D01*
X121747380Y-9834523D02*
X121747380Y-9263095D01*
X121747380Y-9548809D02*
X120747380Y-9548809D01*
X120747380Y-9548809D02*
X120890238Y-9453571D01*
X120890238Y-9453571D02*
X120985476Y-9358333D01*
X120985476Y-9358333D02*
X121033095Y-9263095D01*
X120747380Y-10167857D02*
X120747380Y-10834523D01*
X120747380Y-10834523D02*
X121747380Y-10405952D01*
%TO.C,D29*%
X92854880Y-27360714D02*
X91854880Y-27360714D01*
X91854880Y-27360714D02*
X91854880Y-27598809D01*
X91854880Y-27598809D02*
X91902500Y-27741666D01*
X91902500Y-27741666D02*
X91997738Y-27836904D01*
X91997738Y-27836904D02*
X92092976Y-27884523D01*
X92092976Y-27884523D02*
X92283452Y-27932142D01*
X92283452Y-27932142D02*
X92426309Y-27932142D01*
X92426309Y-27932142D02*
X92616785Y-27884523D01*
X92616785Y-27884523D02*
X92712023Y-27836904D01*
X92712023Y-27836904D02*
X92807261Y-27741666D01*
X92807261Y-27741666D02*
X92854880Y-27598809D01*
X92854880Y-27598809D02*
X92854880Y-27360714D01*
X91950119Y-28313095D02*
X91902500Y-28360714D01*
X91902500Y-28360714D02*
X91854880Y-28455952D01*
X91854880Y-28455952D02*
X91854880Y-28694047D01*
X91854880Y-28694047D02*
X91902500Y-28789285D01*
X91902500Y-28789285D02*
X91950119Y-28836904D01*
X91950119Y-28836904D02*
X92045357Y-28884523D01*
X92045357Y-28884523D02*
X92140595Y-28884523D01*
X92140595Y-28884523D02*
X92283452Y-28836904D01*
X92283452Y-28836904D02*
X92854880Y-28265476D01*
X92854880Y-28265476D02*
X92854880Y-28884523D01*
X92854880Y-29360714D02*
X92854880Y-29551190D01*
X92854880Y-29551190D02*
X92807261Y-29646428D01*
X92807261Y-29646428D02*
X92759642Y-29694047D01*
X92759642Y-29694047D02*
X92616785Y-29789285D01*
X92616785Y-29789285D02*
X92426309Y-29836904D01*
X92426309Y-29836904D02*
X92045357Y-29836904D01*
X92045357Y-29836904D02*
X91950119Y-29789285D01*
X91950119Y-29789285D02*
X91902500Y-29741666D01*
X91902500Y-29741666D02*
X91854880Y-29646428D01*
X91854880Y-29646428D02*
X91854880Y-29455952D01*
X91854880Y-29455952D02*
X91902500Y-29360714D01*
X91902500Y-29360714D02*
X91950119Y-29313095D01*
X91950119Y-29313095D02*
X92045357Y-29265476D01*
X92045357Y-29265476D02*
X92283452Y-29265476D01*
X92283452Y-29265476D02*
X92378690Y-29313095D01*
X92378690Y-29313095D02*
X92426309Y-29360714D01*
X92426309Y-29360714D02*
X92473928Y-29455952D01*
X92473928Y-29455952D02*
X92473928Y-29646428D01*
X92473928Y-29646428D02*
X92426309Y-29741666D01*
X92426309Y-29741666D02*
X92378690Y-29789285D01*
X92378690Y-29789285D02*
X92283452Y-29836904D01*
%TO.C,SW1*%
X34670832Y-21532261D02*
X34527975Y-21579880D01*
X34527975Y-21579880D02*
X34289880Y-21579880D01*
X34289880Y-21579880D02*
X34194642Y-21532261D01*
X34194642Y-21532261D02*
X34147023Y-21484642D01*
X34147023Y-21484642D02*
X34099404Y-21389404D01*
X34099404Y-21389404D02*
X34099404Y-21294166D01*
X34099404Y-21294166D02*
X34147023Y-21198928D01*
X34147023Y-21198928D02*
X34194642Y-21151309D01*
X34194642Y-21151309D02*
X34289880Y-21103690D01*
X34289880Y-21103690D02*
X34480356Y-21056071D01*
X34480356Y-21056071D02*
X34575594Y-21008452D01*
X34575594Y-21008452D02*
X34623213Y-20960833D01*
X34623213Y-20960833D02*
X34670832Y-20865595D01*
X34670832Y-20865595D02*
X34670832Y-20770357D01*
X34670832Y-20770357D02*
X34623213Y-20675119D01*
X34623213Y-20675119D02*
X34575594Y-20627500D01*
X34575594Y-20627500D02*
X34480356Y-20579880D01*
X34480356Y-20579880D02*
X34242261Y-20579880D01*
X34242261Y-20579880D02*
X34099404Y-20627500D01*
X33766070Y-20579880D02*
X33527975Y-21579880D01*
X33527975Y-21579880D02*
X33337499Y-20865595D01*
X33337499Y-20865595D02*
X33147023Y-21579880D01*
X33147023Y-21579880D02*
X32908928Y-20579880D01*
X32004166Y-21579880D02*
X32575594Y-21579880D01*
X32289880Y-21579880D02*
X32289880Y-20579880D01*
X32289880Y-20579880D02*
X32385118Y-20722738D01*
X32385118Y-20722738D02*
X32480356Y-20817976D01*
X32480356Y-20817976D02*
X32575594Y-20865595D01*
%TO.C,D27*%
X73804880Y-27360714D02*
X72804880Y-27360714D01*
X72804880Y-27360714D02*
X72804880Y-27598809D01*
X72804880Y-27598809D02*
X72852500Y-27741666D01*
X72852500Y-27741666D02*
X72947738Y-27836904D01*
X72947738Y-27836904D02*
X73042976Y-27884523D01*
X73042976Y-27884523D02*
X73233452Y-27932142D01*
X73233452Y-27932142D02*
X73376309Y-27932142D01*
X73376309Y-27932142D02*
X73566785Y-27884523D01*
X73566785Y-27884523D02*
X73662023Y-27836904D01*
X73662023Y-27836904D02*
X73757261Y-27741666D01*
X73757261Y-27741666D02*
X73804880Y-27598809D01*
X73804880Y-27598809D02*
X73804880Y-27360714D01*
X72900119Y-28313095D02*
X72852500Y-28360714D01*
X72852500Y-28360714D02*
X72804880Y-28455952D01*
X72804880Y-28455952D02*
X72804880Y-28694047D01*
X72804880Y-28694047D02*
X72852500Y-28789285D01*
X72852500Y-28789285D02*
X72900119Y-28836904D01*
X72900119Y-28836904D02*
X72995357Y-28884523D01*
X72995357Y-28884523D02*
X73090595Y-28884523D01*
X73090595Y-28884523D02*
X73233452Y-28836904D01*
X73233452Y-28836904D02*
X73804880Y-28265476D01*
X73804880Y-28265476D02*
X73804880Y-28884523D01*
X72804880Y-29217857D02*
X72804880Y-29884523D01*
X72804880Y-29884523D02*
X73804880Y-29455952D01*
%TO.C,D45*%
X245254880Y-27360714D02*
X244254880Y-27360714D01*
X244254880Y-27360714D02*
X244254880Y-27598809D01*
X244254880Y-27598809D02*
X244302500Y-27741666D01*
X244302500Y-27741666D02*
X244397738Y-27836904D01*
X244397738Y-27836904D02*
X244492976Y-27884523D01*
X244492976Y-27884523D02*
X244683452Y-27932142D01*
X244683452Y-27932142D02*
X244826309Y-27932142D01*
X244826309Y-27932142D02*
X245016785Y-27884523D01*
X245016785Y-27884523D02*
X245112023Y-27836904D01*
X245112023Y-27836904D02*
X245207261Y-27741666D01*
X245207261Y-27741666D02*
X245254880Y-27598809D01*
X245254880Y-27598809D02*
X245254880Y-27360714D01*
X244588214Y-28789285D02*
X245254880Y-28789285D01*
X244207261Y-28551190D02*
X244921547Y-28313095D01*
X244921547Y-28313095D02*
X244921547Y-28932142D01*
X244254880Y-29789285D02*
X244254880Y-29313095D01*
X244254880Y-29313095D02*
X244731071Y-29265476D01*
X244731071Y-29265476D02*
X244683452Y-29313095D01*
X244683452Y-29313095D02*
X244635833Y-29408333D01*
X244635833Y-29408333D02*
X244635833Y-29646428D01*
X244635833Y-29646428D02*
X244683452Y-29741666D01*
X244683452Y-29741666D02*
X244731071Y-29789285D01*
X244731071Y-29789285D02*
X244826309Y-29836904D01*
X244826309Y-29836904D02*
X245064404Y-29836904D01*
X245064404Y-29836904D02*
X245159642Y-29789285D01*
X245159642Y-29789285D02*
X245207261Y-29741666D01*
X245207261Y-29741666D02*
X245254880Y-29646428D01*
X245254880Y-29646428D02*
X245254880Y-29408333D01*
X245254880Y-29408333D02*
X245207261Y-29313095D01*
X245207261Y-29313095D02*
X245159642Y-29265476D01*
%TO.C,R1*%
X38624880Y-12533333D02*
X38148690Y-12200000D01*
X38624880Y-11961905D02*
X37624880Y-11961905D01*
X37624880Y-11961905D02*
X37624880Y-12342857D01*
X37624880Y-12342857D02*
X37672500Y-12438095D01*
X37672500Y-12438095D02*
X37720119Y-12485714D01*
X37720119Y-12485714D02*
X37815357Y-12533333D01*
X37815357Y-12533333D02*
X37958214Y-12533333D01*
X37958214Y-12533333D02*
X38053452Y-12485714D01*
X38053452Y-12485714D02*
X38101071Y-12438095D01*
X38101071Y-12438095D02*
X38148690Y-12342857D01*
X38148690Y-12342857D02*
X38148690Y-11961905D01*
X38624880Y-13485714D02*
X38624880Y-12914286D01*
X38624880Y-13200000D02*
X37624880Y-13200000D01*
X37624880Y-13200000D02*
X37767738Y-13104762D01*
X37767738Y-13104762D02*
X37862976Y-13009524D01*
X37862976Y-13009524D02*
X37910595Y-12914286D01*
%TO.C,D7*%
X154767380Y10263094D02*
X153767380Y10263094D01*
X153767380Y10263094D02*
X153767380Y10024999D01*
X153767380Y10024999D02*
X153815000Y9882142D01*
X153815000Y9882142D02*
X153910238Y9786904D01*
X153910238Y9786904D02*
X154005476Y9739285D01*
X154005476Y9739285D02*
X154195952Y9691666D01*
X154195952Y9691666D02*
X154338809Y9691666D01*
X154338809Y9691666D02*
X154529285Y9739285D01*
X154529285Y9739285D02*
X154624523Y9786904D01*
X154624523Y9786904D02*
X154719761Y9882142D01*
X154719761Y9882142D02*
X154767380Y10024999D01*
X154767380Y10024999D02*
X154767380Y10263094D01*
X153767380Y9358332D02*
X153767380Y8691666D01*
X153767380Y8691666D02*
X154767380Y9120237D01*
%TO.C,D11*%
X230967380Y10739285D02*
X229967380Y10739285D01*
X229967380Y10739285D02*
X229967380Y10501190D01*
X229967380Y10501190D02*
X230015000Y10358333D01*
X230015000Y10358333D02*
X230110238Y10263095D01*
X230110238Y10263095D02*
X230205476Y10215476D01*
X230205476Y10215476D02*
X230395952Y10167857D01*
X230395952Y10167857D02*
X230538809Y10167857D01*
X230538809Y10167857D02*
X230729285Y10215476D01*
X230729285Y10215476D02*
X230824523Y10263095D01*
X230824523Y10263095D02*
X230919761Y10358333D01*
X230919761Y10358333D02*
X230967380Y10501190D01*
X230967380Y10501190D02*
X230967380Y10739285D01*
X230967380Y9215476D02*
X230967380Y9786904D01*
X230967380Y9501190D02*
X229967380Y9501190D01*
X229967380Y9501190D02*
X230110238Y9596428D01*
X230110238Y9596428D02*
X230205476Y9691666D01*
X230205476Y9691666D02*
X230253095Y9786904D01*
X230967380Y8263095D02*
X230967380Y8834523D01*
X230967380Y8548809D02*
X229967380Y8548809D01*
X229967380Y8548809D02*
X230110238Y8644047D01*
X230110238Y8644047D02*
X230205476Y8739285D01*
X230205476Y8739285D02*
X230253095Y8834523D01*
%TO.C,D44*%
X223823630Y-46410714D02*
X222823630Y-46410714D01*
X222823630Y-46410714D02*
X222823630Y-46648809D01*
X222823630Y-46648809D02*
X222871250Y-46791666D01*
X222871250Y-46791666D02*
X222966488Y-46886904D01*
X222966488Y-46886904D02*
X223061726Y-46934523D01*
X223061726Y-46934523D02*
X223252202Y-46982142D01*
X223252202Y-46982142D02*
X223395059Y-46982142D01*
X223395059Y-46982142D02*
X223585535Y-46934523D01*
X223585535Y-46934523D02*
X223680773Y-46886904D01*
X223680773Y-46886904D02*
X223776011Y-46791666D01*
X223776011Y-46791666D02*
X223823630Y-46648809D01*
X223823630Y-46648809D02*
X223823630Y-46410714D01*
X223156964Y-47839285D02*
X223823630Y-47839285D01*
X222776011Y-47601190D02*
X223490297Y-47363095D01*
X223490297Y-47363095D02*
X223490297Y-47982142D01*
X223156964Y-48791666D02*
X223823630Y-48791666D01*
X222776011Y-48553571D02*
X223490297Y-48315476D01*
X223490297Y-48315476D02*
X223490297Y-48934523D01*
%TO.C,C4*%
X62872916Y-23665892D02*
X62920535Y-23713511D01*
X62920535Y-23713511D02*
X63063392Y-23761130D01*
X63063392Y-23761130D02*
X63158630Y-23761130D01*
X63158630Y-23761130D02*
X63301487Y-23713511D01*
X63301487Y-23713511D02*
X63396725Y-23618273D01*
X63396725Y-23618273D02*
X63444344Y-23523035D01*
X63444344Y-23523035D02*
X63491963Y-23332559D01*
X63491963Y-23332559D02*
X63491963Y-23189702D01*
X63491963Y-23189702D02*
X63444344Y-22999226D01*
X63444344Y-22999226D02*
X63396725Y-22903988D01*
X63396725Y-22903988D02*
X63301487Y-22808750D01*
X63301487Y-22808750D02*
X63158630Y-22761130D01*
X63158630Y-22761130D02*
X63063392Y-22761130D01*
X63063392Y-22761130D02*
X62920535Y-22808750D01*
X62920535Y-22808750D02*
X62872916Y-22856369D01*
X62015773Y-23094464D02*
X62015773Y-23761130D01*
X62253868Y-22713511D02*
X62491963Y-23427797D01*
X62491963Y-23427797D02*
X61872916Y-23427797D01*
%TO.C,D5*%
X116667380Y10263094D02*
X115667380Y10263094D01*
X115667380Y10263094D02*
X115667380Y10024999D01*
X115667380Y10024999D02*
X115715000Y9882142D01*
X115715000Y9882142D02*
X115810238Y9786904D01*
X115810238Y9786904D02*
X115905476Y9739285D01*
X115905476Y9739285D02*
X116095952Y9691666D01*
X116095952Y9691666D02*
X116238809Y9691666D01*
X116238809Y9691666D02*
X116429285Y9739285D01*
X116429285Y9739285D02*
X116524523Y9786904D01*
X116524523Y9786904D02*
X116619761Y9882142D01*
X116619761Y9882142D02*
X116667380Y10024999D01*
X116667380Y10024999D02*
X116667380Y10263094D01*
X115667380Y8786904D02*
X115667380Y9263094D01*
X115667380Y9263094D02*
X116143571Y9310713D01*
X116143571Y9310713D02*
X116095952Y9263094D01*
X116095952Y9263094D02*
X116048333Y9167856D01*
X116048333Y9167856D02*
X116048333Y8929761D01*
X116048333Y8929761D02*
X116095952Y8834523D01*
X116095952Y8834523D02*
X116143571Y8786904D01*
X116143571Y8786904D02*
X116238809Y8739285D01*
X116238809Y8739285D02*
X116476904Y8739285D01*
X116476904Y8739285D02*
X116572142Y8786904D01*
X116572142Y8786904D02*
X116619761Y8834523D01*
X116619761Y8834523D02*
X116667380Y8929761D01*
X116667380Y8929761D02*
X116667380Y9167856D01*
X116667380Y9167856D02*
X116619761Y9263094D01*
X116619761Y9263094D02*
X116572142Y9310713D01*
%TO.C,D3*%
X78567380Y10263094D02*
X77567380Y10263094D01*
X77567380Y10263094D02*
X77567380Y10024999D01*
X77567380Y10024999D02*
X77615000Y9882142D01*
X77615000Y9882142D02*
X77710238Y9786904D01*
X77710238Y9786904D02*
X77805476Y9739285D01*
X77805476Y9739285D02*
X77995952Y9691666D01*
X77995952Y9691666D02*
X78138809Y9691666D01*
X78138809Y9691666D02*
X78329285Y9739285D01*
X78329285Y9739285D02*
X78424523Y9786904D01*
X78424523Y9786904D02*
X78519761Y9882142D01*
X78519761Y9882142D02*
X78567380Y10024999D01*
X78567380Y10024999D02*
X78567380Y10263094D01*
X77567380Y9358332D02*
X77567380Y8739285D01*
X77567380Y8739285D02*
X77948333Y9072618D01*
X77948333Y9072618D02*
X77948333Y8929761D01*
X77948333Y8929761D02*
X77995952Y8834523D01*
X77995952Y8834523D02*
X78043571Y8786904D01*
X78043571Y8786904D02*
X78138809Y8739285D01*
X78138809Y8739285D02*
X78376904Y8739285D01*
X78376904Y8739285D02*
X78472142Y8786904D01*
X78472142Y8786904D02*
X78519761Y8834523D01*
X78519761Y8834523D02*
X78567380Y8929761D01*
X78567380Y8929761D02*
X78567380Y9215475D01*
X78567380Y9215475D02*
X78519761Y9310713D01*
X78519761Y9310713D02*
X78472142Y9358332D01*
%TO.C,D28*%
X57136130Y-46410714D02*
X56136130Y-46410714D01*
X56136130Y-46410714D02*
X56136130Y-46648809D01*
X56136130Y-46648809D02*
X56183750Y-46791666D01*
X56183750Y-46791666D02*
X56278988Y-46886904D01*
X56278988Y-46886904D02*
X56374226Y-46934523D01*
X56374226Y-46934523D02*
X56564702Y-46982142D01*
X56564702Y-46982142D02*
X56707559Y-46982142D01*
X56707559Y-46982142D02*
X56898035Y-46934523D01*
X56898035Y-46934523D02*
X56993273Y-46886904D01*
X56993273Y-46886904D02*
X57088511Y-46791666D01*
X57088511Y-46791666D02*
X57136130Y-46648809D01*
X57136130Y-46648809D02*
X57136130Y-46410714D01*
X56231369Y-47363095D02*
X56183750Y-47410714D01*
X56183750Y-47410714D02*
X56136130Y-47505952D01*
X56136130Y-47505952D02*
X56136130Y-47744047D01*
X56136130Y-47744047D02*
X56183750Y-47839285D01*
X56183750Y-47839285D02*
X56231369Y-47886904D01*
X56231369Y-47886904D02*
X56326607Y-47934523D01*
X56326607Y-47934523D02*
X56421845Y-47934523D01*
X56421845Y-47934523D02*
X56564702Y-47886904D01*
X56564702Y-47886904D02*
X57136130Y-47315476D01*
X57136130Y-47315476D02*
X57136130Y-47934523D01*
X56564702Y-48505952D02*
X56517083Y-48410714D01*
X56517083Y-48410714D02*
X56469464Y-48363095D01*
X56469464Y-48363095D02*
X56374226Y-48315476D01*
X56374226Y-48315476D02*
X56326607Y-48315476D01*
X56326607Y-48315476D02*
X56231369Y-48363095D01*
X56231369Y-48363095D02*
X56183750Y-48410714D01*
X56183750Y-48410714D02*
X56136130Y-48505952D01*
X56136130Y-48505952D02*
X56136130Y-48696428D01*
X56136130Y-48696428D02*
X56183750Y-48791666D01*
X56183750Y-48791666D02*
X56231369Y-48839285D01*
X56231369Y-48839285D02*
X56326607Y-48886904D01*
X56326607Y-48886904D02*
X56374226Y-48886904D01*
X56374226Y-48886904D02*
X56469464Y-48839285D01*
X56469464Y-48839285D02*
X56517083Y-48791666D01*
X56517083Y-48791666D02*
X56564702Y-48696428D01*
X56564702Y-48696428D02*
X56564702Y-48505952D01*
X56564702Y-48505952D02*
X56612321Y-48410714D01*
X56612321Y-48410714D02*
X56659940Y-48363095D01*
X56659940Y-48363095D02*
X56755178Y-48315476D01*
X56755178Y-48315476D02*
X56945654Y-48315476D01*
X56945654Y-48315476D02*
X57040892Y-48363095D01*
X57040892Y-48363095D02*
X57088511Y-48410714D01*
X57088511Y-48410714D02*
X57136130Y-48505952D01*
X57136130Y-48505952D02*
X57136130Y-48696428D01*
X57136130Y-48696428D02*
X57088511Y-48791666D01*
X57088511Y-48791666D02*
X57040892Y-48839285D01*
X57040892Y-48839285D02*
X56945654Y-48886904D01*
X56945654Y-48886904D02*
X56755178Y-48886904D01*
X56755178Y-48886904D02*
X56659940Y-48839285D01*
X56659940Y-48839285D02*
X56612321Y-48791666D01*
X56612321Y-48791666D02*
X56564702Y-48696428D01*
%TO.C,D32*%
X97617380Y-46410714D02*
X96617380Y-46410714D01*
X96617380Y-46410714D02*
X96617380Y-46648809D01*
X96617380Y-46648809D02*
X96665000Y-46791666D01*
X96665000Y-46791666D02*
X96760238Y-46886904D01*
X96760238Y-46886904D02*
X96855476Y-46934523D01*
X96855476Y-46934523D02*
X97045952Y-46982142D01*
X97045952Y-46982142D02*
X97188809Y-46982142D01*
X97188809Y-46982142D02*
X97379285Y-46934523D01*
X97379285Y-46934523D02*
X97474523Y-46886904D01*
X97474523Y-46886904D02*
X97569761Y-46791666D01*
X97569761Y-46791666D02*
X97617380Y-46648809D01*
X97617380Y-46648809D02*
X97617380Y-46410714D01*
X96617380Y-47315476D02*
X96617380Y-47934523D01*
X96617380Y-47934523D02*
X96998333Y-47601190D01*
X96998333Y-47601190D02*
X96998333Y-47744047D01*
X96998333Y-47744047D02*
X97045952Y-47839285D01*
X97045952Y-47839285D02*
X97093571Y-47886904D01*
X97093571Y-47886904D02*
X97188809Y-47934523D01*
X97188809Y-47934523D02*
X97426904Y-47934523D01*
X97426904Y-47934523D02*
X97522142Y-47886904D01*
X97522142Y-47886904D02*
X97569761Y-47839285D01*
X97569761Y-47839285D02*
X97617380Y-47744047D01*
X97617380Y-47744047D02*
X97617380Y-47458333D01*
X97617380Y-47458333D02*
X97569761Y-47363095D01*
X97569761Y-47363095D02*
X97522142Y-47315476D01*
X96712619Y-48315476D02*
X96665000Y-48363095D01*
X96665000Y-48363095D02*
X96617380Y-48458333D01*
X96617380Y-48458333D02*
X96617380Y-48696428D01*
X96617380Y-48696428D02*
X96665000Y-48791666D01*
X96665000Y-48791666D02*
X96712619Y-48839285D01*
X96712619Y-48839285D02*
X96807857Y-48886904D01*
X96807857Y-48886904D02*
X96903095Y-48886904D01*
X96903095Y-48886904D02*
X97045952Y-48839285D01*
X97045952Y-48839285D02*
X97617380Y-48267857D01*
X97617380Y-48267857D02*
X97617380Y-48886904D01*
%TO.C,D6*%
X135717380Y10263094D02*
X134717380Y10263094D01*
X134717380Y10263094D02*
X134717380Y10024999D01*
X134717380Y10024999D02*
X134765000Y9882142D01*
X134765000Y9882142D02*
X134860238Y9786904D01*
X134860238Y9786904D02*
X134955476Y9739285D01*
X134955476Y9739285D02*
X135145952Y9691666D01*
X135145952Y9691666D02*
X135288809Y9691666D01*
X135288809Y9691666D02*
X135479285Y9739285D01*
X135479285Y9739285D02*
X135574523Y9786904D01*
X135574523Y9786904D02*
X135669761Y9882142D01*
X135669761Y9882142D02*
X135717380Y10024999D01*
X135717380Y10024999D02*
X135717380Y10263094D01*
X134717380Y8834523D02*
X134717380Y9024999D01*
X134717380Y9024999D02*
X134765000Y9120237D01*
X134765000Y9120237D02*
X134812619Y9167856D01*
X134812619Y9167856D02*
X134955476Y9263094D01*
X134955476Y9263094D02*
X135145952Y9310713D01*
X135145952Y9310713D02*
X135526904Y9310713D01*
X135526904Y9310713D02*
X135622142Y9263094D01*
X135622142Y9263094D02*
X135669761Y9215475D01*
X135669761Y9215475D02*
X135717380Y9120237D01*
X135717380Y9120237D02*
X135717380Y8929761D01*
X135717380Y8929761D02*
X135669761Y8834523D01*
X135669761Y8834523D02*
X135622142Y8786904D01*
X135622142Y8786904D02*
X135526904Y8739285D01*
X135526904Y8739285D02*
X135288809Y8739285D01*
X135288809Y8739285D02*
X135193571Y8786904D01*
X135193571Y8786904D02*
X135145952Y8834523D01*
X135145952Y8834523D02*
X135098333Y8929761D01*
X135098333Y8929761D02*
X135098333Y9120237D01*
X135098333Y9120237D02*
X135145952Y9215475D01*
X135145952Y9215475D02*
X135193571Y9263094D01*
X135193571Y9263094D02*
X135288809Y9310713D01*
%TO.C,D20*%
X178897380Y-8310714D02*
X177897380Y-8310714D01*
X177897380Y-8310714D02*
X177897380Y-8548809D01*
X177897380Y-8548809D02*
X177945000Y-8691666D01*
X177945000Y-8691666D02*
X178040238Y-8786904D01*
X178040238Y-8786904D02*
X178135476Y-8834523D01*
X178135476Y-8834523D02*
X178325952Y-8882142D01*
X178325952Y-8882142D02*
X178468809Y-8882142D01*
X178468809Y-8882142D02*
X178659285Y-8834523D01*
X178659285Y-8834523D02*
X178754523Y-8786904D01*
X178754523Y-8786904D02*
X178849761Y-8691666D01*
X178849761Y-8691666D02*
X178897380Y-8548809D01*
X178897380Y-8548809D02*
X178897380Y-8310714D01*
X177992619Y-9263095D02*
X177945000Y-9310714D01*
X177945000Y-9310714D02*
X177897380Y-9405952D01*
X177897380Y-9405952D02*
X177897380Y-9644047D01*
X177897380Y-9644047D02*
X177945000Y-9739285D01*
X177945000Y-9739285D02*
X177992619Y-9786904D01*
X177992619Y-9786904D02*
X178087857Y-9834523D01*
X178087857Y-9834523D02*
X178183095Y-9834523D01*
X178183095Y-9834523D02*
X178325952Y-9786904D01*
X178325952Y-9786904D02*
X178897380Y-9215476D01*
X178897380Y-9215476D02*
X178897380Y-9834523D01*
X177897380Y-10453571D02*
X177897380Y-10548809D01*
X177897380Y-10548809D02*
X177945000Y-10644047D01*
X177945000Y-10644047D02*
X177992619Y-10691666D01*
X177992619Y-10691666D02*
X178087857Y-10739285D01*
X178087857Y-10739285D02*
X178278333Y-10786904D01*
X178278333Y-10786904D02*
X178516428Y-10786904D01*
X178516428Y-10786904D02*
X178706904Y-10739285D01*
X178706904Y-10739285D02*
X178802142Y-10691666D01*
X178802142Y-10691666D02*
X178849761Y-10644047D01*
X178849761Y-10644047D02*
X178897380Y-10548809D01*
X178897380Y-10548809D02*
X178897380Y-10453571D01*
X178897380Y-10453571D02*
X178849761Y-10358333D01*
X178849761Y-10358333D02*
X178802142Y-10310714D01*
X178802142Y-10310714D02*
X178706904Y-10263095D01*
X178706904Y-10263095D02*
X178516428Y-10215476D01*
X178516428Y-10215476D02*
X178278333Y-10215476D01*
X178278333Y-10215476D02*
X178087857Y-10263095D01*
X178087857Y-10263095D02*
X177992619Y-10310714D01*
X177992619Y-10310714D02*
X177945000Y-10358333D01*
X177945000Y-10358333D02*
X177897380Y-10453571D01*
%TO.C,D16*%
X102697380Y-8310714D02*
X101697380Y-8310714D01*
X101697380Y-8310714D02*
X101697380Y-8548809D01*
X101697380Y-8548809D02*
X101745000Y-8691666D01*
X101745000Y-8691666D02*
X101840238Y-8786904D01*
X101840238Y-8786904D02*
X101935476Y-8834523D01*
X101935476Y-8834523D02*
X102125952Y-8882142D01*
X102125952Y-8882142D02*
X102268809Y-8882142D01*
X102268809Y-8882142D02*
X102459285Y-8834523D01*
X102459285Y-8834523D02*
X102554523Y-8786904D01*
X102554523Y-8786904D02*
X102649761Y-8691666D01*
X102649761Y-8691666D02*
X102697380Y-8548809D01*
X102697380Y-8548809D02*
X102697380Y-8310714D01*
X102697380Y-9834523D02*
X102697380Y-9263095D01*
X102697380Y-9548809D02*
X101697380Y-9548809D01*
X101697380Y-9548809D02*
X101840238Y-9453571D01*
X101840238Y-9453571D02*
X101935476Y-9358333D01*
X101935476Y-9358333D02*
X101983095Y-9263095D01*
X101697380Y-10691666D02*
X101697380Y-10501190D01*
X101697380Y-10501190D02*
X101745000Y-10405952D01*
X101745000Y-10405952D02*
X101792619Y-10358333D01*
X101792619Y-10358333D02*
X101935476Y-10263095D01*
X101935476Y-10263095D02*
X102125952Y-10215476D01*
X102125952Y-10215476D02*
X102506904Y-10215476D01*
X102506904Y-10215476D02*
X102602142Y-10263095D01*
X102602142Y-10263095D02*
X102649761Y-10310714D01*
X102649761Y-10310714D02*
X102697380Y-10405952D01*
X102697380Y-10405952D02*
X102697380Y-10596428D01*
X102697380Y-10596428D02*
X102649761Y-10691666D01*
X102649761Y-10691666D02*
X102602142Y-10739285D01*
X102602142Y-10739285D02*
X102506904Y-10786904D01*
X102506904Y-10786904D02*
X102268809Y-10786904D01*
X102268809Y-10786904D02*
X102173571Y-10739285D01*
X102173571Y-10739285D02*
X102125952Y-10691666D01*
X102125952Y-10691666D02*
X102078333Y-10596428D01*
X102078333Y-10596428D02*
X102078333Y-10405952D01*
X102078333Y-10405952D02*
X102125952Y-10310714D01*
X102125952Y-10310714D02*
X102173571Y-10263095D01*
X102173571Y-10263095D02*
X102268809Y-10215476D01*
%TO.C,D41*%
X207154880Y-27360714D02*
X206154880Y-27360714D01*
X206154880Y-27360714D02*
X206154880Y-27598809D01*
X206154880Y-27598809D02*
X206202500Y-27741666D01*
X206202500Y-27741666D02*
X206297738Y-27836904D01*
X206297738Y-27836904D02*
X206392976Y-27884523D01*
X206392976Y-27884523D02*
X206583452Y-27932142D01*
X206583452Y-27932142D02*
X206726309Y-27932142D01*
X206726309Y-27932142D02*
X206916785Y-27884523D01*
X206916785Y-27884523D02*
X207012023Y-27836904D01*
X207012023Y-27836904D02*
X207107261Y-27741666D01*
X207107261Y-27741666D02*
X207154880Y-27598809D01*
X207154880Y-27598809D02*
X207154880Y-27360714D01*
X206488214Y-28789285D02*
X207154880Y-28789285D01*
X206107261Y-28551190D02*
X206821547Y-28313095D01*
X206821547Y-28313095D02*
X206821547Y-28932142D01*
X207154880Y-29836904D02*
X207154880Y-29265476D01*
X207154880Y-29551190D02*
X206154880Y-29551190D01*
X206154880Y-29551190D02*
X206297738Y-29455952D01*
X206297738Y-29455952D02*
X206392976Y-29360714D01*
X206392976Y-29360714D02*
X206440595Y-29265476D01*
%TO.C,D8*%
X173817380Y10263094D02*
X172817380Y10263094D01*
X172817380Y10263094D02*
X172817380Y10024999D01*
X172817380Y10024999D02*
X172865000Y9882142D01*
X172865000Y9882142D02*
X172960238Y9786904D01*
X172960238Y9786904D02*
X173055476Y9739285D01*
X173055476Y9739285D02*
X173245952Y9691666D01*
X173245952Y9691666D02*
X173388809Y9691666D01*
X173388809Y9691666D02*
X173579285Y9739285D01*
X173579285Y9739285D02*
X173674523Y9786904D01*
X173674523Y9786904D02*
X173769761Y9882142D01*
X173769761Y9882142D02*
X173817380Y10024999D01*
X173817380Y10024999D02*
X173817380Y10263094D01*
X173245952Y9120237D02*
X173198333Y9215475D01*
X173198333Y9215475D02*
X173150714Y9263094D01*
X173150714Y9263094D02*
X173055476Y9310713D01*
X173055476Y9310713D02*
X173007857Y9310713D01*
X173007857Y9310713D02*
X172912619Y9263094D01*
X172912619Y9263094D02*
X172865000Y9215475D01*
X172865000Y9215475D02*
X172817380Y9120237D01*
X172817380Y9120237D02*
X172817380Y8929761D01*
X172817380Y8929761D02*
X172865000Y8834523D01*
X172865000Y8834523D02*
X172912619Y8786904D01*
X172912619Y8786904D02*
X173007857Y8739285D01*
X173007857Y8739285D02*
X173055476Y8739285D01*
X173055476Y8739285D02*
X173150714Y8786904D01*
X173150714Y8786904D02*
X173198333Y8834523D01*
X173198333Y8834523D02*
X173245952Y8929761D01*
X173245952Y8929761D02*
X173245952Y9120237D01*
X173245952Y9120237D02*
X173293571Y9215475D01*
X173293571Y9215475D02*
X173341190Y9263094D01*
X173341190Y9263094D02*
X173436428Y9310713D01*
X173436428Y9310713D02*
X173626904Y9310713D01*
X173626904Y9310713D02*
X173722142Y9263094D01*
X173722142Y9263094D02*
X173769761Y9215475D01*
X173769761Y9215475D02*
X173817380Y9120237D01*
X173817380Y9120237D02*
X173817380Y8929761D01*
X173817380Y8929761D02*
X173769761Y8834523D01*
X173769761Y8834523D02*
X173722142Y8786904D01*
X173722142Y8786904D02*
X173626904Y8739285D01*
X173626904Y8739285D02*
X173436428Y8739285D01*
X173436428Y8739285D02*
X173341190Y8786904D01*
X173341190Y8786904D02*
X173293571Y8834523D01*
X173293571Y8834523D02*
X173245952Y8929761D01*
%TO.C,C2*%
X46997916Y-29640892D02*
X47045535Y-29688511D01*
X47045535Y-29688511D02*
X47188392Y-29736130D01*
X47188392Y-29736130D02*
X47283630Y-29736130D01*
X47283630Y-29736130D02*
X47426487Y-29688511D01*
X47426487Y-29688511D02*
X47521725Y-29593273D01*
X47521725Y-29593273D02*
X47569344Y-29498035D01*
X47569344Y-29498035D02*
X47616963Y-29307559D01*
X47616963Y-29307559D02*
X47616963Y-29164702D01*
X47616963Y-29164702D02*
X47569344Y-28974226D01*
X47569344Y-28974226D02*
X47521725Y-28878988D01*
X47521725Y-28878988D02*
X47426487Y-28783750D01*
X47426487Y-28783750D02*
X47283630Y-28736130D01*
X47283630Y-28736130D02*
X47188392Y-28736130D01*
X47188392Y-28736130D02*
X47045535Y-28783750D01*
X47045535Y-28783750D02*
X46997916Y-28831369D01*
X46616963Y-28831369D02*
X46569344Y-28783750D01*
X46569344Y-28783750D02*
X46474106Y-28736130D01*
X46474106Y-28736130D02*
X46236011Y-28736130D01*
X46236011Y-28736130D02*
X46140773Y-28783750D01*
X46140773Y-28783750D02*
X46093154Y-28831369D01*
X46093154Y-28831369D02*
X46045535Y-28926607D01*
X46045535Y-28926607D02*
X46045535Y-29021845D01*
X46045535Y-29021845D02*
X46093154Y-29164702D01*
X46093154Y-29164702D02*
X46664582Y-29736130D01*
X46664582Y-29736130D02*
X46045535Y-29736130D01*
%TO.C,C7*%
X49379166Y-35215892D02*
X49426785Y-35263511D01*
X49426785Y-35263511D02*
X49569642Y-35311130D01*
X49569642Y-35311130D02*
X49664880Y-35311130D01*
X49664880Y-35311130D02*
X49807737Y-35263511D01*
X49807737Y-35263511D02*
X49902975Y-35168273D01*
X49902975Y-35168273D02*
X49950594Y-35073035D01*
X49950594Y-35073035D02*
X49998213Y-34882559D01*
X49998213Y-34882559D02*
X49998213Y-34739702D01*
X49998213Y-34739702D02*
X49950594Y-34549226D01*
X49950594Y-34549226D02*
X49902975Y-34453988D01*
X49902975Y-34453988D02*
X49807737Y-34358750D01*
X49807737Y-34358750D02*
X49664880Y-34311130D01*
X49664880Y-34311130D02*
X49569642Y-34311130D01*
X49569642Y-34311130D02*
X49426785Y-34358750D01*
X49426785Y-34358750D02*
X49379166Y-34406369D01*
X49045832Y-34311130D02*
X48379166Y-34311130D01*
X48379166Y-34311130D02*
X48807737Y-35311130D01*
%TO.C,D38*%
X169054880Y-46410714D02*
X168054880Y-46410714D01*
X168054880Y-46410714D02*
X168054880Y-46648809D01*
X168054880Y-46648809D02*
X168102500Y-46791666D01*
X168102500Y-46791666D02*
X168197738Y-46886904D01*
X168197738Y-46886904D02*
X168292976Y-46934523D01*
X168292976Y-46934523D02*
X168483452Y-46982142D01*
X168483452Y-46982142D02*
X168626309Y-46982142D01*
X168626309Y-46982142D02*
X168816785Y-46934523D01*
X168816785Y-46934523D02*
X168912023Y-46886904D01*
X168912023Y-46886904D02*
X169007261Y-46791666D01*
X169007261Y-46791666D02*
X169054880Y-46648809D01*
X169054880Y-46648809D02*
X169054880Y-46410714D01*
X168054880Y-47315476D02*
X168054880Y-47934523D01*
X168054880Y-47934523D02*
X168435833Y-47601190D01*
X168435833Y-47601190D02*
X168435833Y-47744047D01*
X168435833Y-47744047D02*
X168483452Y-47839285D01*
X168483452Y-47839285D02*
X168531071Y-47886904D01*
X168531071Y-47886904D02*
X168626309Y-47934523D01*
X168626309Y-47934523D02*
X168864404Y-47934523D01*
X168864404Y-47934523D02*
X168959642Y-47886904D01*
X168959642Y-47886904D02*
X169007261Y-47839285D01*
X169007261Y-47839285D02*
X169054880Y-47744047D01*
X169054880Y-47744047D02*
X169054880Y-47458333D01*
X169054880Y-47458333D02*
X169007261Y-47363095D01*
X169007261Y-47363095D02*
X168959642Y-47315476D01*
X168483452Y-48505952D02*
X168435833Y-48410714D01*
X168435833Y-48410714D02*
X168388214Y-48363095D01*
X168388214Y-48363095D02*
X168292976Y-48315476D01*
X168292976Y-48315476D02*
X168245357Y-48315476D01*
X168245357Y-48315476D02*
X168150119Y-48363095D01*
X168150119Y-48363095D02*
X168102500Y-48410714D01*
X168102500Y-48410714D02*
X168054880Y-48505952D01*
X168054880Y-48505952D02*
X168054880Y-48696428D01*
X168054880Y-48696428D02*
X168102500Y-48791666D01*
X168102500Y-48791666D02*
X168150119Y-48839285D01*
X168150119Y-48839285D02*
X168245357Y-48886904D01*
X168245357Y-48886904D02*
X168292976Y-48886904D01*
X168292976Y-48886904D02*
X168388214Y-48839285D01*
X168388214Y-48839285D02*
X168435833Y-48791666D01*
X168435833Y-48791666D02*
X168483452Y-48696428D01*
X168483452Y-48696428D02*
X168483452Y-48505952D01*
X168483452Y-48505952D02*
X168531071Y-48410714D01*
X168531071Y-48410714D02*
X168578690Y-48363095D01*
X168578690Y-48363095D02*
X168673928Y-48315476D01*
X168673928Y-48315476D02*
X168864404Y-48315476D01*
X168864404Y-48315476D02*
X168959642Y-48363095D01*
X168959642Y-48363095D02*
X169007261Y-48410714D01*
X169007261Y-48410714D02*
X169054880Y-48505952D01*
X169054880Y-48505952D02*
X169054880Y-48696428D01*
X169054880Y-48696428D02*
X169007261Y-48791666D01*
X169007261Y-48791666D02*
X168959642Y-48839285D01*
X168959642Y-48839285D02*
X168864404Y-48886904D01*
X168864404Y-48886904D02*
X168673928Y-48886904D01*
X168673928Y-48886904D02*
X168578690Y-48839285D01*
X168578690Y-48839285D02*
X168531071Y-48791666D01*
X168531071Y-48791666D02*
X168483452Y-48696428D01*
%TO.C,R3*%
X45611130Y-6977083D02*
X45134940Y-6643750D01*
X45611130Y-6405655D02*
X44611130Y-6405655D01*
X44611130Y-6405655D02*
X44611130Y-6786607D01*
X44611130Y-6786607D02*
X44658750Y-6881845D01*
X44658750Y-6881845D02*
X44706369Y-6929464D01*
X44706369Y-6929464D02*
X44801607Y-6977083D01*
X44801607Y-6977083D02*
X44944464Y-6977083D01*
X44944464Y-6977083D02*
X45039702Y-6929464D01*
X45039702Y-6929464D02*
X45087321Y-6881845D01*
X45087321Y-6881845D02*
X45134940Y-6786607D01*
X45134940Y-6786607D02*
X45134940Y-6405655D01*
X44611130Y-7310417D02*
X44611130Y-7929464D01*
X44611130Y-7929464D02*
X44992083Y-7596131D01*
X44992083Y-7596131D02*
X44992083Y-7738988D01*
X44992083Y-7738988D02*
X45039702Y-7834226D01*
X45039702Y-7834226D02*
X45087321Y-7881845D01*
X45087321Y-7881845D02*
X45182559Y-7929464D01*
X45182559Y-7929464D02*
X45420654Y-7929464D01*
X45420654Y-7929464D02*
X45515892Y-7881845D01*
X45515892Y-7881845D02*
X45563511Y-7834226D01*
X45563511Y-7834226D02*
X45611130Y-7738988D01*
X45611130Y-7738988D02*
X45611130Y-7453274D01*
X45611130Y-7453274D02*
X45563511Y-7358036D01*
X45563511Y-7358036D02*
X45515892Y-7310417D01*
%TO.C,D4*%
X97617380Y10263094D02*
X96617380Y10263094D01*
X96617380Y10263094D02*
X96617380Y10024999D01*
X96617380Y10024999D02*
X96665000Y9882142D01*
X96665000Y9882142D02*
X96760238Y9786904D01*
X96760238Y9786904D02*
X96855476Y9739285D01*
X96855476Y9739285D02*
X97045952Y9691666D01*
X97045952Y9691666D02*
X97188809Y9691666D01*
X97188809Y9691666D02*
X97379285Y9739285D01*
X97379285Y9739285D02*
X97474523Y9786904D01*
X97474523Y9786904D02*
X97569761Y9882142D01*
X97569761Y9882142D02*
X97617380Y10024999D01*
X97617380Y10024999D02*
X97617380Y10263094D01*
X96950714Y8834523D02*
X97617380Y8834523D01*
X96569761Y9072618D02*
X97284047Y9310713D01*
X97284047Y9310713D02*
X97284047Y8691666D01*
D12*
%TO.C,D26*%
X39481250Y-49985000D02*
X39481250Y-45975000D01*
X41481250Y-49985000D02*
X39481250Y-49985000D01*
X41481250Y-49985000D02*
X41481250Y-45975000D01*
%TO.C,D46*%
X244268750Y-49985000D02*
X244268750Y-45975000D01*
X246268750Y-49985000D02*
X244268750Y-49985000D01*
X246268750Y-49985000D02*
X246268750Y-45975000D01*
%TO.C,D2*%
X56150000Y7165000D02*
X56150000Y11175000D01*
X58150000Y7165000D02*
X56150000Y7165000D01*
X58150000Y7165000D02*
X58150000Y11175000D01*
%TO.C,D12*%
X254270000Y7165000D02*
X254270000Y11175000D01*
X256270000Y7165000D02*
X254270000Y7165000D01*
X256270000Y7165000D02*
X256270000Y11175000D01*
%TO.C,D33*%
X127587500Y-30935000D02*
X127587500Y-26925000D01*
X129587500Y-30935000D02*
X127587500Y-30935000D01*
X129587500Y-30935000D02*
X129587500Y-26925000D01*
%TO.C,D25*%
X29956250Y-30935000D02*
X29956250Y-26925000D01*
X31956250Y-30935000D02*
X29956250Y-30935000D01*
X31956250Y-30935000D02*
X31956250Y-26925000D01*
%TO.C,D15*%
X80280000Y-11885000D02*
X80280000Y-7875000D01*
X82280000Y-11885000D02*
X80280000Y-11885000D01*
X82280000Y-11885000D02*
X82280000Y-7875000D01*
%TO.C,F1*%
X74077328Y2465000D02*
X73560172Y2465000D01*
X74077328Y3885000D02*
X73560172Y3885000D01*
%TO.C,D18*%
X137430000Y-11885000D02*
X137430000Y-7875000D01*
X139430000Y-11885000D02*
X137430000Y-11885000D01*
X139430000Y-11885000D02*
X139430000Y-7875000D01*
%TO.C,D24*%
X256810000Y-11885000D02*
X256810000Y-7875000D01*
X258810000Y-11885000D02*
X256810000Y-11885000D01*
X258810000Y-11885000D02*
X258810000Y-7875000D01*
%TO.C,D10*%
X208550000Y7165000D02*
X208550000Y11175000D01*
X210550000Y7165000D02*
X208550000Y7165000D01*
X210550000Y7165000D02*
X210550000Y11175000D01*
%TO.C,D39*%
X184737500Y-30935000D02*
X184737500Y-26925000D01*
X186737500Y-30935000D02*
X184737500Y-30935000D01*
X186737500Y-30935000D02*
X186737500Y-26925000D01*
%TO.C,D42*%
X196643750Y-49985000D02*
X196643750Y-45975000D01*
X198643750Y-49985000D02*
X196643750Y-49985000D01*
X198643750Y-49985000D02*
X198643750Y-45975000D01*
%TO.C,D37*%
X165687500Y-30935000D02*
X165687500Y-26925000D01*
X167687500Y-30935000D02*
X165687500Y-30935000D01*
X167687500Y-30935000D02*
X167687500Y-26925000D01*
%TO.C,U2*%
X62733750Y1500000D02*
X62733750Y700000D01*
X62733750Y1500000D02*
X62733750Y2300000D01*
X65853750Y1500000D02*
X65853750Y-300000D01*
X65853750Y1500000D02*
X65853750Y2300000D01*
%TO.C,D48*%
X258556250Y-49985000D02*
X258556250Y-45975000D01*
X260556250Y-49985000D02*
X258556250Y-49985000D01*
X260556250Y-49985000D02*
X260556250Y-45975000D01*
%TO.C,C5*%
X42151248Y-9408750D02*
X43573752Y-9408750D01*
X42151248Y-11228750D02*
X43573752Y-11228750D01*
D10*
%TO.C,U1*%
X47175000Y-23887500D02*
X47500000Y-23887500D01*
X47175000Y-23887500D02*
X47175000Y-23562500D01*
X54200000Y-23887500D02*
X54200000Y-25312500D01*
X54425000Y-23887500D02*
X54200000Y-23887500D01*
X54425000Y-23887500D02*
X54425000Y-23562500D01*
X47175000Y-16637500D02*
X47175000Y-16962500D01*
X47175000Y-16637500D02*
X47500000Y-16637500D01*
X54425000Y-16637500D02*
X54425000Y-16962500D01*
X54425000Y-16637500D02*
X54100000Y-16637500D01*
D12*
%TO.C,Y1*%
X55762190Y-31502513D02*
X52933763Y-34330940D01*
X53428737Y-29169060D02*
X55762190Y-31502513D01*
%TO.C,D21*%
X194580000Y-11885000D02*
X194580000Y-7875000D01*
X196580000Y-11885000D02*
X194580000Y-11885000D01*
X196580000Y-11885000D02*
X196580000Y-7875000D01*
%TO.C,D30*%
X77581250Y-49985000D02*
X77581250Y-45975000D01*
X79581250Y-49985000D02*
X77581250Y-49985000D01*
X79581250Y-49985000D02*
X79581250Y-45975000D01*
%TO.C,D14*%
X60912500Y-11885000D02*
X60912500Y-7875000D01*
X62912500Y-11885000D02*
X60912500Y-11885000D01*
X62912500Y-11885000D02*
X62912500Y-7875000D01*
%TO.C,D1*%
X37100000Y7165000D02*
X37100000Y11175000D01*
X39100000Y7165000D02*
X37100000Y7165000D01*
X39100000Y7165000D02*
X39100000Y11175000D01*
%TO.C,D34*%
X125206250Y-49985000D02*
X125206250Y-45975000D01*
X127206250Y-49985000D02*
X125206250Y-49985000D01*
X127206250Y-49985000D02*
X127206250Y-45975000D01*
%TO.C,R2*%
X41037742Y-18527500D02*
X41512258Y-18527500D01*
X41037742Y-19572500D02*
X41512258Y-19572500D01*
%TO.C,D47*%
X260937500Y-30935000D02*
X260937500Y-26925000D01*
X262937500Y-30935000D02*
X260937500Y-30935000D01*
X262937500Y-30935000D02*
X262937500Y-26925000D01*
%TO.C,D22*%
X213630000Y-11885000D02*
X213630000Y-7875000D01*
X215630000Y-11885000D02*
X213630000Y-11885000D01*
X215630000Y-11885000D02*
X215630000Y-7875000D01*
%TO.C,D35*%
X146637500Y-30935000D02*
X146637500Y-26925000D01*
X148637500Y-30935000D02*
X146637500Y-30935000D01*
X148637500Y-30935000D02*
X148637500Y-26925000D01*
%TO.C,D36*%
X149018750Y-49985000D02*
X149018750Y-45975000D01*
X151018750Y-49985000D02*
X149018750Y-49985000D01*
X151018750Y-49985000D02*
X151018750Y-45975000D01*
%TO.C,J1*%
X82593750Y4750000D02*
X81343750Y4750000D01*
X81343750Y4750000D02*
X81343750Y3750000D01*
X86343750Y3500000D02*
X86343750Y-500000D01*
X82593750Y-1750000D02*
X81343750Y-1750000D01*
X81343750Y-1750000D02*
X81343750Y-750000D01*
%TO.C,C6*%
X57660000Y-32403170D02*
X57660000Y-32684330D01*
X56640000Y-32403170D02*
X56640000Y-32684330D01*
%TO.C,D43*%
X222837500Y-30935000D02*
X222837500Y-26925000D01*
X224837500Y-30935000D02*
X222837500Y-30935000D01*
X224837500Y-30935000D02*
X224837500Y-26925000D01*
%TO.C,D13*%
X25193750Y-11885000D02*
X25193750Y-7875000D01*
X27193750Y-11885000D02*
X25193750Y-11885000D01*
X27193750Y-11885000D02*
X27193750Y-7875000D01*
%TO.C,R4*%
X42591250Y-6906492D02*
X42591250Y-7381008D01*
X41546250Y-6906492D02*
X41546250Y-7381008D01*
%TO.C,C1*%
X60184420Y-18958750D02*
X60465580Y-18958750D01*
X60184420Y-19978750D02*
X60465580Y-19978750D01*
%TO.C,D23*%
X232680000Y-11885000D02*
X232680000Y-7875000D01*
X234680000Y-11885000D02*
X232680000Y-11885000D01*
X234680000Y-11885000D02*
X234680000Y-7875000D01*
%TO.C,C3*%
X60184420Y-20921250D02*
X60465580Y-20921250D01*
X60184420Y-21941250D02*
X60465580Y-21941250D01*
%TO.C,D31*%
X108537500Y-30935000D02*
X108537500Y-26925000D01*
X110537500Y-30935000D02*
X108537500Y-30935000D01*
X110537500Y-30935000D02*
X110537500Y-26925000D01*
%TO.C,D19*%
X156480000Y-11885000D02*
X156480000Y-7875000D01*
X158480000Y-11885000D02*
X156480000Y-11885000D01*
X158480000Y-11885000D02*
X158480000Y-7875000D01*
%TO.C,D9*%
X189500000Y7165000D02*
X189500000Y11175000D01*
X191500000Y7165000D02*
X189500000Y7165000D01*
X191500000Y7165000D02*
X191500000Y11175000D01*
%TO.C,D17*%
X118380000Y-11885000D02*
X118380000Y-7875000D01*
X120380000Y-11885000D02*
X118380000Y-11885000D01*
X120380000Y-11885000D02*
X120380000Y-7875000D01*
%TO.C,D29*%
X89487500Y-30935000D02*
X89487500Y-26925000D01*
X91487500Y-30935000D02*
X89487500Y-30935000D01*
X91487500Y-30935000D02*
X91487500Y-26925000D01*
%TO.C,SW1*%
X30587500Y-18462500D02*
X30587500Y-16462500D01*
X31637500Y-15162500D02*
X32087500Y-14712500D01*
X31637500Y-19762500D02*
X32087500Y-20212500D01*
X32087500Y-14712500D02*
X34587500Y-14712500D01*
X32087500Y-20212500D02*
X34587500Y-20212500D01*
X35037500Y-15162500D02*
X34587500Y-14712500D01*
X35037500Y-19762500D02*
X34587500Y-20212500D01*
X36087500Y-18462500D02*
X36087500Y-16462500D01*
%TO.C,D27*%
X70437500Y-30935000D02*
X70437500Y-26925000D01*
X72437500Y-30935000D02*
X70437500Y-30935000D01*
X72437500Y-30935000D02*
X72437500Y-26925000D01*
%TO.C,D45*%
X241887500Y-30935000D02*
X241887500Y-26925000D01*
X243887500Y-30935000D02*
X241887500Y-30935000D01*
X243887500Y-30935000D02*
X243887500Y-26925000D01*
%TO.C,R1*%
X40210000Y-12462742D02*
X40210000Y-12937258D01*
X39165000Y-12462742D02*
X39165000Y-12937258D01*
%TO.C,D7*%
X151400000Y7165000D02*
X151400000Y11175000D01*
X153400000Y7165000D02*
X151400000Y7165000D01*
X153400000Y7165000D02*
X153400000Y11175000D01*
%TO.C,D11*%
X227600000Y7165000D02*
X227600000Y11175000D01*
X229600000Y7165000D02*
X227600000Y7165000D01*
X229600000Y7165000D02*
X229600000Y11175000D01*
%TO.C,D44*%
X220456250Y-49985000D02*
X220456250Y-45975000D01*
X222456250Y-49985000D02*
X220456250Y-49985000D01*
X222456250Y-49985000D02*
X222456250Y-45975000D01*
%TO.C,C4*%
X60184420Y-22508750D02*
X60465580Y-22508750D01*
X60184420Y-23528750D02*
X60465580Y-23528750D01*
%TO.C,D5*%
X113300000Y7165000D02*
X113300000Y11175000D01*
X115300000Y7165000D02*
X113300000Y7165000D01*
X115300000Y7165000D02*
X115300000Y11175000D01*
%TO.C,D3*%
X75200000Y7165000D02*
X75200000Y11175000D01*
X77200000Y7165000D02*
X75200000Y7165000D01*
X77200000Y7165000D02*
X77200000Y11175000D01*
%TO.C,D28*%
X53768750Y-49985000D02*
X53768750Y-45975000D01*
X55768750Y-49985000D02*
X53768750Y-49985000D01*
X55768750Y-49985000D02*
X55768750Y-45975000D01*
%TO.C,D32*%
X94250000Y-49985000D02*
X94250000Y-45975000D01*
X96250000Y-49985000D02*
X94250000Y-49985000D01*
X96250000Y-49985000D02*
X96250000Y-45975000D01*
%TO.C,D6*%
X132350000Y7165000D02*
X132350000Y11175000D01*
X134350000Y7165000D02*
X132350000Y7165000D01*
X134350000Y7165000D02*
X134350000Y11175000D01*
%TO.C,D20*%
X175530000Y-11885000D02*
X175530000Y-7875000D01*
X177530000Y-11885000D02*
X175530000Y-11885000D01*
X177530000Y-11885000D02*
X177530000Y-7875000D01*
%TO.C,D16*%
X99330000Y-11885000D02*
X99330000Y-7875000D01*
X101330000Y-11885000D02*
X99330000Y-11885000D01*
X101330000Y-11885000D02*
X101330000Y-7875000D01*
%TO.C,D41*%
X203787500Y-30935000D02*
X203787500Y-26925000D01*
X205787500Y-30935000D02*
X203787500Y-30935000D01*
X205787500Y-30935000D02*
X205787500Y-26925000D01*
%TO.C,D8*%
X170450000Y7165000D02*
X170450000Y11175000D01*
X172450000Y7165000D02*
X170450000Y7165000D01*
X172450000Y7165000D02*
X172450000Y11175000D01*
%TO.C,C2*%
X48928750Y-28853170D02*
X48928750Y-29134330D01*
X47908750Y-28853170D02*
X47908750Y-29134330D01*
%TO.C,C7*%
X49722500Y-32403170D02*
X49722500Y-32684330D01*
X48702500Y-32403170D02*
X48702500Y-32684330D01*
%TO.C,D38*%
X165687500Y-49985000D02*
X165687500Y-45975000D01*
X167687500Y-49985000D02*
X165687500Y-49985000D01*
X167687500Y-49985000D02*
X167687500Y-45975000D01*
%TO.C,R3*%
X44178750Y-6906492D02*
X44178750Y-7381008D01*
X43133750Y-6906492D02*
X43133750Y-7381008D01*
%TO.C,D4*%
X94250000Y7165000D02*
X94250000Y11175000D01*
X96250000Y7165000D02*
X94250000Y7165000D01*
X96250000Y7165000D02*
X96250000Y11175000D01*
%TD*%
%LPC*%
D10*
X101818695Y-13541641D02*
X101818695Y-14208307D01*
X102056790Y-13160688D02*
X102294885Y-13874974D01*
X102294885Y-13874974D02*
X101675838Y-13874974D01*
X101104409Y-13208307D02*
X101009171Y-13208307D01*
X101009171Y-13208307D02*
X100913933Y-13255927D01*
X100913933Y-13255927D02*
X100866314Y-13303546D01*
X100866314Y-13303546D02*
X100818695Y-13398784D01*
X100818695Y-13398784D02*
X100771076Y-13589260D01*
X100771076Y-13589260D02*
X100771076Y-13827355D01*
X100771076Y-13827355D02*
X100818695Y-14017831D01*
X100818695Y-14017831D02*
X100866314Y-14113069D01*
X100866314Y-14113069D02*
X100913933Y-14160688D01*
X100913933Y-14160688D02*
X101009171Y-14208307D01*
X101009171Y-14208307D02*
X101104409Y-14208307D01*
X101104409Y-14208307D02*
X101199647Y-14160688D01*
X101199647Y-14160688D02*
X101247266Y-14113069D01*
X101247266Y-14113069D02*
X101294885Y-14017831D01*
X101294885Y-14017831D02*
X101342504Y-13827355D01*
X101342504Y-13827355D02*
X101342504Y-13589260D01*
X101342504Y-13589260D02*
X101294885Y-13398784D01*
X101294885Y-13398784D02*
X101247266Y-13303546D01*
X101247266Y-13303546D02*
X101199647Y-13255927D01*
X101199647Y-13255927D02*
X101104409Y-13208307D01*
X100342504Y-13827355D02*
X99580600Y-13827355D01*
X99104409Y-14208307D02*
X99104409Y-13208307D01*
X99104409Y-13208307D02*
X98771076Y-13922593D01*
X98771076Y-13922593D02*
X98437743Y-13208307D01*
X98437743Y-13208307D02*
X98437743Y-14208307D01*
X97771076Y-13208307D02*
X97675838Y-13208307D01*
X97675838Y-13208307D02*
X97580600Y-13255927D01*
X97580600Y-13255927D02*
X97532981Y-13303546D01*
X97532981Y-13303546D02*
X97485362Y-13398784D01*
X97485362Y-13398784D02*
X97437743Y-13589260D01*
X97437743Y-13589260D02*
X97437743Y-13827355D01*
X97437743Y-13827355D02*
X97485362Y-14017831D01*
X97485362Y-14017831D02*
X97532981Y-14113069D01*
X97532981Y-14113069D02*
X97580600Y-14160688D01*
X97580600Y-14160688D02*
X97675838Y-14208307D01*
X97675838Y-14208307D02*
X97771076Y-14208307D01*
X97771076Y-14208307D02*
X97866314Y-14160688D01*
X97866314Y-14160688D02*
X97913933Y-14113069D01*
X97913933Y-14113069D02*
X97961552Y-14017831D01*
X97961552Y-14017831D02*
X98009171Y-13827355D01*
X98009171Y-13827355D02*
X98009171Y-13589260D01*
X98009171Y-13589260D02*
X97961552Y-13398784D01*
X97961552Y-13398784D02*
X97913933Y-13303546D01*
X97913933Y-13303546D02*
X97866314Y-13255927D01*
X97866314Y-13255927D02*
X97771076Y-13208307D01*
X96485362Y-14208307D02*
X97056790Y-14208307D01*
X96771076Y-14208307D02*
X96771076Y-13208307D01*
X96771076Y-13208307D02*
X96866314Y-13351165D01*
X96866314Y-13351165D02*
X96961552Y-13446403D01*
X96961552Y-13446403D02*
X97056790Y-13494022D01*
X95532981Y-14208307D02*
X96104409Y-14208307D01*
X95818695Y-14208307D02*
X95818695Y-13208307D01*
X95818695Y-13208307D02*
X95913933Y-13351165D01*
X95913933Y-13351165D02*
X96009171Y-13446403D01*
X96009171Y-13446403D02*
X96104409Y-13494022D01*
X94913933Y-13208307D02*
X94818695Y-13208307D01*
X94818695Y-13208307D02*
X94723457Y-13255927D01*
X94723457Y-13255927D02*
X94675838Y-13303546D01*
X94675838Y-13303546D02*
X94628219Y-13398784D01*
X94628219Y-13398784D02*
X94580600Y-13589260D01*
X94580600Y-13589260D02*
X94580600Y-13827355D01*
X94580600Y-13827355D02*
X94628219Y-14017831D01*
X94628219Y-14017831D02*
X94675838Y-14113069D01*
X94675838Y-14113069D02*
X94723457Y-14160688D01*
X94723457Y-14160688D02*
X94818695Y-14208307D01*
X94818695Y-14208307D02*
X94913933Y-14208307D01*
X94913933Y-14208307D02*
X95009171Y-14160688D01*
X95009171Y-14160688D02*
X95056790Y-14113069D01*
X95056790Y-14113069D02*
X95104409Y-14017831D01*
X95104409Y-14017831D02*
X95152028Y-13827355D01*
X95152028Y-13827355D02*
X95152028Y-13589260D01*
X95152028Y-13589260D02*
X95104409Y-13398784D01*
X95104409Y-13398784D02*
X95056790Y-13303546D01*
X95056790Y-13303546D02*
X95009171Y-13255927D01*
X95009171Y-13255927D02*
X94913933Y-13208307D01*
X93552028Y-14208307D02*
X93552028Y-13208307D01*
X93552028Y-13208307D02*
X93171076Y-13208307D01*
X93171076Y-13208307D02*
X93075838Y-13255927D01*
X93075838Y-13255927D02*
X93028219Y-13303546D01*
X93028219Y-13303546D02*
X92980600Y-13398784D01*
X92980600Y-13398784D02*
X92980600Y-13541641D01*
X92980600Y-13541641D02*
X93028219Y-13636879D01*
X93028219Y-13636879D02*
X93075838Y-13684498D01*
X93075838Y-13684498D02*
X93171076Y-13732117D01*
X93171076Y-13732117D02*
X93552028Y-13732117D01*
X91980600Y-14113069D02*
X92028219Y-14160688D01*
X92028219Y-14160688D02*
X92171076Y-14208307D01*
X92171076Y-14208307D02*
X92266314Y-14208307D01*
X92266314Y-14208307D02*
X92409171Y-14160688D01*
X92409171Y-14160688D02*
X92504409Y-14065450D01*
X92504409Y-14065450D02*
X92552028Y-13970212D01*
X92552028Y-13970212D02*
X92599647Y-13779736D01*
X92599647Y-13779736D02*
X92599647Y-13636879D01*
X92599647Y-13636879D02*
X92552028Y-13446403D01*
X92552028Y-13446403D02*
X92504409Y-13351165D01*
X92504409Y-13351165D02*
X92409171Y-13255927D01*
X92409171Y-13255927D02*
X92266314Y-13208307D01*
X92266314Y-13208307D02*
X92171076Y-13208307D01*
X92171076Y-13208307D02*
X92028219Y-13255927D01*
X92028219Y-13255927D02*
X91980600Y-13303546D01*
X91218695Y-13684498D02*
X91075838Y-13732117D01*
X91075838Y-13732117D02*
X91028219Y-13779736D01*
X91028219Y-13779736D02*
X90980600Y-13874974D01*
X90980600Y-13874974D02*
X90980600Y-14017831D01*
X90980600Y-14017831D02*
X91028219Y-14113069D01*
X91028219Y-14113069D02*
X91075838Y-14160688D01*
X91075838Y-14160688D02*
X91171076Y-14208307D01*
X91171076Y-14208307D02*
X91552028Y-14208307D01*
X91552028Y-14208307D02*
X91552028Y-13208307D01*
X91552028Y-13208307D02*
X91218695Y-13208307D01*
X91218695Y-13208307D02*
X91123457Y-13255927D01*
X91123457Y-13255927D02*
X91075838Y-13303546D01*
X91075838Y-13303546D02*
X91028219Y-13398784D01*
X91028219Y-13398784D02*
X91028219Y-13494022D01*
X91028219Y-13494022D02*
X91075838Y-13589260D01*
X91075838Y-13589260D02*
X91123457Y-13636879D01*
X91123457Y-13636879D02*
X91218695Y-13684498D01*
X91218695Y-13684498D02*
X91552028Y-13684498D01*
X89952028Y-14208307D02*
X89952028Y-13208307D01*
X89952028Y-13208307D02*
X89713933Y-13208307D01*
X89713933Y-13208307D02*
X89571076Y-13255927D01*
X89571076Y-13255927D02*
X89475838Y-13351165D01*
X89475838Y-13351165D02*
X89428219Y-13446403D01*
X89428219Y-13446403D02*
X89380600Y-13636879D01*
X89380600Y-13636879D02*
X89380600Y-13779736D01*
X89380600Y-13779736D02*
X89428219Y-13970212D01*
X89428219Y-13970212D02*
X89475838Y-14065450D01*
X89475838Y-14065450D02*
X89571076Y-14160688D01*
X89571076Y-14160688D02*
X89713933Y-14208307D01*
X89713933Y-14208307D02*
X89952028Y-14208307D01*
X88952028Y-13684498D02*
X88618695Y-13684498D01*
X88475838Y-14208307D02*
X88952028Y-14208307D01*
X88952028Y-14208307D02*
X88952028Y-13208307D01*
X88952028Y-13208307D02*
X88475838Y-13208307D01*
X88094885Y-14160688D02*
X87952028Y-14208307D01*
X87952028Y-14208307D02*
X87713933Y-14208307D01*
X87713933Y-14208307D02*
X87618695Y-14160688D01*
X87618695Y-14160688D02*
X87571076Y-14113069D01*
X87571076Y-14113069D02*
X87523457Y-14017831D01*
X87523457Y-14017831D02*
X87523457Y-13922593D01*
X87523457Y-13922593D02*
X87571076Y-13827355D01*
X87571076Y-13827355D02*
X87618695Y-13779736D01*
X87618695Y-13779736D02*
X87713933Y-13732117D01*
X87713933Y-13732117D02*
X87904409Y-13684498D01*
X87904409Y-13684498D02*
X87999647Y-13636879D01*
X87999647Y-13636879D02*
X88047266Y-13589260D01*
X88047266Y-13589260D02*
X88094885Y-13494022D01*
X88094885Y-13494022D02*
X88094885Y-13398784D01*
X88094885Y-13398784D02*
X88047266Y-13303546D01*
X88047266Y-13303546D02*
X87999647Y-13255927D01*
X87999647Y-13255927D02*
X87904409Y-13208307D01*
X87904409Y-13208307D02*
X87666314Y-13208307D01*
X87666314Y-13208307D02*
X87523457Y-13255927D01*
X87094885Y-14208307D02*
X87094885Y-13208307D01*
X86094886Y-13255927D02*
X86190124Y-13208307D01*
X86190124Y-13208307D02*
X86332981Y-13208307D01*
X86332981Y-13208307D02*
X86475838Y-13255927D01*
X86475838Y-13255927D02*
X86571076Y-13351165D01*
X86571076Y-13351165D02*
X86618695Y-13446403D01*
X86618695Y-13446403D02*
X86666314Y-13636879D01*
X86666314Y-13636879D02*
X86666314Y-13779736D01*
X86666314Y-13779736D02*
X86618695Y-13970212D01*
X86618695Y-13970212D02*
X86571076Y-14065450D01*
X86571076Y-14065450D02*
X86475838Y-14160688D01*
X86475838Y-14160688D02*
X86332981Y-14208307D01*
X86332981Y-14208307D02*
X86237743Y-14208307D01*
X86237743Y-14208307D02*
X86094886Y-14160688D01*
X86094886Y-14160688D02*
X86047267Y-14113069D01*
X86047267Y-14113069D02*
X86047267Y-13779736D01*
X86047267Y-13779736D02*
X86237743Y-13779736D01*
X85618695Y-14208307D02*
X85618695Y-13208307D01*
X85618695Y-13208307D02*
X85047267Y-14208307D01*
X85047267Y-14208307D02*
X85047267Y-13208307D01*
X84571076Y-13684498D02*
X84237743Y-13684498D01*
X84094886Y-14208307D02*
X84571076Y-14208307D01*
X84571076Y-14208307D02*
X84571076Y-13208307D01*
X84571076Y-13208307D02*
X84094886Y-13208307D01*
X83666314Y-14208307D02*
X83666314Y-13208307D01*
X83666314Y-13208307D02*
X83428219Y-13208307D01*
X83428219Y-13208307D02*
X83285362Y-13255927D01*
X83285362Y-13255927D02*
X83190124Y-13351165D01*
X83190124Y-13351165D02*
X83142505Y-13446403D01*
X83142505Y-13446403D02*
X83094886Y-13636879D01*
X83094886Y-13636879D02*
X83094886Y-13779736D01*
X83094886Y-13779736D02*
X83142505Y-13970212D01*
X83142505Y-13970212D02*
X83190124Y-14065450D01*
X83190124Y-14065450D02*
X83285362Y-14160688D01*
X83285362Y-14160688D02*
X83428219Y-14208307D01*
X83428219Y-14208307D02*
X83666314Y-14208307D01*
X81732981Y-13684498D02*
X81590124Y-13732117D01*
X81590124Y-13732117D02*
X81542505Y-13779736D01*
X81542505Y-13779736D02*
X81494886Y-13874974D01*
X81494886Y-13874974D02*
X81494886Y-14017831D01*
X81494886Y-14017831D02*
X81542505Y-14113069D01*
X81542505Y-14113069D02*
X81590124Y-14160688D01*
X81590124Y-14160688D02*
X81685362Y-14208307D01*
X81685362Y-14208307D02*
X82066314Y-14208307D01*
X82066314Y-14208307D02*
X82066314Y-13208307D01*
X82066314Y-13208307D02*
X81732981Y-13208307D01*
X81732981Y-13208307D02*
X81637743Y-13255927D01*
X81637743Y-13255927D02*
X81590124Y-13303546D01*
X81590124Y-13303546D02*
X81542505Y-13398784D01*
X81542505Y-13398784D02*
X81542505Y-13494022D01*
X81542505Y-13494022D02*
X81590124Y-13589260D01*
X81590124Y-13589260D02*
X81637743Y-13636879D01*
X81637743Y-13636879D02*
X81732981Y-13684498D01*
X81732981Y-13684498D02*
X82066314Y-13684498D01*
X80875838Y-13732117D02*
X80875838Y-14208307D01*
X81209171Y-13208307D02*
X80875838Y-13732117D01*
X80875838Y-13732117D02*
X80542505Y-13208307D01*
X79609171Y-14208307D02*
X79609171Y-13208307D01*
X79609171Y-13208307D02*
X79275838Y-13922593D01*
X79275838Y-13922593D02*
X78942505Y-13208307D01*
X78942505Y-13208307D02*
X78942505Y-14208307D01*
X78513933Y-13922593D02*
X78037743Y-13922593D01*
X78609171Y-14208307D02*
X78275838Y-13208307D01*
X78275838Y-13208307D02*
X77942505Y-14208307D01*
X77609171Y-13684498D02*
X77275838Y-13684498D01*
X77132981Y-14208307D02*
X77609171Y-14208307D01*
X77609171Y-14208307D02*
X77609171Y-13208307D01*
X77609171Y-13208307D02*
X77132981Y-13208307D01*
X76228219Y-14208307D02*
X76704409Y-14208307D01*
X76704409Y-14208307D02*
X76704409Y-13208307D01*
X75894885Y-14208307D02*
X75894885Y-13208307D01*
X75323457Y-14208307D02*
X75752028Y-13636879D01*
X75323457Y-13208307D02*
X75894885Y-13779736D01*
X74894885Y-14208307D02*
X74894885Y-13208307D01*
X74323457Y-14208307D02*
X74752028Y-13636879D01*
X74323457Y-13208307D02*
X74894885Y-13779736D01*
D13*
%TO.C,MX21*%
X183038750Y-9525000D03*
D14*
X188118750Y-9525000D03*
D13*
X193198750Y-9525000D03*
D15*
X184308750Y-6985000D03*
X190658750Y-4445000D03*
%TD*%
D13*
%TO.C,MX7*%
X140176250Y9525000D03*
D14*
X145256250Y9525000D03*
D13*
X150336250Y9525000D03*
D15*
X141446250Y12065000D03*
X147796250Y14605000D03*
%TD*%
D13*
%TO.C,MX24*%
X244951250Y-9525000D03*
D14*
X250031250Y-9525000D03*
D13*
X255111250Y-9525000D03*
D15*
X246221250Y-6985000D03*
X252571250Y-4445000D03*
%TD*%
D13*
%TO.C,MX11*%
X216376250Y9525000D03*
D14*
X221456250Y9525000D03*
D13*
X226536250Y9525000D03*
D15*
X217646250Y12065000D03*
X223996250Y14605000D03*
%TD*%
D13*
%TO.C,MX20*%
X163988750Y-9525000D03*
D14*
X169068750Y-9525000D03*
D13*
X174148750Y-9525000D03*
D15*
X165258750Y-6985000D03*
X171608750Y-4445000D03*
%TD*%
D13*
%TO.C,MX22*%
X202088750Y-9525000D03*
D14*
X207168750Y-9525000D03*
D13*
X212248750Y-9525000D03*
D15*
X203358750Y-6985000D03*
X209708750Y-4445000D03*
%TD*%
D13*
%TO.C,MX15*%
X68738750Y-9525000D03*
D14*
X73818750Y-9525000D03*
D13*
X78898750Y-9525000D03*
D15*
X70008750Y-6985000D03*
X76358750Y-4445000D03*
%TD*%
D13*
%TO.C,MX23*%
X221138750Y-9525000D03*
D14*
X226218750Y-9525000D03*
D13*
X231298750Y-9525000D03*
D15*
X222408750Y-6985000D03*
X228758750Y-4445000D03*
%TD*%
D13*
%TO.C,MX26*%
X28257500Y-47625000D03*
D14*
X33337500Y-47625000D03*
D13*
X38417500Y-47625000D03*
D15*
X29527500Y-45085000D03*
X35877500Y-42545000D03*
%TD*%
D13*
%TO.C,MX41*%
X192563750Y-28575000D03*
D14*
X197643750Y-28575000D03*
D13*
X202723750Y-28575000D03*
D15*
X193833750Y-26035000D03*
X200183750Y-23495000D03*
%TD*%
D13*
%TO.C,MX18*%
X125888750Y-9525000D03*
D14*
X130968750Y-9525000D03*
D13*
X136048750Y-9525000D03*
D15*
X127158750Y-6985000D03*
X133508750Y-4445000D03*
%TD*%
D13*
%TO.C,MX25*%
X33020000Y-28575000D03*
D14*
X38100000Y-28575000D03*
D13*
X43180000Y-28575000D03*
D15*
X34290000Y-26035000D03*
X40640000Y-23495000D03*
%TD*%
D13*
%TO.C,MX46*%
X233045000Y-47625000D03*
D14*
X238125000Y-47625000D03*
D13*
X243205000Y-47625000D03*
D15*
X234315000Y-45085000D03*
X240665000Y-42545000D03*
%TD*%
D13*
%TO.C,MX43*%
X211613750Y-28575000D03*
D14*
X216693750Y-28575000D03*
D13*
X221773750Y-28575000D03*
D15*
X212883750Y-26035000D03*
X219233750Y-23495000D03*
%TD*%
D13*
%TO.C,MX8*%
X159226250Y9525000D03*
D14*
X164306250Y9525000D03*
D13*
X169386250Y9525000D03*
D15*
X160496250Y12065000D03*
X166846250Y14605000D03*
%TD*%
D13*
%TO.C,MX17*%
X106838750Y-9525000D03*
D14*
X111918750Y-9525000D03*
D13*
X116998750Y-9525000D03*
D15*
X108108750Y-6985000D03*
X114458750Y-4445000D03*
%TD*%
D13*
%TO.C,MX12*%
X242570000Y9525000D03*
D14*
X247650000Y9525000D03*
D13*
X252730000Y9525000D03*
D15*
X243840000Y12065000D03*
X250190000Y14605000D03*
%TD*%
D13*
%TO.C,MX49*%
X66357500Y-47625000D03*
D14*
X71437500Y-47625000D03*
D13*
X76517500Y-47625000D03*
D15*
X67627500Y-45085000D03*
X73977500Y-42545000D03*
%TD*%
D13*
%TO.C,MX29*%
X78263750Y-28575000D03*
D14*
X83343750Y-28575000D03*
D13*
X88423750Y-28575000D03*
D15*
X79533750Y-26035000D03*
X85883750Y-23495000D03*
%TD*%
D13*
%TO.C,MX9*%
X178276250Y9525000D03*
D14*
X183356250Y9525000D03*
D13*
X188436250Y9525000D03*
D15*
X179546250Y12065000D03*
X185896250Y14605000D03*
%TD*%
D13*
%TO.C,MX47*%
X249713750Y-28575000D03*
D14*
X254793750Y-28575000D03*
D13*
X259873750Y-28575000D03*
D15*
X250983750Y-26035000D03*
X257333750Y-23495000D03*
%TD*%
D13*
%TO.C,MX35*%
X135413750Y-28575000D03*
D14*
X140493750Y-28575000D03*
D13*
X145573750Y-28575000D03*
D15*
X136683750Y-26035000D03*
X143033750Y-23495000D03*
%TD*%
D13*
%TO.C,MX28*%
X42545000Y-47625000D03*
D14*
X47625000Y-47625000D03*
D13*
X52705000Y-47625000D03*
D15*
X43815000Y-45085000D03*
X50165000Y-42545000D03*
%TD*%
D14*
%TO.C,MX34*%
X107156250Y-39370000D03*
D16*
X107156250Y-54610000D03*
D13*
X113982500Y-47625000D03*
D14*
X119062500Y-47625000D03*
D13*
X124142500Y-47625000D03*
D14*
X130968750Y-39370000D03*
D16*
X130968750Y-54610000D03*
D15*
X115252500Y-45085000D03*
X121602500Y-42545000D03*
%TD*%
D17*
%TO.C,H2*%
X254793750Y22600000D03*
%TD*%
D13*
%TO.C,MX27*%
X59213750Y-28575000D03*
D14*
X64293750Y-28575000D03*
D13*
X69373750Y-28575000D03*
D15*
X60483750Y-26035000D03*
X66833750Y-23495000D03*
%TD*%
D17*
%TO.C,H4*%
X254793750Y-60700000D03*
%TD*%
D13*
%TO.C,MX2*%
X44926250Y9525000D03*
D14*
X50006250Y9525000D03*
D13*
X55086250Y9525000D03*
D15*
X46196250Y12065000D03*
X52546250Y14605000D03*
%TD*%
D13*
%TO.C,MX45*%
X230663750Y-28575000D03*
D14*
X235743750Y-28575000D03*
D13*
X240823750Y-28575000D03*
D15*
X231933750Y-26035000D03*
X238283750Y-23495000D03*
%TD*%
D13*
%TO.C,MX6*%
X121126250Y9525000D03*
D14*
X126206250Y9525000D03*
D13*
X131286250Y9525000D03*
D15*
X122396250Y12065000D03*
X128746250Y14605000D03*
%TD*%
D13*
%TO.C,MX42*%
X185420000Y-47625000D03*
D14*
X190500000Y-47625000D03*
D13*
X195580000Y-47625000D03*
D15*
X186690000Y-45085000D03*
X193040000Y-42545000D03*
%TD*%
D14*
%TO.C,MX38*%
X147637500Y-39370000D03*
D16*
X147637500Y-54610000D03*
D13*
X154463750Y-47625000D03*
D14*
X159543750Y-47625000D03*
D13*
X164623750Y-47625000D03*
D14*
X171450000Y-39370000D03*
D16*
X171450000Y-54610000D03*
D15*
X155733750Y-45085000D03*
X162083750Y-42545000D03*
%TD*%
D13*
%TO.C,MX14*%
X49688750Y-9525000D03*
D14*
X54768750Y-9525000D03*
D13*
X59848750Y-9525000D03*
D15*
X50958750Y-6985000D03*
X57308750Y-4445000D03*
%TD*%
D13*
%TO.C,MX44*%
X209232500Y-47625000D03*
D14*
X214312500Y-47625000D03*
D13*
X219392500Y-47625000D03*
D15*
X210502500Y-45085000D03*
X216852500Y-42545000D03*
%TD*%
D14*
%TO.C,MX36*%
X92875100Y-39370000D03*
D16*
X92875100Y-54610000D03*
D13*
X137795000Y-47625000D03*
D14*
X142875000Y-47625000D03*
D13*
X147955000Y-47625000D03*
D14*
X192874900Y-39370000D03*
D16*
X192874900Y-54610000D03*
D15*
X139065000Y-45085000D03*
X145415000Y-42545000D03*
%TD*%
D13*
%TO.C,MX5*%
X102076250Y9525000D03*
D14*
X107156250Y9525000D03*
D13*
X112236250Y9525000D03*
D15*
X103346250Y12065000D03*
X109696250Y14605000D03*
%TD*%
D13*
%TO.C,MX3*%
X63976250Y9525000D03*
D14*
X69056250Y9525000D03*
D13*
X74136250Y9525000D03*
D15*
X65246250Y12065000D03*
X71596250Y14605000D03*
%TD*%
D17*
%TO.C,H3*%
X30956250Y-60700000D03*
%TD*%
D13*
%TO.C,MX13*%
X28257500Y-9525000D03*
D14*
X33337500Y-9525000D03*
D13*
X38417500Y-9525000D03*
D15*
X29527500Y-6985000D03*
X35877500Y-4445000D03*
%TD*%
D13*
%TO.C,MX1*%
X25876250Y9525000D03*
D14*
X30956250Y9525000D03*
D13*
X36036250Y9525000D03*
D15*
X27146250Y12065000D03*
X33496250Y14605000D03*
%TD*%
D13*
%TO.C,MX31*%
X97313750Y-28575000D03*
D14*
X102393750Y-28575000D03*
D13*
X107473750Y-28575000D03*
D15*
X98583750Y-26035000D03*
X104933750Y-23495000D03*
%TD*%
D13*
%TO.C,MX33*%
X116363750Y-28575000D03*
D14*
X121443750Y-28575000D03*
D13*
X126523750Y-28575000D03*
D15*
X117633750Y-26035000D03*
X123983750Y-23495000D03*
%TD*%
D13*
%TO.C,MX32*%
X83026250Y-47625000D03*
D14*
X88106250Y-47625000D03*
D13*
X93186250Y-47625000D03*
D15*
X84296250Y-45085000D03*
X90646250Y-42545000D03*
%TD*%
D13*
%TO.C,MX10*%
X197326250Y9525000D03*
D14*
X202406250Y9525000D03*
D13*
X207486250Y9525000D03*
D15*
X198596250Y12065000D03*
X204946250Y14605000D03*
%TD*%
D13*
%TO.C,MX48*%
X247332500Y-47625000D03*
D14*
X252412500Y-47625000D03*
D13*
X257492500Y-47625000D03*
D15*
X248602500Y-45085000D03*
X254952500Y-42545000D03*
%TD*%
D17*
%TO.C,H1*%
X30956250Y22600000D03*
%TD*%
D13*
%TO.C,MX30*%
X63976250Y-47625000D03*
D14*
X69056250Y-47625000D03*
D13*
X74136250Y-47625000D03*
D15*
X65246250Y-45085000D03*
X71596250Y-42545000D03*
%TD*%
D13*
%TO.C,MX37*%
X154463750Y-28575000D03*
D14*
X159543750Y-28575000D03*
D13*
X164623750Y-28575000D03*
D15*
X155733750Y-26035000D03*
X162083750Y-23495000D03*
%TD*%
D13*
%TO.C,MX39*%
X173513750Y-28575000D03*
D14*
X178593750Y-28575000D03*
D13*
X183673750Y-28575000D03*
D15*
X174783750Y-26035000D03*
X181133750Y-23495000D03*
%TD*%
D13*
%TO.C,MX16*%
X87788750Y-9525000D03*
D14*
X92868750Y-9525000D03*
D13*
X97948750Y-9525000D03*
D15*
X89058750Y-6985000D03*
X95408750Y-4445000D03*
%TD*%
D13*
%TO.C,MX19*%
X144938750Y-9525000D03*
D14*
X150018750Y-9525000D03*
D13*
X155098750Y-9525000D03*
D15*
X146208750Y-6985000D03*
X152558750Y-4445000D03*
%TD*%
D13*
%TO.C,MX4*%
X83026250Y9525000D03*
D14*
X88106250Y9525000D03*
D13*
X93186250Y9525000D03*
D15*
X84296250Y12065000D03*
X90646250Y14605000D03*
%TD*%
D18*
%TO.C,D26*%
X40481250Y-49275000D03*
X40481250Y-45975000D03*
%TD*%
%TO.C,D46*%
X245268750Y-49275000D03*
X245268750Y-45975000D03*
%TD*%
%TO.C,D2*%
X57150000Y7875000D03*
X57150000Y11175000D03*
%TD*%
%TO.C,D12*%
X255270000Y7875000D03*
X255270000Y11175000D03*
%TD*%
%TO.C,D33*%
X128587500Y-30225000D03*
X128587500Y-26925000D03*
%TD*%
%TO.C,D25*%
X30956250Y-30225000D03*
X30956250Y-26925000D03*
%TD*%
%TO.C,D15*%
X81280000Y-11175000D03*
X81280000Y-7875000D03*
%TD*%
D19*
%TO.C,F1*%
X74756250Y3175000D03*
X72881250Y3175000D03*
%TD*%
D18*
%TO.C,D18*%
X138430000Y-11175000D03*
X138430000Y-7875000D03*
%TD*%
%TO.C,D24*%
X257810000Y-11175000D03*
X257810000Y-7875000D03*
%TD*%
%TO.C,D10*%
X209550000Y7875000D03*
X209550000Y11175000D03*
%TD*%
%TO.C,D39*%
X185737500Y-30225000D03*
X185737500Y-26925000D03*
%TD*%
%TO.C,D42*%
X197643750Y-49275000D03*
X197643750Y-45975000D03*
%TD*%
%TO.C,D37*%
X166687500Y-30225000D03*
X166687500Y-26925000D03*
%TD*%
D20*
%TO.C,U2*%
X65243750Y362500D03*
X64293750Y362500D03*
X63343750Y362500D03*
X63343750Y2637500D03*
X64293750Y2637500D03*
X65243750Y2637500D03*
%TD*%
D18*
%TO.C,D48*%
X259556250Y-49275000D03*
X259556250Y-45975000D03*
%TD*%
D21*
%TO.C,C5*%
X41387500Y-10318750D03*
X44337500Y-10318750D03*
%TD*%
D22*
%TO.C,U1*%
X53599999Y-24512499D03*
X52799999Y-24512499D03*
X51999999Y-24512499D03*
X51199999Y-24512499D03*
X50399999Y-24512499D03*
X49599999Y-24512499D03*
X48799999Y-24512499D03*
X47999999Y-24512499D03*
D23*
X46549999Y-23062499D03*
X46549999Y-22262499D03*
X46549999Y-21462499D03*
X46549999Y-20662499D03*
X46549999Y-19862499D03*
X46549999Y-19062499D03*
X46549999Y-18262499D03*
X46549999Y-17462499D03*
D22*
X47999999Y-16012499D03*
X48799999Y-16012499D03*
X49599999Y-16012499D03*
X50399999Y-16012499D03*
X51199999Y-16012499D03*
X51999999Y-16012499D03*
X52799999Y-16012499D03*
X53599999Y-16012499D03*
D23*
X55049999Y-17462499D03*
X55049999Y-18262499D03*
X55049999Y-19062499D03*
X55049999Y-19862499D03*
X55049999Y-20662499D03*
X55049999Y-21462499D03*
X55049999Y-22262499D03*
X55049999Y-23062499D03*
%TD*%
D24*
%TO.C,Y1*%
X54560107Y-31573222D03*
X53004472Y-33128857D03*
X51802391Y-31926776D03*
X53358026Y-30371141D03*
%TD*%
D18*
%TO.C,D21*%
X195580000Y-11175000D03*
X195580000Y-7875000D03*
%TD*%
%TO.C,D30*%
X78581250Y-49275000D03*
X78581250Y-45975000D03*
%TD*%
%TO.C,D14*%
X61912500Y-11175000D03*
X61912500Y-7875000D03*
%TD*%
%TO.C,D1*%
X38100000Y7875000D03*
X38100000Y11175000D03*
%TD*%
%TO.C,D34*%
X126206250Y-49275000D03*
X126206250Y-45975000D03*
%TD*%
D25*
%TO.C,R2*%
X40450000Y-19050000D03*
X42100000Y-19050000D03*
%TD*%
D18*
%TO.C,D47*%
X261937500Y-30225000D03*
X261937500Y-26925000D03*
%TD*%
%TO.C,D22*%
X214630000Y-11175000D03*
X214630000Y-7875000D03*
%TD*%
%TO.C,D35*%
X147637500Y-30225000D03*
X147637500Y-26925000D03*
%TD*%
%TO.C,D36*%
X150018750Y-49275000D03*
X150018750Y-45975000D03*
%TD*%
D26*
%TO.C,J1*%
X81318749Y2999999D03*
X81318749Y1999999D03*
X81318749Y999999D03*
X81318749Y0D03*
D27*
X85893750Y5000000D03*
X84493750Y5000000D03*
X85193750Y4950000D03*
D28*
X85193749Y4599999D03*
D27*
X85193750Y4250000D03*
X85893750Y4200000D03*
X84493750Y4200000D03*
X85893750Y-1200000D03*
X84493750Y-1200000D03*
X85193750Y-1250000D03*
D28*
X85193749Y-1599999D03*
D27*
X85193750Y-1950000D03*
X85893750Y-2000000D03*
X84493750Y-2000000D03*
%TD*%
D29*
%TO.C,C6*%
X57150000Y-31768750D03*
X57150000Y-33318750D03*
%TD*%
D18*
%TO.C,D43*%
X223837500Y-30225000D03*
X223837500Y-26925000D03*
%TD*%
%TO.C,D13*%
X26193750Y-11175000D03*
X26193750Y-7875000D03*
%TD*%
D30*
%TO.C,R4*%
X42068750Y-6318750D03*
X42068750Y-7968750D03*
%TD*%
D31*
%TO.C,C1*%
X59550000Y-19468750D03*
X61100000Y-19468750D03*
%TD*%
D18*
%TO.C,D23*%
X233680000Y-11175000D03*
X233680000Y-7875000D03*
%TD*%
D31*
%TO.C,C3*%
X59550000Y-21431250D03*
X61100000Y-21431250D03*
%TD*%
D18*
%TO.C,D31*%
X109537500Y-30225000D03*
X109537500Y-26925000D03*
%TD*%
%TO.C,D19*%
X157480000Y-11175000D03*
X157480000Y-7875000D03*
%TD*%
%TO.C,D9*%
X190500000Y7875000D03*
X190500000Y11175000D03*
%TD*%
%TO.C,D17*%
X119380000Y-11175000D03*
X119380000Y-7875000D03*
%TD*%
%TO.C,D29*%
X90487500Y-30225000D03*
X90487500Y-26925000D03*
%TD*%
D32*
%TO.C,SW1*%
X30187499Y-19362499D03*
X36487499Y-19362499D03*
X30187499Y-15562499D03*
X36487499Y-15562499D03*
%TD*%
D18*
%TO.C,D27*%
X71437500Y-30225000D03*
X71437500Y-26925000D03*
%TD*%
%TO.C,D45*%
X242887500Y-30225000D03*
X242887500Y-26925000D03*
%TD*%
D30*
%TO.C,R1*%
X39687500Y-11875000D03*
X39687500Y-13525000D03*
%TD*%
D18*
%TO.C,D7*%
X152400000Y7875000D03*
X152400000Y11175000D03*
%TD*%
%TO.C,D11*%
X228600000Y7875000D03*
X228600000Y11175000D03*
%TD*%
%TO.C,D44*%
X221456250Y-49275000D03*
X221456250Y-45975000D03*
%TD*%
D31*
%TO.C,C4*%
X59550000Y-23018750D03*
X61100000Y-23018750D03*
%TD*%
D18*
%TO.C,D5*%
X114300000Y7875000D03*
X114300000Y11175000D03*
%TD*%
%TO.C,D3*%
X76200000Y7875000D03*
X76200000Y11175000D03*
%TD*%
%TO.C,D28*%
X54768750Y-49275000D03*
X54768750Y-45975000D03*
%TD*%
%TO.C,D32*%
X95250000Y-49275000D03*
X95250000Y-45975000D03*
%TD*%
%TO.C,D6*%
X133350000Y7875000D03*
X133350000Y11175000D03*
%TD*%
%TO.C,D20*%
X176530000Y-11175000D03*
X176530000Y-7875000D03*
%TD*%
%TO.C,D16*%
X100330000Y-11175000D03*
X100330000Y-7875000D03*
%TD*%
%TO.C,D41*%
X204787500Y-30225000D03*
X204787500Y-26925000D03*
%TD*%
%TO.C,D8*%
X171450000Y7875000D03*
X171450000Y11175000D03*
%TD*%
D29*
%TO.C,C2*%
X48418750Y-28218750D03*
X48418750Y-29768750D03*
%TD*%
%TO.C,C7*%
X49212500Y-31768750D03*
X49212500Y-33318750D03*
%TD*%
D18*
%TO.C,D38*%
X166687500Y-49275000D03*
X166687500Y-45975000D03*
%TD*%
D30*
%TO.C,R3*%
X43656250Y-6318750D03*
X43656250Y-7968750D03*
%TD*%
D18*
%TO.C,D4*%
X95250000Y7875000D03*
X95250000Y11175000D03*
%TD*%
M02*
